<svg width="22" height="22" viewBox="0 0 22 22" fill="none" xmlns="http://www.w3.org/2000/svg">
<path d="M5.49984 10.9999H3.6665M5.49984 10.9999C5.49984 12.0124 6.32065 12.8333 7.33317 12.8333C8.34569 12.8333 9.1665 12.0124 9.1665 10.9999M5.49984 10.9999C5.49984 9.9874 6.32065 9.16659 7.33317 9.16659C8.34569 9.16659 9.1665 9.9874 9.1665 10.9999M16.4998 16.4999C16.4998 15.4874 15.679 14.6666 14.6665 14.6666C13.654 14.6666 12.8332 15.4874 12.8332 16.4999M16.4998 16.4999C16.4998 17.5124 15.679 18.3333 14.6665 18.3333C13.654 18.3333 12.8332 17.5124 12.8332 16.4999M16.4998 16.4999H18.3332M12.8332 16.4999H3.6665M9.1665 10.9999H18.3332M16.4998 5.49992C16.4998 4.4874 15.679 3.66658 14.6665 3.66658C13.654 3.66658 12.8332 4.4874 12.8332 5.49992M16.4998 5.49992C16.4998 6.51244 15.679 7.33325 14.6665 7.33325C13.654 7.33325 12.8332 6.51244 12.8332 5.49992M16.4998 5.49992L18.3332 5.49992M12.8332 5.49992H3.6665" stroke="#00008F" stroke-width="1.5" stroke-linecap="round" stroke-linejoin="round"/>
</svg>
