<svg width="23" height="19" viewBox="0 0 23 19" fill="none" xmlns="http://www.w3.org/2000/svg">
<path d="M9.93783 6.89583H8.89616V5.85417C8.89616 5.5779 8.78641 5.31295 8.59106 5.1176C8.39571 4.92225 8.13076 4.8125 7.85449 4.8125C7.57823 4.8125 7.31327 4.92225 7.11792 5.1176C6.92257 5.31295 6.81283 5.5779 6.81283 5.85417V6.89583H5.77116C5.49489 6.89583 5.22994 7.00558 5.03459 7.20093C4.83924 7.39628 4.72949 7.66123 4.72949 7.9375C4.72949 8.21377 4.83924 8.47872 5.03459 8.67407C5.22994 8.86942 5.49489 8.97917 5.77116 8.97917H6.81283V10.0208C6.81283 10.2971 6.92257 10.5621 7.11792 10.7574C7.31327 10.9528 7.57823 11.0625 7.85449 11.0625C8.13076 11.0625 8.39571 10.9528 8.59106 10.7574C8.78641 10.5621 8.89616 10.2971 8.89616 10.0208V8.97917H9.93783C10.2141 8.97917 10.479 8.86942 10.6744 8.67407C10.8697 8.47872 10.9795 8.21377 10.9795 7.9375C10.9795 7.66123 10.8697 7.39628 10.6744 7.20093C10.479 7.00558 10.2141 6.89583 9.93783 6.89583ZM22.8857 9.13542L22.8232 9.02083C22.8053 8.96929 22.7808 8.92028 22.7503 8.875L20.2503 5.54167C19.9592 5.15355 19.5818 4.83854 19.1479 4.62158C18.7139 4.40462 18.2355 4.29167 17.7503 4.29167H15.667V3.25C15.667 2.4212 15.3378 1.62634 14.7517 1.04029C14.1657 0.45424 13.3708 0.125 12.542 0.125H3.16699C2.33819 0.125 1.54333 0.45424 0.957284 1.04029C0.371232 1.62634 0.0419922 2.4212 0.0419922 3.25V14.7083C0.0419922 14.9846 0.151739 15.2496 0.347089 15.4449C0.54244 15.6403 0.807392 15.75 1.08366 15.75H2.12533C2.12533 16.5788 2.45457 17.3737 3.04062 17.9597C3.62667 18.5458 4.42152 18.875 5.25033 18.875C6.07913 18.875 6.87398 18.5458 7.46004 17.9597C8.04609 17.3737 8.37533 16.5788 8.37533 15.75H14.6253C14.6253 16.5788 14.9546 17.3737 15.5406 17.9597C16.1267 18.5458 16.9215 18.875 17.7503 18.875C18.5791 18.875 19.374 18.5458 19.96 17.9597C20.5461 17.3737 20.8753 16.5788 20.8753 15.75H21.917C22.1933 15.75 22.4582 15.6403 22.6536 15.4449C22.8489 15.2496 22.9587 14.9846 22.9587 14.7083V9.5C22.9564 9.37508 22.9317 9.25159 22.8857 9.13542ZM5.25033 16.7917C5.0443 16.7917 4.84291 16.7306 4.67161 16.6161C4.50031 16.5017 4.36679 16.339 4.28795 16.1486C4.20911 15.9583 4.18848 15.7488 4.22867 15.5468C4.26887 15.3447 4.36808 15.1591 4.51376 15.0134C4.65944 14.8677 4.84504 14.7685 5.04711 14.7283C5.24917 14.6882 5.45861 14.7088 5.64895 14.7876C5.83929 14.8665 6.00198 15 6.11644 15.1713C6.2309 15.3426 6.29199 15.544 6.29199 15.75C6.29199 16.0263 6.18225 16.2912 5.9869 16.4866C5.79154 16.6819 5.52659 16.7917 5.25033 16.7917ZM13.5837 13.6667H7.56283C7.26993 13.3444 6.91292 13.0869 6.51468 12.9108C6.11645 12.7346 5.68579 12.6436 5.25033 12.6436C4.81486 12.6436 4.3842 12.7346 3.98597 12.9108C3.58774 13.0869 3.23072 13.3444 2.93783 13.6667H2.12533V3.25C2.12533 2.97373 2.23507 2.70878 2.43042 2.51343C2.62577 2.31808 2.89073 2.20833 3.16699 2.20833H12.542C12.8183 2.20833 13.0832 2.31808 13.2786 2.51343C13.4739 2.70878 13.5837 2.97373 13.5837 3.25V13.6667ZM15.667 6.375H17.7503C17.912 6.375 18.0715 6.41265 18.2162 6.48497C18.3608 6.55729 18.4866 6.6623 18.5837 6.79167L19.8337 8.45833H15.667V6.375ZM17.7503 16.7917C17.5443 16.7917 17.3429 16.7306 17.1716 16.6161C17.0003 16.5017 16.8668 16.339 16.788 16.1486C16.7091 15.9583 16.6885 15.7488 16.7287 15.5468C16.7689 15.3447 16.8681 15.1591 17.0138 15.0134C17.1594 14.8677 17.345 14.7685 17.5471 14.7283C17.7492 14.6882 17.9586 14.7088 18.149 14.7876C18.3393 14.8665 18.502 15 18.6164 15.1713C18.7309 15.3426 18.792 15.544 18.792 15.75C18.792 16.0263 18.6822 16.2912 18.4869 16.4866C18.2915 16.6819 18.0266 16.7917 17.7503 16.7917ZM20.8753 13.6667H20.0628C19.5085 13.0563 18.7355 12.6897 17.9121 12.6468C17.0887 12.6039 16.2818 12.8881 15.667 13.4375V10.5417H20.8753V13.6667Z" fill="#00008F"/>
</svg>
