<svg width="23" height="19" viewBox="0 0 23 19" fill="none" xmlns="http://www.w3.org/2000/svg">
<path d="M9.93749 6.89583H8.89582V5.85417C8.89582 5.5779 8.78608 5.31295 8.59073 5.1176C8.39538 4.92225 8.13042 4.8125 7.85416 4.8125C7.57789 4.8125 7.31294 4.92225 7.11759 5.1176C6.92224 5.31295 6.81249 5.5779 6.81249 5.85417V6.89583H5.77082C5.49456 6.89583 5.2296 7.00558 5.03425 7.20093C4.8389 7.39628 4.72916 7.66123 4.72916 7.9375C4.72916 8.21377 4.8389 8.47872 5.03425 8.67407C5.2296 8.86942 5.49456 8.97917 5.77082 8.97917H6.81249V10.0208C6.81249 10.2971 6.92224 10.5621 7.11759 10.7574C7.31294 10.9528 7.57789 11.0625 7.85416 11.0625C8.13042 11.0625 8.39538 10.9528 8.59073 10.7574C8.78608 10.5621 8.89582 10.2971 8.89582 10.0208V8.97917H9.93749C10.2138 8.97917 10.4787 8.86942 10.6741 8.67407C10.8694 8.47872 10.9792 8.21377 10.9792 7.9375C10.9792 7.66123 10.8694 7.39628 10.6741 7.20093C10.4787 7.00558 10.2138 6.89583 9.93749 6.89583ZM22.8854 9.13542L22.8229 9.02083C22.805 8.96929 22.7805 8.92028 22.75 8.875L20.25 5.54167C19.9589 5.15355 19.5815 4.83854 19.1475 4.62158C18.7136 4.40462 18.2351 4.29167 17.75 4.29167H15.6667V3.25C15.6667 2.4212 15.3374 1.62634 14.7514 1.04029C14.1653 0.45424 13.3705 0.125 12.5417 0.125H3.16666C2.33786 0.125 1.543 0.45424 0.956948 1.04029C0.370897 1.62634 0.0416565 2.4212 0.0416565 3.25V14.7083C0.0416565 14.9846 0.151403 15.2496 0.346754 15.4449C0.542104 15.6403 0.807056 15.75 1.08332 15.75H2.12499C2.12499 16.5788 2.45423 17.3737 3.04028 17.9597C3.62633 18.5458 4.42119 18.875 5.24999 18.875C6.07879 18.875 6.87365 18.5458 7.4597 17.9597C8.04575 17.3737 8.37499 16.5788 8.37499 15.75H14.625C14.625 16.5788 14.9542 17.3737 15.5403 17.9597C16.1263 18.5458 16.9212 18.875 17.75 18.875C18.5788 18.875 19.3736 18.5458 19.9597 17.9597C20.5458 17.3737 20.875 16.5788 20.875 15.75H21.9167C22.1929 15.75 22.4579 15.6403 22.6532 15.4449C22.8486 15.2496 22.9583 14.9846 22.9583 14.7083V9.5C22.9561 9.37508 22.9314 9.25159 22.8854 9.13542ZM5.24999 16.7917C5.04397 16.7917 4.84257 16.7306 4.67127 16.6161C4.49997 16.5017 4.36646 16.339 4.28762 16.1486C4.20877 15.9583 4.18815 15.7488 4.22834 15.5468C4.26853 15.3447 4.36774 15.1591 4.51342 15.0134C4.6591 14.8677 4.84471 14.7685 5.04677 14.7283C5.24883 14.6882 5.45828 14.7088 5.64862 14.7876C5.83896 14.8665 6.00164 15 6.1161 15.1713C6.23056 15.3426 6.29166 15.544 6.29166 15.75C6.29166 16.0263 6.18191 16.2912 5.98656 16.4866C5.79121 16.6819 5.52626 16.7917 5.24999 16.7917ZM13.5833 13.6667H7.56249C7.26959 13.3444 6.91258 13.0869 6.51435 12.9108C6.11612 12.7346 5.68546 12.6436 5.24999 12.6436C4.81452 12.6436 4.38387 12.7346 3.98563 12.9108C3.5874 13.0869 3.23039 13.3444 2.93749 13.6667H2.12499V3.25C2.12499 2.97373 2.23474 2.70878 2.43009 2.51343C2.62544 2.31808 2.89039 2.20833 3.16666 2.20833H12.5417C12.8179 2.20833 13.0829 2.31808 13.2782 2.51343C13.4736 2.70878 13.5833 2.97373 13.5833 3.25V13.6667ZM15.6667 6.375H17.75C17.9117 6.375 18.0712 6.41265 18.2158 6.48497C18.3605 6.55729 18.4863 6.6623 18.5833 6.79167L19.8333 8.45833H15.6667V6.375ZM17.75 16.7917C17.544 16.7917 17.3426 16.7306 17.1713 16.6161C17 16.5017 16.8665 16.339 16.7876 16.1486C16.7088 15.9583 16.6881 15.7488 16.7283 15.5468C16.7685 15.3447 16.8677 15.1591 17.0134 15.0134C17.1591 14.8677 17.3447 14.7685 17.5468 14.7283C17.7488 14.6882 17.9583 14.7088 18.1486 14.7876C18.339 14.8665 18.5016 15 18.6161 15.1713C18.7306 15.3426 18.7917 15.544 18.7917 15.75C18.7917 16.0263 18.6819 16.2912 18.4866 16.4866C18.2912 16.6819 18.0263 16.7917 17.75 16.7917ZM20.875 13.6667H20.0625C19.5082 13.0563 18.7351 12.6897 17.9118 12.6468C17.0884 12.6039 16.2814 12.8881 15.6667 13.4375V10.5417H20.875V13.6667Z" fill="#64748B"/>
</svg>
