<svg width="25" height="25" viewBox="0 0 25 25" fill="none" xmlns="http://www.w3.org/2000/svg">
<path d="M12.5002 16.6666C14.8013 16.6666 16.6668 14.8011 16.6668 12.4999C16.6668 10.1987 14.8013 8.33325 12.5002 8.33325C10.199 8.33325 8.3335 10.1987 8.3335 12.4999C8.3335 14.8011 10.199 16.6666 12.5002 16.6666Z" stroke="#27364B" stroke-width="2" stroke-linecap="round" stroke-linejoin="round"/>
<path d="M16.6668 8.33334V13.5417C16.6668 14.3705 16.9961 15.1653 17.5821 15.7514C18.1682 16.3374 18.963 16.6667 19.7918 16.6667C20.6206 16.6667 21.4155 16.3374 22.0015 15.7514C22.5876 15.1653 22.9168 14.3705 22.9168 13.5417V12.5C22.9167 10.149 22.1212 7.86717 20.6598 6.02556C19.1984 4.18395 17.157 2.89086 14.8675 2.35656C12.578 1.82226 10.1751 2.07817 8.04949 3.08268C5.92388 4.08718 4.20059 5.78121 3.15982 7.8893C2.11905 9.99739 1.82201 12.3956 2.31701 14.6939C2.81202 16.9922 4.06994 19.0555 5.88625 20.5482C7.70255 22.0409 9.97041 22.8754 12.3211 22.9158C14.6717 22.9562 16.967 22.2003 18.8335 20.7708" stroke="#27364B" stroke-width="2" stroke-linecap="round" stroke-linejoin="round"/>
</svg>
