<svg width="27" height="29" viewBox="0 0 27 29" fill="none" xmlns="http://www.w3.org/2000/svg">
<path d="M17.8749 21.7917H25.1666L23.1177 19.7428C22.5621 19.1872 22.2499 18.4335 22.2499 17.6477V13.0417C22.2499 9.23187 19.8151 5.99075 16.4166 4.78956V4.29167C16.4166 2.68084 15.1107 1.375 13.4999 1.375C11.8891 1.375 10.5833 2.68084 10.5833 4.29167V4.78956C7.18477 5.99075 4.74992 9.23187 4.74992 13.0417V17.6477C4.74992 18.4335 4.43776 19.1872 3.88211 19.7428L1.83325 21.7917H9.12492M17.8749 21.7917V23.25C17.8749 25.6662 15.9162 27.625 13.4999 27.625C11.0837 27.625 9.12492 25.6662 9.12492 23.25V21.7917M17.8749 21.7917H9.12492" stroke="#6B7280" stroke-width="2" stroke-linecap="round" stroke-linejoin="round"/>
</svg>
