<svg width="19" height="22" viewBox="0 0 19 22" fill="none" xmlns="http://www.w3.org/2000/svg">
<path d="M12.625 16.2083H17.8334L16.3699 14.7449C15.973 14.348 15.75 13.8097 15.75 13.2484V9.95834C15.75 7.23705 14.0108 4.92197 11.5834 4.06397V3.70833C11.5834 2.55774 10.6506 1.625 9.50002 1.625C8.34943 1.625 7.41669 2.55774 7.41669 3.70833V4.06397C4.9892 4.92197 3.25002 7.23705 3.25002 9.95834V13.2484C3.25002 13.8097 3.02705 14.348 2.63016 14.7449L1.16669 16.2083H6.37502M12.625 16.2083V17.25C12.625 18.9759 11.2259 20.375 9.50002 20.375C7.77413 20.375 6.37502 18.9759 6.37502 17.25V16.2083M12.625 16.2083H6.37502" stroke="white" stroke-width="2" stroke-linecap="round" stroke-linejoin="round"/>
</svg>
