<svg width="23" height="23" viewBox="0 0 23 23" fill="none" xmlns="http://www.w3.org/2000/svg">
<path d="M12.625 15.9969H5.87501C5.57664 15.9969 5.29049 16.1154 5.07951 16.3264C4.86854 16.5374 4.75001 16.8235 4.75001 17.1219C4.75001 17.4203 4.86854 17.7064 5.07951 17.9174C5.29049 18.1284 5.57664 18.2469 5.87501 18.2469H12.625C12.9234 18.2469 13.2095 18.1284 13.4205 17.9174C13.6315 17.7064 13.75 17.4203 13.75 17.1219C13.75 16.8235 13.6315 16.5374 13.4205 16.3264C13.2095 16.1154 12.9234 15.9969 12.625 15.9969ZM8.12501 9.2469H10.375C10.6734 9.2469 10.9595 9.12838 11.1705 8.9174C11.3815 8.70642 11.5 8.42027 11.5 8.1219C11.5 7.82353 11.3815 7.53739 11.1705 7.32641C10.9595 7.11543 10.6734 6.9969 10.375 6.9969H8.12501C7.82664 6.9969 7.54049 7.11543 7.32951 7.32641C7.11854 7.53739 7.00001 7.82353 7.00001 8.1219C7.00001 8.42027 7.11854 8.70642 7.32951 8.9174C7.54049 9.12838 7.82664 9.2469 8.12501 9.2469ZM21.625 11.4969H18.25V1.3719C18.2508 1.17367 18.1992 0.978742 18.1004 0.806867C18.0016 0.634992 17.8592 0.49227 17.6875 0.393153C17.5165 0.294414 17.3225 0.242432 17.125 0.242432C16.9275 0.242432 16.7335 0.294414 16.5625 0.393153L13.1875 2.32815L9.81251 0.393153C9.64149 0.294414 9.44749 0.242432 9.25001 0.242432C9.05253 0.242432 8.85853 0.294414 8.68751 0.393153L5.31251 2.32815L1.93751 0.393153C1.76649 0.294414 1.57249 0.242432 1.37501 0.242432C1.17753 0.242432 0.98353 0.294414 0.812509 0.393153C0.640829 0.49227 0.498388 0.634992 0.399609 0.806867C0.300831 0.978742 0.249222 1.17367 0.250009 1.3719V19.3719C0.250009 20.267 0.605588 21.1255 1.23852 21.7584C1.87146 22.3913 2.7299 22.7469 3.62501 22.7469H19.375C20.2701 22.7469 21.1286 22.3913 21.7615 21.7584C22.3944 21.1255 22.75 20.267 22.75 19.3719V12.6219C22.75 12.3235 22.6315 12.0374 22.4205 11.8264C22.2095 11.6154 21.9234 11.4969 21.625 11.4969ZM3.62501 20.4969C3.32664 20.4969 3.04049 20.3784 2.82951 20.1674C2.61854 19.9564 2.50001 19.6703 2.50001 19.3719V3.31815L4.75001 4.60065C4.92364 4.69134 5.11662 4.7387 5.31251 4.7387C5.5084 4.7387 5.70138 4.69134 5.87501 4.60065L9.25001 2.66565L12.625 4.60065C12.7986 4.69134 12.9916 4.7387 13.1875 4.7387C13.3834 4.7387 13.5764 4.69134 13.75 4.60065L16 3.31815V19.3719C16.0031 19.7557 16.0715 20.1361 16.2025 20.4969H3.62501ZM20.5 19.3719C20.5 19.6703 20.3815 19.9564 20.1705 20.1674C19.9595 20.3784 19.6734 20.4969 19.375 20.4969C19.0766 20.4969 18.7905 20.3784 18.5795 20.1674C18.3685 19.9564 18.25 19.6703 18.25 19.3719V13.7469H20.5V19.3719ZM12.625 11.4969H5.87501C5.57664 11.4969 5.29049 11.6154 5.07951 11.8264C4.86854 12.0374 4.75001 12.3235 4.75001 12.6219C4.75001 12.9203 4.86854 13.2064 5.07951 13.4174C5.29049 13.6284 5.57664 13.7469 5.87501 13.7469H12.625C12.9234 13.7469 13.2095 13.6284 13.4205 13.4174C13.6315 13.2064 13.75 12.9203 13.75 12.6219C13.75 12.3235 13.6315 12.0374 13.4205 11.8264C13.2095 11.6154 12.9234 11.4969 12.625 11.4969Z" fill="white"/>
</svg>
