<svg width="31" height="30" viewBox="0 0 31 30" fill="none" xmlns="http://www.w3.org/2000/svg">
<rect x="0.5" width="30" height="30" rx="3" fill="#BED0E4"/>
<path d="M14.1039 8.59776C14.4592 7.13408 16.5408 7.13408 16.8961 8.59776C17.1257 9.54327 18.209 9.99198 19.0398 9.48571C20.3261 8.70199 21.798 10.1739 21.0143 11.4602C20.508 12.291 20.9567 13.3743 21.9022 13.6039C23.3659 13.9592 23.3659 16.0408 21.9022 16.3961C20.9567 16.6257 20.508 17.709 21.0143 18.5398C21.798 19.8261 20.3261 21.298 19.0398 20.5143C18.209 20.008 17.1257 20.4567 16.8961 21.4022C16.5408 22.8659 14.4592 22.8659 14.1039 21.4022C13.8743 20.4567 12.791 20.008 11.9602 20.5143C10.6739 21.298 9.20199 19.8261 9.98571 18.5398C10.492 17.709 10.0433 16.6257 9.09776 16.3961C7.63408 16.0408 7.63408 13.9592 9.09776 13.6039C10.0433 13.3743 10.492 12.291 9.98571 11.4602C9.20199 10.1739 10.6739 8.70199 11.9602 9.48571C12.791 9.99198 13.8743 9.54327 14.1039 8.59776Z" stroke="#00008F" stroke-width="1.2" stroke-linecap="round" stroke-linejoin="round"/>
<path d="M18 15C18 16.3807 16.8807 17.5 15.5 17.5C14.1193 17.5 13 16.3807 13 15C13 13.6193 14.1193 12.5 15.5 12.5C16.8807 12.5 18 13.6193 18 15Z" stroke="#00008F" stroke-width="1.2" stroke-linecap="round" stroke-linejoin="round"/>
</svg>
