<svg width="31" height="30" viewBox="0 0 31 30" fill="none" xmlns="http://www.w3.org/2000/svg">
<rect x="0.5" width="30" height="30" rx="3" fill="#BED0E4"/>
<path d="M13.8333 11.6667H18.8333C19.0543 11.6667 19.2663 11.579 19.4226 11.4227C19.5789 11.2664 19.6667 11.0544 19.6667 10.8334C19.6667 10.6124 19.5789 10.4004 19.4226 10.2442C19.2663 10.0879 19.0543 10.0001 18.8333 10.0001H13.8333C13.6123 10.0001 13.4004 10.0879 13.2441 10.2442C13.0878 10.4004 13 10.6124 13 10.8334C13 11.0544 13.0878 11.2664 13.2441 11.4227C13.4004 11.579 13.6123 11.6667 13.8333 11.6667ZM12.1667 15.0001H18.8333C19.0543 15.0001 19.2663 14.9123 19.4226 14.756C19.5789 14.5997 19.6667 14.3878 19.6667 14.1667C19.6667 13.9457 19.5789 13.7338 19.4226 13.5775C19.2663 13.4212 19.0543 13.3334 18.8333 13.3334H12.1667C11.9457 13.3334 11.7337 13.4212 11.5774 13.5775C11.4211 13.7338 11.3333 13.9457 11.3333 14.1667C11.3333 14.3878 11.4211 14.5997 11.5774 14.756C11.7337 14.9123 11.9457 15.0001 12.1667 15.0001ZM12.1667 18.3334H18.8333C19.0543 18.3334 19.2663 18.2456 19.4226 18.0893C19.5789 17.9331 19.6667 17.7211 19.6667 17.5001C19.6667 17.2791 19.5789 17.0671 19.4226 16.9108C19.2663 16.7545 19.0543 16.6667 18.8333 16.6667H12.1667C11.9457 16.6667 11.7337 16.7545 11.5774 16.9108C11.4211 17.0671 11.3333 17.2791 11.3333 17.5001C11.3333 17.7211 11.4211 17.9331 11.5774 18.0893C11.7337 18.2456 11.9457 18.3334 12.1667 18.3334ZM22.1667 6.66675H8.83333C8.61232 6.66675 8.40036 6.75455 8.24408 6.91083C8.0878 7.06711 8 7.27907 8 7.50008V22.5001C8 22.6548 8.0431 22.8065 8.12446 22.9382C8.20582 23.0698 8.32223 23.1762 8.46066 23.2454C8.59908 23.3146 8.75404 23.3439 8.90817 23.33C9.06231 23.3162 9.20953 23.2596 9.33333 23.1667L11.0583 21.8751L12.775 23.1667C12.9192 23.2749 13.0947 23.3334 13.275 23.3334C13.4553 23.3334 13.6308 23.2749 13.775 23.1667L15.5 21.8751L17.225 23.1667C17.3692 23.2749 17.5447 23.3334 17.725 23.3334C17.9053 23.3334 18.0808 23.2749 18.225 23.1667L19.9417 21.8751L21.6667 23.1667C21.7911 23.2595 21.9389 23.3156 22.0935 23.3289C22.2481 23.3421 22.4033 23.3119 22.5417 23.2417C22.6791 23.1725 22.7947 23.0665 22.8756 22.9356C22.9565 22.8047 22.9995 22.654 23 22.5001V7.50008C23 7.27907 22.9122 7.06711 22.7559 6.91083C22.5996 6.75455 22.3877 6.66675 22.1667 6.66675ZM21.3333 20.8334L20.4417 20.1667C20.2974 20.0586 20.122 20.0001 19.9417 20.0001C19.7614 20.0001 19.5859 20.0586 19.4417 20.1667L17.725 21.4584L16 20.1667C15.8558 20.0586 15.6803 20.0001 15.5 20.0001C15.3197 20.0001 15.1442 20.0586 15 20.1667L13.275 21.4584L11.5583 20.1667C11.4141 20.0586 11.2386 20.0001 11.0583 20.0001C10.878 20.0001 10.7026 20.0586 10.5583 20.1667L9.66667 20.8334V8.33341H21.3333V20.8334Z" fill="#00008F"/>
</svg>
