<svg width="31" height="30" viewBox="0 0 31 30" fill="none" xmlns="http://www.w3.org/2000/svg">
<rect x="0.5" width="30" height="30" rx="3" fill="#BED0E4"/>
<path d="M11.3334 13.3334C11.1686 13.3334 11.0075 13.3823 10.8704 13.4739C10.7334 13.5654 10.6266 13.6956 10.5635 13.8478C10.5004 14.0001 10.4839 14.1677 10.5161 14.3293C10.5482 14.491 10.6276 14.6395 10.7442 14.756C10.8607 14.8725 11.0092 14.9519 11.1708 14.9841C11.3325 15.0162 11.5 14.9997 11.6523 14.9366C11.8046 14.8736 11.9347 14.7668 12.0263 14.6297C12.1179 14.4927 12.1667 14.3316 12.1667 14.1667C12.1667 13.9457 12.079 13.7338 11.9227 13.5775C11.7664 13.4212 11.5544 13.3334 11.3334 13.3334ZM21.3334 10.0001H20.5001V7.50008C20.5001 7.27907 20.4123 7.06711 20.256 6.91083C20.0997 6.75455 19.8878 6.66675 19.6667 6.66675H11.3334C11.1124 6.66675 10.9004 6.75455 10.7442 6.91083C10.5879 7.06711 10.5001 7.27907 10.5001 7.50008V10.0001H9.66675C9.00371 10.0001 8.36782 10.2635 7.89898 10.7323C7.43014 11.2012 7.16675 11.837 7.16675 12.5001V17.5001C7.16675 18.1631 7.43014 18.799 7.89898 19.2678C8.36782 19.7367 9.00371 20.0001 9.66675 20.0001H10.5001V22.5001C10.5001 22.7211 10.5879 22.9331 10.7442 23.0893C10.9004 23.2456 11.1124 23.3334 11.3334 23.3334H19.6667C19.8878 23.3334 20.0997 23.2456 20.256 23.0893C20.4123 22.9331 20.5001 22.7211 20.5001 22.5001V20.0001H21.3334C21.9965 20.0001 22.6323 19.7367 23.1012 19.2678C23.57 18.799 23.8334 18.1631 23.8334 17.5001V12.5001C23.8334 11.837 23.57 11.2012 23.1012 10.7323C22.6323 10.2635 21.9965 10.0001 21.3334 10.0001ZM12.1667 8.33341H18.8334V10.0001H12.1667V8.33341ZM18.8334 21.6667H12.1667V18.3334H18.8334V21.6667ZM22.1667 17.5001C22.1667 17.7211 22.079 17.9331 21.9227 18.0893C21.7664 18.2456 21.5544 18.3334 21.3334 18.3334H20.5001V17.5001C20.5001 17.2791 20.4123 17.0671 20.256 16.9108C20.0997 16.7545 19.8878 16.6667 19.6667 16.6667H11.3334C11.1124 16.6667 10.9004 16.7545 10.7442 16.9108C10.5879 17.0671 10.5001 17.2791 10.5001 17.5001V18.3334H9.66675C9.44573 18.3334 9.23377 18.2456 9.07749 18.0893C8.92121 17.9331 8.83341 17.7211 8.83341 17.5001V12.5001C8.83341 12.2791 8.92121 12.0671 9.07749 11.9108C9.23377 11.7545 9.44573 11.6667 9.66675 11.6667H21.3334C21.5544 11.6667 21.7664 11.7545 21.9227 11.9108C22.079 12.0671 22.1667 12.2791 22.1667 12.5001V17.5001Z" fill="#00008F"/>
</svg>
