<svg width="31" height="30" viewBox="0 0 31 30" fill="none" xmlns="http://www.w3.org/2000/svg">
<rect x="0.5" width="30" height="30" rx="3" fill="#BED0E4"/>
<path d="M23.0001 13.3333C23.1095 13.3333 23.2179 13.3117 23.319 13.2699C23.4201 13.228 23.512 13.1666 23.5894 13.0892C23.6668 13.0118 23.7282 12.92 23.77 12.8189C23.8119 12.7177 23.8334 12.6094 23.8334 12.4999V9.99992C23.8335 9.82506 23.7785 9.65463 23.6762 9.51279C23.574 9.37095 23.4297 9.26491 23.2638 9.20972L15.7638 6.70972C15.5926 6.65275 15.4076 6.65275 15.2364 6.70972L7.73641 9.20972C7.57049 9.26491 7.42617 9.37095 7.32392 9.51279C7.22167 9.65463 7.16668 9.82506 7.16675 9.99992V12.4999C7.16672 12.6094 7.18826 12.7177 7.23012 12.8189C7.27199 12.92 7.33337 13.0118 7.41076 13.0892C7.48815 13.1666 7.58003 13.228 7.68114 13.2699C7.78226 13.3117 7.89064 13.3333 8.00008 13.3333H8.83341V19.3201C8.34736 19.4914 7.92622 19.8088 7.6278 20.2289C7.32939 20.6491 7.16833 21.1513 7.16675 21.6666V23.3333C7.16672 23.4427 7.18826 23.5511 7.23012 23.6522C7.27199 23.7533 7.33337 23.8452 7.41076 23.9226C7.48815 24 7.58003 24.0613 7.68114 24.1032C7.78226 24.1451 7.89064 24.1666 8.00008 24.1666H23.0001C23.1095 24.1666 23.2179 24.1451 23.319 24.1032C23.4201 24.0613 23.512 24 23.5894 23.9226C23.6668 23.8452 23.7282 23.7533 23.77 23.6522C23.8119 23.5511 23.8334 23.4427 23.8334 23.3333V21.6666C23.8318 21.1513 23.6708 20.6491 23.3724 20.2289C23.0739 19.8088 22.6528 19.4914 22.1667 19.3201V13.3333H23.0001ZM22.1667 22.4999H8.83341V21.6666C8.83364 21.4456 8.9215 21.2338 9.07774 21.0776C9.23397 20.9213 9.4458 20.8335 9.66675 20.8333H21.3334C21.5544 20.8335 21.7662 20.9213 21.9224 21.0776C22.0787 21.2338 22.1665 21.4456 22.1667 21.6666V22.4999ZM10.5001 19.1666V13.3333H12.1667V19.1666H10.5001ZM13.8334 19.1666V13.3333H17.1667V19.1666H13.8334ZM18.8334 19.1666V13.3333H20.5001V19.1666H18.8334ZM8.83341 11.6666V10.6005L15.5001 8.378L22.1667 10.6005V11.6666H8.83341Z" fill="#00008F"/>
</svg>
