<svg width="23" height="23" viewBox="0 0 23 23" fill="none" xmlns="http://www.w3.org/2000/svg">
<path d="M21.8165 0.314341C21.0101 0.175441 20.1936 0.103944 19.3753 0.100591C16.5834 0.098302 13.8498 0.898861 11.5003 2.40684C9.1447 0.91866 6.41151 0.137751 3.62528 0.156841C2.80701 0.160194 1.99043 0.231691 1.18403 0.370591C0.919886 0.416129 0.680682 0.554482 0.509493 0.760733C0.338305 0.966984 0.246382 1.22758 0.250278 1.49559V14.9956C0.247869 15.1609 0.28192 15.3247 0.35001 15.4753C0.418099 15.626 0.518553 15.7598 0.644223 15.8672C0.769894 15.9746 0.917693 16.053 1.0771 16.0968C1.23651 16.1406 1.40362 16.1487 1.56653 16.1206C3.17867 15.8415 4.83038 15.8878 6.42435 16.2568C8.01832 16.6258 9.52233 17.3101 10.8478 18.2693L10.9828 18.3481H11.1065C11.2313 18.4001 11.3651 18.4268 11.5003 18.4268C11.6354 18.4268 11.7693 18.4001 11.894 18.3481H12.0178L12.1528 18.2693C13.469 17.2887 14.9687 16.5822 16.5629 16.1919C18.1572 15.8015 19.8136 15.7352 21.434 15.9968C21.5969 16.025 21.764 16.0168 21.9235 15.973C22.0829 15.9292 22.2307 15.8508 22.3563 15.7434C22.482 15.636 22.5825 15.5022 22.6505 15.3516C22.7186 15.2009 22.7527 15.0371 22.7503 14.8718V1.37184C22.7386 1.11551 22.6396 0.87089 22.4698 0.678546C22.2999 0.486201 22.0694 0.357695 21.8165 0.314341ZM10.3753 15.2656C8.2939 14.1706 5.97711 13.5991 3.62528 13.6006C3.25403 13.6006 2.88278 13.6006 2.50028 13.6006V2.35059C2.87497 2.329 3.25059 2.329 3.62528 2.35059C6.02534 2.34794 8.37302 3.05224 10.3753 4.37559V15.2656ZM20.5003 13.6456C20.1178 13.6456 19.7465 13.6456 19.3753 13.6456C17.0234 13.6441 14.7067 14.2156 12.6253 15.3106V4.37559C14.6275 3.05224 16.9752 2.34794 19.3753 2.35059C19.75 2.329 20.1256 2.329 20.5003 2.35059V13.6456ZM21.8165 18.3143C21.0101 18.1754 20.1936 18.1039 19.3753 18.1006C16.5834 18.0983 13.8498 18.8989 11.5003 20.4068C9.15073 18.8989 6.41712 18.0983 3.62528 18.1006C2.80701 18.1039 1.99043 18.1754 1.18403 18.3143C1.03758 18.3376 0.897179 18.3895 0.770886 18.4672C0.644593 18.5449 0.534905 18.6468 0.448128 18.7671C0.361352 18.8873 0.299199 19.0235 0.265245 19.1678C0.231291 19.3122 0.226204 19.4618 0.250278 19.6081C0.307449 19.9002 0.47808 20.1578 0.724792 20.3244C0.971505 20.491 1.27419 20.553 1.56653 20.4968C3.17867 20.2177 4.83038 20.264 6.42435 20.6331C8.01832 21.0021 9.52233 21.6864 10.8478 22.6456C11.0383 22.7812 11.2664 22.8541 11.5003 22.8541C11.7342 22.8541 11.9622 22.7812 12.1528 22.6456C13.4782 21.6864 14.9822 21.0021 16.5762 20.6331C18.1702 20.264 19.8219 20.2177 21.434 20.4968C21.7264 20.553 22.0291 20.491 22.2758 20.3244C22.5225 20.1578 22.6931 19.9002 22.7503 19.6081C22.7744 19.4618 22.7693 19.3122 22.7353 19.1678C22.7014 19.0235 22.6392 18.8873 22.5524 18.7671C22.4657 18.6468 22.356 18.5449 22.2297 18.4672C22.1034 18.3895 21.963 18.3376 21.8165 18.3143V18.3143Z" fill="white"/>
</svg>
