<svg width="23" height="23" viewBox="0 0 23 23" fill="none" xmlns="http://www.w3.org/2000/svg">
<path d="M21.625 4.74683H17.125V3.62183C17.125 2.72672 16.7694 1.86828 16.1365 1.23534C15.5036 0.602406 14.6451 0.246826 13.75 0.246826H9.25C8.35489 0.246826 7.49645 0.602406 6.86351 1.23534C6.23058 1.86828 5.875 2.72672 5.875 3.62183V4.74683H1.375C1.07663 4.74683 0.790483 4.86535 0.579505 5.07633C0.368526 5.28731 0.25 5.57346 0.25 5.87183V10.3718C0.252533 10.8436 0.35396 11.3097 0.547735 11.7398C0.74151 12.17 1.02333 12.5548 1.375 12.8693V19.3718C1.375 20.2669 1.73058 21.1254 2.36351 21.7583C2.99645 22.3912 3.85489 22.7468 4.75 22.7468H18.25C19.1451 22.7468 20.0036 22.3912 20.6365 21.7583C21.2694 21.1254 21.625 20.2669 21.625 19.3718V12.8693C21.9767 12.5548 22.2585 12.17 22.4523 11.7398C22.646 11.3097 22.7475 10.8436 22.75 10.3718V5.87183C22.75 5.57346 22.6315 5.28731 22.4205 5.07633C22.2095 4.86535 21.9234 4.74683 21.625 4.74683ZM8.125 3.62183C8.125 3.32346 8.24353 3.03731 8.4545 2.82633C8.66548 2.61535 8.95163 2.49683 9.25 2.49683H13.75C14.0484 2.49683 14.3345 2.61535 14.5455 2.82633C14.7565 3.03731 14.875 3.32346 14.875 3.62183V4.74683H8.125V3.62183ZM19.375 19.3718C19.375 19.6702 19.2565 19.9563 19.0455 20.1673C18.8345 20.3783 18.5484 20.4968 18.25 20.4968H4.75C4.45163 20.4968 4.16548 20.3783 3.9545 20.1673C3.74353 19.9563 3.625 19.6702 3.625 19.3718V13.7468H5.875V14.8718C5.875 15.1702 5.99353 15.4563 6.2045 15.6673C6.41548 15.8783 6.70163 15.9968 7 15.9968C7.29837 15.9968 7.58452 15.8783 7.7955 15.6673C8.00647 15.4563 8.125 15.1702 8.125 14.8718V13.7468H14.875V14.8718C14.875 15.1702 14.9935 15.4563 15.2045 15.6673C15.4155 15.8783 15.7016 15.9968 16 15.9968C16.2984 15.9968 16.5845 15.8783 16.7955 15.6673C17.0065 15.4563 17.125 15.1702 17.125 14.8718V13.7468H19.375V19.3718ZM20.5 10.3718C20.5 10.6702 20.3815 10.9563 20.1705 11.1673C19.9595 11.3783 19.6734 11.4968 19.375 11.4968H17.125V10.3718C17.125 10.0735 17.0065 9.78731 16.7955 9.57633C16.5845 9.36535 16.2984 9.24683 16 9.24683C15.7016 9.24683 15.4155 9.36535 15.2045 9.57633C14.9935 9.78731 14.875 10.0735 14.875 10.3718V11.4968H8.125V10.3718C8.125 10.0735 8.00647 9.78731 7.7955 9.57633C7.58452 9.36535 7.29837 9.24683 7 9.24683C6.70163 9.24683 6.41548 9.36535 6.2045 9.57633C5.99353 9.78731 5.875 10.0735 5.875 10.3718V11.4968H3.625C3.32663 11.4968 3.04048 11.3783 2.8295 11.1673C2.61853 10.9563 2.5 10.6702 2.5 10.3718V6.99683H20.5V10.3718Z" fill="white"/>
</svg>
