<svg width="20" height="21" viewBox="0 0 20 21" fill="none" xmlns="http://www.w3.org/2000/svg">
<path d="M19 4.5H15V3.5C15 2.70435 14.6839 1.94129 14.1213 1.37868C13.5587 0.816071 12.7956 0.5 12 0.5H8C7.20435 0.5 6.44129 0.816071 5.87868 1.37868C5.31607 1.94129 5 2.70435 5 3.5V4.5H1C0.734784 4.5 0.48043 4.60536 0.292893 4.79289C0.105357 4.98043 0 5.23478 0 5.5V9.5C0.00225164 9.91938 0.0924089 10.3336 0.264653 10.716C0.436898 11.0984 0.687403 11.4404 1 11.72V17.5C1 18.2956 1.31607 19.0587 1.87868 19.6213C2.44129 20.1839 3.20435 20.5 4 20.5H16C16.7956 20.5 17.5587 20.1839 18.1213 19.6213C18.6839 19.0587 19 18.2956 19 17.5V11.72C19.3126 11.4404 19.5631 11.0984 19.7353 10.716C19.9076 10.3336 19.9977 9.91938 20 9.5V5.5C20 5.23478 19.8946 4.98043 19.7071 4.79289C19.5196 4.60536 19.2652 4.5 19 4.5ZM7 3.5C7 3.23478 7.10536 2.98043 7.29289 2.79289C7.48043 2.60536 7.73478 2.5 8 2.5H12C12.2652 2.5 12.5196 2.60536 12.7071 2.79289C12.8946 2.98043 13 3.23478 13 3.5V4.5H7V3.5ZM17 17.5C17 17.7652 16.8946 18.0196 16.7071 18.2071C16.5196 18.3946 16.2652 18.5 16 18.5H4C3.73478 18.5 3.48043 18.3946 3.29289 18.2071C3.10536 18.0196 3 17.7652 3 17.5V12.5H5V13.5C5 13.7652 5.10536 14.0196 5.29289 14.2071C5.48043 14.3946 5.73478 14.5 6 14.5C6.26522 14.5 6.51957 14.3946 6.70711 14.2071C6.89464 14.0196 7 13.7652 7 13.5V12.5H13V13.5C13 13.7652 13.1054 14.0196 13.2929 14.2071C13.4804 14.3946 13.7348 14.5 14 14.5C14.2652 14.5 14.5196 14.3946 14.7071 14.2071C14.8946 14.0196 15 13.7652 15 13.5V12.5H17V17.5ZM18 9.5C18 9.76522 17.8946 10.0196 17.7071 10.2071C17.5196 10.3946 17.2652 10.5 17 10.5H15V9.5C15 9.23478 14.8946 8.98043 14.7071 8.79289C14.5196 8.60536 14.2652 8.5 14 8.5C13.7348 8.5 13.4804 8.60536 13.2929 8.79289C13.1054 8.98043 13 9.23478 13 9.5V10.5H7V9.5C7 9.23478 6.89464 8.98043 6.70711 8.79289C6.51957 8.60536 6.26522 8.5 6 8.5C5.73478 8.5 5.48043 8.60536 5.29289 8.79289C5.10536 8.98043 5 9.23478 5 9.5V10.5H3C2.73478 10.5 2.48043 10.3946 2.29289 10.2071C2.10536 10.0196 2 9.76522 2 9.5V6.5H18V9.5Z" fill="#E26B0A"/>
</svg>
