<svg width="21" height="20" viewBox="0 0 21 20" fill="none" xmlns="http://www.w3.org/2000/svg">
<path d="M20.71 12.54L18.21 10C18.117 9.90627 18.0064 9.83188 17.8846 9.78111C17.7627 9.73034 17.632 9.7042 17.5 9.7042C17.368 9.7042 17.2373 9.73034 17.1154 9.78111C16.9936 9.83188 16.883 9.90627 16.79 10L14 12.84L11.21 10C11.117 9.90627 11.0064 9.83188 10.8846 9.78111C10.7627 9.73034 10.632 9.7042 10.5 9.7042C10.368 9.7042 10.2373 9.73034 10.1154 9.78111C9.99356 9.83188 9.88296 9.90627 9.79 10L7.5 12.34L5.21 10C5.11703 9.90627 5.00643 9.83188 4.88458 9.78111C4.76272 9.73034 4.63201 9.7042 4.5 9.7042C4.36799 9.7042 4.23728 9.73034 4.11542 9.78111C3.99356 9.83188 3.88296 9.90627 3.79 10L1.29 12.5C1.19896 12.5951 1.12759 12.7072 1.08 12.83C1.02876 12.9502 1.00158 13.0793 0.999998 13.21V17C0.999998 17.7956 1.31607 18.5587 1.87868 19.1213C2.44129 19.6839 3.20435 20 4 20H18C18.7956 20 19.5587 19.6839 20.1213 19.1213C20.6839 18.5587 21 17.7956 21 17V13.25C20.9984 13.1193 20.9712 12.9902 20.92 12.87C20.8724 12.7472 20.801 12.6351 20.71 12.54ZM19 17C19 17.2652 18.8946 17.5196 18.7071 17.7071C18.5196 17.8946 18.2652 18 18 18H4C3.73478 18 3.48043 17.8946 3.29289 17.7071C3.10536 17.5196 3 17.2652 3 17V13.66L4.5 12.16L6.79 14.46C6.88296 14.5537 6.99356 14.6281 7.11542 14.6789C7.23728 14.7297 7.36799 14.7558 7.5 14.7558C7.63201 14.7558 7.76272 14.7297 7.88457 14.6789C8.00643 14.6281 8.11703 14.5537 8.21 14.46L10.5 12.16L13.29 15C13.383 15.0937 13.4936 15.1681 13.6154 15.2189C13.7373 15.2697 13.868 15.2958 14 15.2958C14.132 15.2958 14.2627 15.2697 14.3846 15.2189C14.5064 15.1681 14.617 15.0937 14.71 15L17.5 12.2L19 13.7V17ZM18 0H4C3.20435 0 2.44129 0.316071 1.87868 0.87868C1.31607 1.44129 0.999998 2.20435 0.999998 3V8.26C0.989579 8.3497 0.989579 8.4403 0.999998 8.53V8.63C1.06261 8.78638 1.1637 8.92441 1.29391 9.03128C1.42411 9.13815 1.5792 9.2104 1.74478 9.24132C1.91037 9.27224 2.08108 9.26083 2.24107 9.20816C2.40107 9.15548 2.54517 9.06324 2.66 8.94L4.5 7.16L6.79 9.46C6.88296 9.55373 6.99356 9.62812 7.11542 9.67889C7.23728 9.72966 7.36799 9.7558 7.5 9.7558C7.63201 9.7558 7.76272 9.72966 7.88457 9.67889C8.00643 9.62812 8.11703 9.55373 8.21 9.46L10.5 7.16L13.29 10C13.383 10.0937 13.4936 10.1681 13.6154 10.2189C13.7373 10.2697 13.868 10.2958 14 10.2958C14.132 10.2958 14.2627 10.2697 14.3846 10.2189C14.5064 10.1681 14.617 10.0937 14.71 10L17.5 7.2L19.27 8.98C19.3848 9.10324 19.5289 9.19548 19.6889 9.24816C19.8489 9.30083 20.0196 9.31224 20.1852 9.28132C20.3508 9.2504 20.5059 9.17815 20.6361 9.07128C20.7663 8.96441 20.8674 8.82638 20.93 8.67C20.9349 8.6402 20.9349 8.6098 20.93 8.58C20.9652 8.49057 20.9854 8.39598 20.99 8.3V3C20.99 2.20608 20.6753 1.44453 20.1149 0.882207C19.5544 0.319885 18.7939 0.0026464 18 0ZM19 5.84L18.21 5C18.117 4.90627 18.0064 4.83188 17.8846 4.78111C17.7627 4.73034 17.632 4.7042 17.5 4.7042C17.368 4.7042 17.2373 4.73034 17.1154 4.78111C16.9936 4.83188 16.883 4.90627 16.79 5L14 7.84L11.21 5C11.117 4.90627 11.0064 4.83188 10.8846 4.78111C10.7627 4.73034 10.632 4.7042 10.5 4.7042C10.368 4.7042 10.2373 4.73034 10.1154 4.78111C9.99356 4.83188 9.88296 4.90627 9.79 5L7.5 7.34L5.21 5C5.11703 4.90627 5.00643 4.83188 4.88458 4.78111C4.76272 4.73034 4.63201 4.7042 4.5 4.7042C4.36799 4.7042 4.23728 4.73034 4.11542 4.78111C3.99356 4.83188 3.88296 4.90627 3.79 5L3 5.84V3C3 2.73478 3.10536 2.48043 3.29289 2.29289C3.48043 2.10536 3.73478 2 4 2H18C18.2652 2 18.5196 2.10536 18.7071 2.29289C18.8946 2.48043 19 2.73478 19 3V5.84Z" fill="#64748B"/>
</svg>
