<svg width="19" height="12" viewBox="0 0 19 12" fill="none" xmlns="http://www.w3.org/2000/svg">
<path d="M17.8388 1.75625C17.7057 1.67945 17.5548 1.63902 17.4013 1.63902C17.2477 1.63902 17.0968 1.67945 16.9638 1.75625L13.875 3.27875C13.8501 2.59937 13.5625 1.95616 13.0729 1.48451C12.5833 1.01285 11.9298 0.749543 11.25 0.750001H3.375C2.67881 0.750001 2.01113 1.02656 1.51884 1.51885C1.02656 2.01113 0.75 2.67881 0.75 3.375V8.625C0.75 9.32119 1.02656 9.98887 1.51884 10.4812C2.01113 10.9734 2.67881 11.25 3.375 11.25H11.25C11.9298 11.2505 12.5833 10.9871 13.0729 10.5155C13.5625 10.0438 13.8501 9.40063 13.875 8.72125L16.99 10.2787C17.1093 10.3399 17.241 10.3728 17.375 10.375C17.5388 10.3755 17.6995 10.3301 17.8388 10.2438C17.9648 10.1649 18.0688 10.0553 18.1407 9.92516C18.2127 9.79503 18.2503 9.6487 18.25 9.5V2.5C18.2503 2.3513 18.2127 2.20498 18.1407 2.07484C18.0688 1.94471 17.9648 1.83506 17.8388 1.75625ZM12.125 8.625C12.125 8.85706 12.0328 9.07962 11.8687 9.24372C11.7046 9.40781 11.4821 9.5 11.25 9.5H3.375C3.14294 9.5 2.92038 9.40781 2.75628 9.24372C2.59219 9.07962 2.5 8.85706 2.5 8.625V3.375C2.5 3.14294 2.59219 2.92038 2.75628 2.75628C2.92038 2.59219 3.14294 2.5 3.375 2.5H11.25C11.4821 2.5 11.7046 2.59219 11.8687 2.75628C12.0328 2.92038 12.125 3.14294 12.125 3.375V8.625ZM16.5 8.0825L13.875 6.77V5.23L16.5 3.9175V8.0825Z" fill="#2763A5"/>
</svg>
