<svg width="26" height="24" viewBox="0 0 26 24" fill="none" xmlns="http://www.w3.org/2000/svg">
<path d="M17.4519 1.31249L17.45 1.3125L8.55 1.3125H8.54807C7.87385 1.30989 7.21551 1.51705 6.66426 1.90525C6.1141 2.29269 5.69779 2.84132 5.47274 3.47539L3.77411 8.54631L3.68823 8.80269L3.42666 8.87119C2.73368 9.05266 2.12007 9.45799 1.68123 10.0242C1.24258 10.5901 1.00311 11.2851 1 12.001V16.9993C1.00202 17.6696 1.21125 18.3228 1.59901 18.8696C1.98691 19.4165 2.53449 19.8301 3.16666 20.0536L3.5 20.1714V20.525V22C3.5 22.1989 3.57902 22.3897 3.71967 22.5303C3.86032 22.671 4.05109 22.75 4.25 22.75C4.44891 22.75 4.63968 22.671 4.78033 22.5303C4.92098 22.3897 5 22.1989 5 22V20.75V20.25H5.5H20.5H21V20.75V22C21 22.1989 21.079 22.3897 21.2197 22.5303C21.3603 22.671 21.5511 22.75 21.75 22.75C21.9489 22.75 22.1397 22.671 22.2803 22.5303C22.421 22.3897 22.5 22.1989 22.5 22V20.525V20.1714L22.8333 20.0536C23.4655 19.8301 24.0131 19.4165 24.401 18.8696C24.7888 18.3228 24.998 17.6695 25 16.9993C25 16.999 25 16.9988 25 16.9986L25 12.0011M17.4519 1.31249L22.7 8.35M17.4519 1.31249C18.1261 1.30989 18.7845 1.51705 19.3357 1.90525C19.8861 2.2928 20.3024 2.84163 20.5275 3.47593L22.2 8.43209M17.4519 1.31249L22.7 8.35M25 12.0011V12H25.5L25 12.002C25 12.0017 25 12.0014 25 12.0011ZM25 12.0011C24.9969 11.2851 24.7574 10.5901 24.3188 10.0242C23.8799 9.45799 23.2663 9.05266 22.5733 8.87119L22.2 8.77342V8.43209M22.2 8.43209L22.2262 8.50987L22.5889 8.3875L22.7 8.35M22.2 8.43209V8.3875V8.35H22.7M6.88878 3.94L6.88879 3.94C7.00619 3.59241 7.22986 3.29051 7.52819 3.07697C7.82633 2.86357 8.18396 2.7492 8.55059 2.75M6.88878 3.94L8.55 3.25M6.88878 3.94L6.88787 3.94274L5.51287 8.09274L5.29511 8.75H5.9875H20.0125H20.695L20.4892 8.09923L19.1767 3.94923L19.1768 3.9492L19.1739 3.94068C19.0522 3.57846 18.8152 3.26606 18.4992 3.05118C18.1871 2.83895 17.8149 2.73338 17.4381 2.75M6.88878 3.94L17.45 3.25M8.55059 2.75C8.55082 2.75 8.55106 2.75 8.55129 2.75L8.55 3.25M8.55059 2.75H8.55V3.25M8.55059 2.75H17.4381M8.55 3.25H17.45M17.4381 2.75C17.4333 2.75021 17.4286 2.75043 17.4239 2.75068L17.45 3.25M17.4381 2.75H17.45V3.25M6.44516 13.8202L6.4571 13.8158L6.46882 13.8109C6.6054 13.7535 6.75593 13.7378 6.90143 13.7658C7.04444 13.7934 7.17629 13.862 7.28091 13.9631C7.41903 14.1107 7.49723 14.3046 7.50005 14.507L7.50001 14.507L7.50017 14.5129C7.50238 14.5988 7.48444 14.684 7.44778 14.7617L7.44299 14.7718L7.43866 14.7822C7.40045 14.8736 7.34801 14.9584 7.28333 15.0333C7.20936 15.0972 7.12584 15.1491 7.03577 15.1872C6.9004 15.2406 6.75238 15.2535 6.60977 15.2242C6.46596 15.1947 6.33396 15.1237 6.23015 15.0198C6.12635 14.916 6.05529 14.784 6.02578 14.6402C5.99628 14.4964 6.00964 14.3471 6.06419 14.2108L6.06731 14.203L6.07016 14.1952C6.10134 14.109 6.1511 14.0307 6.21591 13.9659C6.28072 13.9011 6.35898 13.8513 6.44516 13.8202ZM17.45 0.812497H8.55H17.45ZM18.5642 14.2108L18.5673 14.203L18.5702 14.1952C18.6013 14.109 18.6511 14.0307 18.7159 13.9659C18.7807 13.9011 18.859 13.8513 18.9452 13.8202L18.775 13.35L18.9688 13.8109C19.1054 13.7535 19.2559 13.7378 19.4014 13.7658C19.5444 13.7934 19.6763 13.862 19.7809 13.9631C19.919 14.1107 19.9972 14.3046 20 14.507L20 14.507L20.0002 14.5129C20.0024 14.5988 19.9844 14.684 19.9478 14.7617L19.9378 14.7828L19.9298 14.8048C19.8987 14.891 19.8489 14.9693 19.7841 15.0341C19.7193 15.0989 19.641 15.1487 19.5548 15.1798L19.547 15.1827L19.5392 15.1858C19.4029 15.2404 19.2536 15.2537 19.1098 15.2242C18.966 15.1947 18.834 15.1237 18.7302 15.0198C18.6263 14.916 18.5553 14.784 18.5258 14.6402C18.4963 14.4964 18.5096 14.3471 18.5642 14.2108ZM22.9874 18.2374C23.3156 17.9092 23.5 17.4641 23.5 17V12C23.5 11.5359 23.3156 11.0908 22.9874 10.7626C22.6593 10.4344 22.2141 10.25 21.75 10.25H4.25C3.78587 10.25 3.34075 10.4344 3.01256 10.7626C2.68438 11.0908 2.5 11.5359 2.5 12V17C2.5 17.4641 2.68437 17.9092 3.01256 18.2374C3.34075 18.5656 3.78587 18.75 4.25 18.75H21.75C22.2141 18.75 22.6592 18.5656 22.9874 18.2374ZM11.75 13.75H14.25C14.4489 13.75 14.6397 13.829 14.7803 13.9697C14.921 14.1103 15 14.3011 15 14.5C15 14.6989 14.921 14.8897 14.7803 15.0303C14.6397 15.171 14.4489 15.25 14.25 15.25H11.75C11.5511 15.25 11.3603 15.171 11.2197 15.0303C11.079 14.8897 11 14.6989 11 14.5C11 14.3011 11.079 14.1103 11.2197 13.9697C11.3603 13.829 11.5511 13.75 11.75 13.75Z" fill="transparent" stroke="#E26B0A"/>
</svg>
