<svg width="20" height="20" viewBox="0 0 20 20" fill="none" xmlns="http://www.w3.org/2000/svg">
<path d="M2.16656 10.002V10.0001C2.16656 7.92255 2.99185 5.93011 4.46089 4.46108C5.18828 3.73369 6.05182 3.15669 7.0022 2.76303C7.95259 2.36936 8.9712 2.16675 9.99989 2.16675C12.0774 2.16675 14.0699 2.99204 15.5389 4.46108C17.0079 5.93011 17.8332 7.92255 17.8332 10.0001C17.8332 12.0776 17.0079 14.07 15.5389 15.5391C14.0699 17.0081 12.0774 17.8334 9.99989 17.8334H2.49989H2.48937L2.47886 17.8339C2.41286 17.8366 2.34752 17.8197 2.29114 17.7853C2.23721 17.7524 2.1938 17.7049 2.1659 17.6483C2.14303 17.5897 2.13717 17.5258 2.14909 17.464C2.16146 17.3998 2.19246 17.3406 2.2382 17.2939C2.23851 17.2936 2.23882 17.2932 2.23913 17.2929L3.90344 15.6286L4.22466 15.3074L3.93563 14.957C2.78557 13.5625 2.15971 11.8095 2.16656 10.002ZM9.99989 17.1667H10.0003C11.6583 17.1654 13.2645 16.5893 14.5453 15.5365C15.8262 14.4838 16.7024 13.0195 17.0246 11.3931C17.3469 9.76676 17.0953 8.07897 16.3127 6.61732C15.5301 5.15566 14.265 4.01056 12.7328 3.37711C11.2006 2.74366 9.49614 2.66104 7.90987 3.14335C6.32359 3.62565 4.95361 4.64303 4.03334 6.02215C3.11306 7.40127 2.69943 9.05681 2.8629 10.7067C3.02635 12.3563 3.75659 13.8982 4.92924 15.0699C4.99093 15.1323 5.02555 15.2165 5.02555 15.3042C5.02555 15.3921 4.99086 15.4764 4.92905 15.5388C4.9289 15.539 4.92876 15.5391 4.92862 15.5392L4.15467 16.3132L3.30111 17.1667H4.50822H9.99989ZM5.83322 9.66675H14.1666C14.255 9.66675 14.3397 9.70187 14.4023 9.76438C14.4648 9.82689 14.4999 9.91168 14.4999 10.0001C14.4999 10.0885 14.4648 10.1733 14.4023 10.2358C14.3397 10.2983 14.255 10.3334 14.1666 10.3334H5.83322C5.74482 10.3334 5.66003 10.2983 5.59752 10.2358C5.53501 10.1733 5.49989 10.0885 5.49989 10.0001C5.49989 9.91168 5.53501 9.82689 5.59752 9.76438C5.66003 9.70187 5.74482 9.66675 5.83322 9.66675ZM7.49989 13.0001H12.4999C12.5883 13.0001 12.6731 13.0352 12.7356 13.0977C12.7981 13.1602 12.8332 13.245 12.8332 13.3334C12.8332 13.4218 12.7981 13.5066 12.7356 13.5691C12.6731 13.6316 12.5883 13.6667 12.4999 13.6667H7.49989C7.41148 13.6667 7.3267 13.6316 7.26419 13.5691C7.20167 13.5066 7.16655 13.4218 7.16655 13.3334C7.16655 13.245 7.20167 13.1602 7.26419 13.0977C7.3267 13.0352 7.41148 13.0001 7.49989 13.0001ZM12.4999 7.00008H7.49989C7.41148 7.00008 7.3267 6.96496 7.26419 6.90245C7.20167 6.83994 7.16655 6.75515 7.16655 6.66675C7.16655 6.57834 7.20167 6.49356 7.26419 6.43105C7.3267 6.36853 7.41148 6.33341 7.49989 6.33341H12.4999C12.5883 6.33341 12.6731 6.36853 12.7356 6.43105C12.7981 6.49356 12.8332 6.57834 12.8332 6.66675C12.8332 6.75515 12.7981 6.83994 12.7356 6.90245C12.6731 6.96496 12.5883 7.00008 12.4999 7.00008Z" fill="#CBD4E1" stroke="#A832A2"/>
</svg>
