<svg width="18" height="14" viewBox="0 0 18 14" fill="none" xmlns="http://www.w3.org/2000/svg">
<path d="M17.0325 1.36461L17.0403 1.37249L17.0485 1.38001C17.1246 1.45024 17.1853 1.53548 17.2269 1.63035C17.2685 1.72523 17.2899 1.82768 17.2899 1.93126C17.2899 2.03483 17.2685 2.13729 17.2269 2.23216C17.1853 2.32704 17.1246 2.41228 17.0485 2.48251L17.0411 2.48934L17.0339 2.49646L6.83394 12.6965L6.8325 12.6979C6.76278 12.7682 6.67982 12.824 6.58843 12.8621C6.49704 12.9002 6.39901 12.9198 6.3 12.9198C6.20099 12.9198 6.10296 12.9002 6.01157 12.8621C5.92017 12.824 5.83722 12.7682 5.7675 12.6979L5.76605 12.6965L0.966052 7.89646L0.966105 7.8964L0.959883 7.89039C0.886456 7.81946 0.82772 7.73477 0.787026 7.64114C0.746331 7.54751 0.724478 7.44678 0.722712 7.34471C0.720946 7.24263 0.739302 7.14121 0.776733 7.04623C0.814164 6.95125 0.869936 6.86457 0.940865 6.79114C1.01179 6.71772 1.09649 6.65898 1.19012 6.61829C1.28375 6.57759 1.38448 6.55574 1.48655 6.55397C1.58862 6.55221 1.69005 6.57056 1.78503 6.60799C1.87872 6.64492 1.96434 6.69969 2.03713 6.76925L5.94588 10.6905L6.29967 11.0454L6.65379 10.6908L15.9663 1.36583L15.9675 1.36461C16.0372 1.29431 16.1202 1.23852 16.2116 1.20044C16.303 1.16236 16.401 1.14276 16.5 1.14276C16.599 1.14276 16.697 1.16236 16.7884 1.20044C16.8798 1.23852 16.9628 1.29431 17.0325 1.36461Z" fill="#00B050" stroke="#00B050"/>
</svg>
