<svg width="27" height="28" viewBox="0 0 27 28" fill="none" xmlns="http://www.w3.org/2000/svg">
<path d="M10.8321 15.5429C10.4416 15.1524 9.80842 15.1524 9.41789 15.5429C9.02737 15.9334 9.02737 16.5666 9.41789 16.9571L10.8321 15.5429ZM12.375 18.5L11.6679 19.2071C12.0584 19.5976 12.6916 19.5976 13.0821 19.2071L12.375 18.5ZM17.5821 14.7071C17.9726 14.3166 17.9726 13.6834 17.5821 13.2929C17.1916 12.9024 16.5584 12.9024 16.1679 13.2929L17.5821 14.7071ZM20.375 8.375V21.875H22.375V8.375H20.375ZM19.125 23.125H7.875V25.125H19.125V23.125ZM6.625 21.875V8.375H4.625V21.875H6.625ZM7.875 7.125H10.125V5.125H7.875V7.125ZM16.875 7.125H19.125V5.125H16.875V7.125ZM7.875 23.125C7.18464 23.125 6.625 22.5654 6.625 21.875H4.625C4.625 23.6699 6.08007 25.125 7.875 25.125V23.125ZM20.375 21.875C20.375 22.5654 19.8154 23.125 19.125 23.125V25.125C20.9199 25.125 22.375 23.6699 22.375 21.875H20.375ZM22.375 8.375C22.375 6.58007 20.9199 5.125 19.125 5.125V7.125C19.8154 7.125 20.375 7.68464 20.375 8.375H22.375ZM6.625 8.375C6.625 7.68464 7.18464 7.125 7.875 7.125V5.125C6.08007 5.125 4.625 6.58007 4.625 8.375H6.625ZM9.41789 16.9571L11.6679 19.2071L13.0821 17.7929L10.8321 15.5429L9.41789 16.9571ZM13.0821 19.2071L17.5821 14.7071L16.1679 13.2929L11.6679 17.7929L13.0821 19.2071ZM12.375 4.875H14.625V2.875H12.375V4.875ZM14.625 7.375H12.375V9.375H14.625V7.375ZM12.375 7.375C11.6846 7.375 11.125 6.81536 11.125 6.125H9.125C9.125 7.91993 10.5801 9.375 12.375 9.375V7.375ZM15.875 6.125C15.875 6.81536 15.3154 7.375 14.625 7.375V9.375C16.4199 9.375 17.875 7.91993 17.875 6.125H15.875ZM14.625 4.875C15.3154 4.875 15.875 5.43464 15.875 6.125H17.875C17.875 4.33007 16.4199 2.875 14.625 2.875V4.875ZM12.375 2.875C10.5801 2.875 9.125 4.33007 9.125 6.125H11.125C11.125 5.43464 11.6846 4.875 12.375 4.875V2.875Z" fill="#FFC000"/>
</svg>
