<svg width="71" height="70" viewBox="0 0 71 70" fill="none" xmlns="http://www.w3.org/2000/svg">
<path d="M30.5675 38.5329L30.9214 38.8869L31.275 38.5325L43.786 25.9923C43.7862 25.9921 43.7864 25.9919 43.7866 25.9917C44.2394 25.5419 44.8516 25.2895 45.4898 25.2895C46.1282 25.2895 46.7407 25.5422 47.1935 25.9923L47.1939 25.9927C47.4204 26.2173 47.6002 26.4846 47.7229 26.7791C47.8456 27.0736 47.9088 27.3895 47.9088 27.7085C47.9088 28.0275 47.8456 28.3434 47.7229 28.6379C47.6002 28.9324 47.4204 29.1997 47.1939 29.4243L47.1925 29.4258L32.6106 44.0077C32.6103 44.0079 32.6101 44.0081 32.6099 44.0083C32.1598 44.4544 31.5526 44.7058 30.9189 44.7085L30.9181 44.7085C30.6001 44.7103 30.2848 44.6494 29.9903 44.5291C29.6964 44.4091 29.429 44.2323 29.2034 44.0088C29.2031 44.0084 29.2027 44.0081 29.2023 44.0077L22.3503 37.1265L22.3363 37.1125L22.3212 37.0996C22.0683 36.8829 21.8628 36.6163 21.7177 36.3165C21.5727 36.0167 21.4912 35.6901 21.4783 35.3573C21.4655 35.0245 21.5215 34.6926 21.643 34.3824C21.7645 34.0723 21.9488 33.7907 22.1843 33.5552C22.4198 33.3196 22.7015 33.1354 23.0116 33.0139C23.3217 32.8924 23.6536 32.8363 23.9864 32.8491C24.3193 32.862 24.6458 32.9435 24.9457 33.0886C25.2455 33.2336 25.5121 33.4391 25.7287 33.6921L25.7413 33.7067L25.755 33.7204L30.5675 38.5329ZM19.5738 11.1647C24.288 8.01477 29.8304 6.3335 35.5002 6.3335C39.2647 6.3335 42.9924 7.07498 46.4704 8.51562C49.9484 9.95625 53.1086 12.0678 55.7706 14.7298C58.4325 17.3917 60.5441 20.5519 61.9847 24.0299C63.4254 27.5079 64.1668 31.2356 64.1668 35.0002C64.1668 40.6699 62.4856 46.2123 59.3356 50.9265C56.1857 55.6407 51.7086 59.315 46.4704 61.4847C41.2323 63.6544 35.4684 64.2221 29.9076 63.116C24.3468 62.0099 19.2389 59.2797 15.2298 55.2706C11.2207 51.2615 8.49044 46.1535 7.38433 40.5928C6.27822 35.032 6.84592 29.2681 9.01563 24.0299C11.1853 18.7918 14.8596 14.3146 19.5738 11.1647ZM22.2591 54.8169C26.1785 57.4357 30.7864 58.8335 35.5002 58.8335C41.8212 58.8335 47.8833 56.3225 52.3529 51.8529C56.8225 47.3833 59.3335 41.3212 59.3335 35.0002C59.3335 30.2864 57.9357 25.6784 55.3169 21.7591C52.698 17.8397 48.9758 14.7849 44.6208 12.981C40.2658 11.1771 35.4737 10.7052 30.8505 11.6248C26.2273 12.5444 21.9806 14.8143 18.6475 18.1475C15.3143 21.4806 13.0444 25.7273 12.1248 30.3505C11.2052 34.9737 11.6772 39.7658 13.481 44.1208C15.2849 48.4758 18.3397 52.198 22.2591 54.8169Z" fill="#FFC000" stroke="#FFC000"/>
</svg>
