<svg width="18" height="14" viewBox="0 0 18 14" fill="none" xmlns="http://www.w3.org/2000/svg">
<path d="M17.0325 1.36455L17.0403 1.37243L17.0485 1.37995C17.1246 1.45018 17.1853 1.53542 17.2269 1.63029C17.2685 1.72517 17.2899 1.82762 17.2899 1.9312C17.2899 2.03477 17.2685 2.13723 17.2269 2.2321C17.1853 2.32698 17.1246 2.41222 17.0485 2.48245L17.0411 2.48928L17.0339 2.49639L6.83394 12.6964L6.8325 12.6978C6.76278 12.7681 6.67982 12.8239 6.58843 12.862C6.49704 12.9001 6.39901 12.9197 6.3 12.9197C6.20099 12.9197 6.10296 12.9001 6.01157 12.862C5.92017 12.8239 5.83722 12.7681 5.7675 12.6978L5.76605 12.6964L0.966052 7.89639L0.966105 7.89634L0.959883 7.89033C0.886456 7.8194 0.82772 7.73471 0.787026 7.64108C0.746331 7.54745 0.724478 7.44672 0.722712 7.34465C0.720946 7.24257 0.739302 7.14115 0.776733 7.04617C0.814164 6.95119 0.869936 6.86451 0.940865 6.79108C1.01179 6.71766 1.09649 6.65892 1.19012 6.61823C1.28375 6.57753 1.38448 6.55568 1.48655 6.55391C1.58862 6.55215 1.69005 6.5705 1.78503 6.60793C1.87872 6.64486 1.96434 6.69963 2.03713 6.76919L5.94588 10.6904L6.29967 11.0454L6.65379 10.6908L15.9663 1.36577L15.9675 1.36455C16.0372 1.29425 16.1202 1.23846 16.2116 1.20038C16.303 1.1623 16.401 1.1427 16.5 1.1427C16.599 1.1427 16.697 1.1623 16.7884 1.20038C16.8798 1.23846 16.9628 1.29425 17.0325 1.36455Z" fill="#E26B0A" stroke="#E26B0A"/>
</svg>
