<svg width="18" height="12" viewBox="0 0 18 12" fill="none" xmlns="http://www.w3.org/2000/svg">
<path d="M17.0516 0.886646L17.0597 0.894032L17.0682 0.901053C17.1427 0.962941 17.1985 1.03499 17.2354 1.11068C17.2721 1.18615 17.29 1.26515 17.29 1.34324C17.29 1.42134 17.2721 1.50034 17.2354 1.5758C17.1985 1.6515 17.1427 1.72354 17.0682 1.78543L17.0605 1.7918L17.0531 1.79847L6.85307 10.9785L6.85156 10.9798C6.78389 11.0412 6.70058 11.0924 6.60524 11.1282C6.50986 11.164 6.40601 11.1829 6.30006 11.1829C6.19411 11.1829 6.09025 11.164 5.99488 11.1282C5.89954 11.0924 5.81622 11.0412 5.74856 10.9798L5.74704 10.9785L0.947042 6.65847L0.947091 6.65842L0.94061 6.65278C0.869032 6.59055 0.814994 6.51908 0.778773 6.44407L0.328526 6.66151L0.778773 6.44407C0.742646 6.36926 0.724246 6.29107 0.722755 6.21352C0.721264 6.13598 0.736646 6.0576 0.769629 5.98228C0.802696 5.90676 0.853545 5.83424 0.922147 5.77032C0.990855 5.70631 1.07568 5.65258 1.17302 5.6145C1.27039 5.57642 1.37678 5.55539 1.48575 5.55369C1.59471 5.55199 1.70208 5.5697 1.80127 5.60488L1.96841 5.13364L1.80127 5.60488C1.89902 5.63955 1.98532 5.68992 2.05641 5.75103L5.96499 9.27998L6.29975 9.58223L6.63479 9.28029L15.9473 0.887793L15.9486 0.886646C16.0162 0.825242 16.0995 0.774035 16.1949 0.738285C16.2903 0.702524 16.3941 0.683594 16.5001 0.683594C16.606 0.683594 16.7099 0.702524 16.8052 0.738285C16.9006 0.774036 16.9839 0.825242 17.0516 0.886646Z" fill="#4040AB" stroke="#4040AB"/>
</svg>
