<svg width="18" height="13" viewBox="0 0 18 13" fill="none" xmlns="http://www.w3.org/2000/svg">
<path d="M17.0516 1.48137L17.0597 1.48876L17.0682 1.49578C17.1427 1.55767 17.1985 1.62971 17.2354 1.70541C17.2721 1.78087 17.29 1.85987 17.29 1.93797C17.29 2.01607 17.2721 2.09506 17.2354 2.17052C17.1985 2.24622 17.1427 2.31827 17.0682 2.38016L17.0605 2.38653L17.0531 2.3932L6.85307 11.5732L6.85156 11.5746C6.78389 11.636 6.70058 11.6872 6.60524 11.7229C6.50986 11.7587 6.40601 11.7776 6.30006 11.7776C6.19411 11.7776 6.09025 11.7587 5.99488 11.7229C5.89954 11.6872 5.81622 11.636 5.74856 11.5746L5.74704 11.5732L0.947042 7.2532L0.947091 7.25314L0.94061 7.24751C0.869032 7.18528 0.814994 7.1138 0.778773 7.0388L0.328526 7.25623L0.778773 7.0388C0.742646 6.96399 0.724246 6.8858 0.722755 6.80825C0.721264 6.73071 0.736646 6.65233 0.769629 6.57701C0.802696 6.50149 0.853545 6.42896 0.922147 6.36505C0.990855 6.30103 1.07568 6.24731 1.17302 6.20923C1.27039 6.17114 1.37678 6.15011 1.48575 6.14842C1.59471 6.14672 1.70208 6.16442 1.80127 6.1996L1.96841 5.72837L1.80127 6.19961C1.89902 6.23428 1.98532 6.28464 2.05641 6.34575L5.96499 9.87471L6.29975 10.177L6.63479 9.87502L15.9473 1.48252L15.9486 1.48137C16.0162 1.41997 16.0995 1.36876 16.1949 1.33301C16.2903 1.29725 16.3941 1.27832 16.5001 1.27832C16.606 1.27832 16.7099 1.29725 16.8052 1.33301C16.9006 1.36876 16.9839 1.41997 17.0516 1.48137Z" fill="#FFC000" stroke="#FFC000"/>
</svg>
