<svg width="18" height="12" viewBox="0 0 18 12" fill="none" xmlns="http://www.w3.org/2000/svg">
<path d="M17.0586 1.18719L17.0668 1.19438L17.0753 1.20121C17.1495 1.26054 17.2036 1.32843 17.2387 1.39782C17.2736 1.46684 17.29 1.53778 17.29 1.60693C17.29 1.67608 17.2736 1.74702 17.2387 1.81604C17.2036 1.88544 17.1495 1.95332 17.0753 2.01266L17.0676 2.01885L17.0601 2.02534L6.86009 10.8653L6.85856 10.8667C6.79143 10.9253 6.7078 10.9751 6.61098 11.01C6.51415 11.045 6.4083 11.0636 6.30006 11.0636C6.19182 11.0636 6.08597 11.045 5.98914 11.01C5.89232 10.9751 5.80869 10.9253 5.74156 10.8667L5.74002 10.8653L0.940025 6.70534L0.940072 6.70528L0.933523 6.6998C0.862383 6.64024 0.810009 6.57295 0.775472 6.50408C0.741088 6.43552 0.724124 6.36506 0.722748 6.2961C0.721372 6.22717 0.735508 6.15674 0.766767 6.08799C0.798169 6.01894 0.847236 5.95092 0.915211 5.88993L0.581309 5.51777L0.915212 5.88993C0.983321 5.82883 1.06838 5.77671 1.16713 5.73951C1.26589 5.70231 1.37422 5.68163 1.48546 5.67996C1.5967 5.67829 1.70609 5.69571 1.80681 5.73011C1.90606 5.76401 1.99279 5.81296 2.06348 5.87147L5.972 9.26968L6.29976 9.55464L6.62778 9.26998L15.9403 1.18831L15.9416 1.18719C16.0087 1.12853 16.0923 1.07879 16.1891 1.04383C16.286 1.00887 16.3918 0.990234 16.5001 0.990234C16.6083 0.990234 16.7141 1.00887 16.811 1.04383C16.9078 1.07879 16.9914 1.12853 17.0586 1.18719Z" fill="#E26B0A" stroke="#E26B0A"/>
</svg>
