<svg width="15" height="12" viewBox="0 0 15 12" fill="none" xmlns="http://www.w3.org/2000/svg">
<path d="M14.4896 1.01052C14.3928 0.912882 14.2776 0.835388 14.1507 0.782504C14.0237 0.72962 13.8876 0.702393 13.7501 0.702393C13.6125 0.702393 13.4764 0.72962 13.3494 0.782504C13.2225 0.835388 13.1073 0.912882 13.0105 1.01052L5.25005 8.78135L1.98963 5.51052C1.88909 5.41339 1.7704 5.33702 1.64034 5.28577C1.51029 5.23451 1.37141 5.20938 1.23164 5.2118C1.09186 5.21422 0.953937 5.24414 0.825731 5.29986C0.697524 5.35559 0.581548 5.43601 0.484424 5.53656C0.387301 5.6371 0.310932 5.75579 0.259678 5.88585C0.208424 6.0159 0.183288 6.15478 0.185706 6.29455C0.188124 6.43433 0.218049 6.57225 0.273772 6.70046C0.329494 6.82867 0.409923 6.94464 0.510466 7.04177L4.51047 11.0418C4.6073 11.1394 4.72251 11.2169 4.84945 11.2698C4.97639 11.3227 5.11254 11.3499 5.25005 11.3499C5.38756 11.3499 5.52371 11.3227 5.65065 11.2698C5.77759 11.2169 5.8928 11.1394 5.98963 11.0418L14.4896 2.54177C14.5954 2.44422 14.6798 2.32583 14.7375 2.19406C14.7952 2.06229 14.825 1.92 14.825 1.77614C14.825 1.63228 14.7952 1.48999 14.7375 1.35822C14.6798 1.22645 14.5954 1.10806 14.4896 1.01052Z" fill="#64748B"/>
</svg>
