<svg width="36" height="36" viewBox="0 0 36 36" fill="none" xmlns="http://www.w3.org/2000/svg">
<path d="M14.8525 19.856C14.2667 19.2702 13.317 19.2702 12.7312 19.856C12.1454 20.4418 12.1454 21.3915 12.7312 21.9773L14.8525 19.856ZM16.7085 23.8333L15.6478 24.894C16.2336 25.4798 17.1834 25.4798 17.7692 24.894L16.7085 23.8333ZM23.6025 19.0607C24.1883 18.4749 24.1883 17.5251 23.6025 16.9393C23.0167 16.3536 22.067 16.3536 21.4812 16.9393L23.6025 19.0607ZM26.8752 10.7083V28.2083H29.8752V10.7083H26.8752ZM25.4585 29.625H10.8752V32.625H25.4585V29.625ZM9.4585 28.2083V10.7083H6.4585V28.2083H9.4585ZM10.8752 9.29167H13.7918V6.29167H10.8752V9.29167ZM22.5418 9.29167H25.4585V6.29167H22.5418V9.29167ZM10.8752 29.625C10.0928 29.625 9.4585 28.9907 9.4585 28.2083H6.4585C6.4585 30.6476 8.4359 32.625 10.8752 32.625V29.625ZM26.8752 28.2083C26.8752 28.9907 26.2409 29.625 25.4585 29.625V32.625C27.8978 32.625 29.8752 30.6476 29.8752 28.2083H26.8752ZM29.8752 10.7083C29.8752 8.26908 27.8978 6.29167 25.4585 6.29167V9.29167C26.2409 9.29167 26.8752 9.92593 26.8752 10.7083H29.8752ZM9.4585 10.7083C9.4585 9.92593 10.0928 9.29167 10.8752 9.29167V6.29167C8.43591 6.29167 6.4585 8.26908 6.4585 10.7083H9.4585ZM12.7312 21.9773L15.6478 24.894L17.7692 22.7727L14.8525 19.856L12.7312 21.9773ZM17.7692 24.894L23.6025 19.0607L21.4812 16.9393L15.6478 22.7727L17.7692 24.894ZM16.7085 6.375H19.6252V3.375H16.7085V6.375ZM19.6252 9.20833H16.7085V12.2083H19.6252V9.20833ZM16.7085 9.20833C15.9261 9.20833 15.2918 8.57407 15.2918 7.79167H12.2918C12.2918 10.2309 14.2692 12.2083 16.7085 12.2083V9.20833ZM21.0418 7.79167C21.0418 8.57407 20.4076 9.20833 19.6252 9.20833V12.2083C22.0644 12.2083 24.0418 10.2309 24.0418 7.79167H21.0418ZM19.6252 6.375C20.4076 6.375 21.0418 7.00926 21.0418 7.79167H24.0418C24.0418 5.35241 22.0644 3.375 19.6252 3.375V6.375ZM16.7085 3.375C14.2692 3.375 12.2918 5.35241 12.2918 7.79167H15.2918C15.2918 7.00926 15.9261 6.375 16.7085 6.375V3.375Z" fill="#00B050"/>
</svg>
