<svg width="21" height="21" viewBox="0 0 21 21" fill="none" xmlns="http://www.w3.org/2000/svg">
<path d="M9.66662 10.3291L9.917 10.1848V9.89587V5.29171C9.917 5.14805 9.97407 5.01027 10.0756 4.90869C10.1772 4.80711 10.315 4.75004 10.4587 4.75004C10.6023 4.75004 10.7401 4.80711 10.8417 4.90869C10.9433 5.01027 11.0003 5.14805 11.0003 5.29171V10.4587L10.9863 10.5428L10.983 10.5624L10.9813 10.5822C10.9797 10.601 10.9751 10.6194 10.9677 10.6367L10.9608 10.6528L10.9551 10.6694C10.9452 10.6979 10.9323 10.7252 10.9167 10.751L10.9041 10.7717L10.8936 10.7936C10.8874 10.8064 10.8805 10.8189 10.873 10.831L10.758 10.9245L10.7379 10.9407L10.7197 10.959L10.6725 11.0061L8.02462 12.5338C8.02416 12.5341 8.02369 12.5343 8.02323 12.5346C7.94102 12.5809 7.84814 12.6049 7.75378 12.6042L7.75378 12.6042L7.74683 12.6042C7.6269 12.6051 7.51008 12.5661 7.41469 12.4934C7.3193 12.4207 7.25074 12.3183 7.21976 12.2025C7.18878 12.0866 7.19713 11.9637 7.24351 11.8531C7.28988 11.7425 7.37165 11.6504 7.476 11.5913L7.47601 11.5913L7.47912 11.5895L9.66662 10.3291ZM4.94926 2.25463C6.58005 1.16498 8.49733 0.583374 10.4587 0.583374C11.7609 0.583374 13.0505 0.839876 14.2536 1.33824C15.4568 1.83659 16.55 2.56705 17.4708 3.4879C18.3917 4.40875 19.1221 5.50195 19.6205 6.7051C20.1188 7.90824 20.3753 9.19776 20.3753 10.5C20.3753 12.4614 19.7937 14.3787 18.7041 16.0094C17.6144 17.6402 16.0656 18.9113 14.2536 19.6618C12.4416 20.4124 10.4477 20.6088 8.52402 20.2262C6.60037 19.8435 4.83339 18.8991 3.44652 17.5122C2.05965 16.1253 1.11518 14.3583 0.732543 12.4347C0.349906 10.511 0.546289 8.51713 1.29686 6.7051C2.04743 4.89306 3.31847 3.34429 4.94926 2.25463ZM5.55113 17.8447C7.00376 18.8153 8.7116 19.3334 10.4587 19.3334C12.8014 19.3334 15.0482 18.4027 16.7048 16.7462C18.3613 15.0896 19.292 12.8428 19.292 10.5C19.292 8.75297 18.7739 7.04514 17.8033 5.5925C16.8327 4.13987 15.4531 3.00768 13.839 2.3391C12.225 1.67053 10.4489 1.4956 8.73537 1.83644C7.02187 2.17727 5.44792 3.01857 4.21255 4.25393C2.97719 5.48929 2.1359 7.06324 1.79506 8.77674C1.45422 10.4902 1.62915 12.2663 2.29773 13.8804C2.9663 15.4945 4.09849 16.8741 5.55113 17.8447Z" fill="#CC0000" stroke="#CC0000"/>
</svg>
