<svg width="21" height="21" viewBox="0 0 21 21" fill="none" xmlns="http://www.w3.org/2000/svg">
<path d="M11.0418 9.45837V9.95837H11.5418H13.6252C13.7688 9.95837 13.9066 10.0154 14.0082 10.117C14.1098 10.2186 14.1668 10.3564 14.1668 10.5C14.1668 10.6437 14.1098 10.7815 14.0082 10.8831C13.9066 10.9846 13.7688 11.0417 13.6252 11.0417H10.5002C10.3565 11.0417 10.2187 10.9846 10.1172 10.8831C10.0156 10.7815 9.9585 10.6437 9.9585 10.5V5.29171C9.9585 5.14805 10.0156 5.01027 10.1172 4.90869C10.2187 4.80711 10.3565 4.75004 10.5002 4.75004C10.6438 4.75004 10.7816 4.80711 10.8832 4.90869C10.9848 5.01027 11.0418 5.14805 11.0418 5.29171V9.45837ZM4.99076 2.25463C6.62155 1.16498 8.53884 0.583374 10.5002 0.583374C11.8024 0.583374 13.092 0.839876 14.2951 1.33824C15.4983 1.83659 16.5915 2.56705 17.5123 3.4879C18.4332 4.40875 19.1636 5.50195 19.662 6.7051C20.1603 7.90824 20.4168 9.19776 20.4168 10.5C20.4168 12.4614 19.8352 14.3787 18.7456 16.0094C17.6559 17.6402 16.1071 18.9113 14.2951 19.6618C12.4831 20.4124 10.4892 20.6088 8.56552 20.2262C6.64188 19.8435 4.8749 18.8991 3.48803 17.5122C2.10115 16.1253 1.15668 14.3583 0.774047 12.4347C0.39141 10.511 0.587793 8.51713 1.33836 6.7051C2.08893 4.89306 3.35998 3.34429 4.99076 2.25463ZM5.59263 17.8447C7.04526 18.8153 8.7531 19.3334 10.5002 19.3334C12.8429 19.3334 15.0897 18.4027 16.7463 16.7462C18.4028 15.0896 19.3335 12.8428 19.3335 10.5C19.3335 8.75297 18.8154 7.04514 17.8448 5.5925C16.8742 4.13987 15.4946 3.00768 13.8805 2.3391C12.2665 1.67053 10.4904 1.4956 8.77687 1.83644C7.06337 2.17727 5.48942 3.01857 4.25406 4.25393C3.01869 5.48929 2.1774 7.06324 1.83656 8.77674C1.49573 10.4902 1.67066 12.2663 2.33923 13.8804C3.00781 15.4945 4.14 16.8741 5.59263 17.8447Z" fill="#27364B" stroke="#27364B"/>
</svg>
