<svg width="18" height="18" viewBox="0 0 18 18" fill="none" xmlns="http://www.w3.org/2000/svg">
<path d="M9.16683 0.666626C7.51866 0.666626 5.90749 1.15537 4.53708 2.07105C3.16667 2.98672 2.09857 4.28821 1.46784 5.81093C0.837107 7.33365 0.672079 9.0092 0.993623 10.6257C1.31517 12.2422 2.10884 13.7271 3.27428 14.8925C4.43971 16.058 5.92457 16.8516 7.54108 17.1732C9.15759 17.4947 10.8331 17.3297 12.3559 16.699C13.8786 16.0682 15.1801 15.0001 16.0957 13.6297C17.0114 12.2593 17.5002 10.6481 17.5002 8.99996C17.5002 7.90561 17.2846 6.82198 16.8658 5.81093C16.447 4.79988 15.8332 3.88122 15.0594 3.1074C14.2856 2.33358 13.3669 1.71975 12.3559 1.30096C11.3448 0.882174 10.2612 0.666626 9.16683 0.666626ZM9.16683 15.6666C7.84829 15.6666 6.55936 15.2756 5.46303 14.5431C4.3667 13.8105 3.51222 12.7694 3.00764 11.5512C2.50305 10.333 2.37103 8.99256 2.62826 7.69936C2.8855 6.40615 3.52044 5.21826 4.45279 4.28591C5.38514 3.35356 6.57302 2.71863 7.86623 2.46139C9.15944 2.20416 10.4999 2.33618 11.7181 2.84076C12.9362 3.34535 13.9774 4.19983 14.71 5.29616C15.4425 6.39249 15.8335 7.68142 15.8335 8.99996C15.8335 10.7681 15.1311 12.4638 13.8809 13.714C12.6306 14.9642 10.9349 15.6666 9.16683 15.6666ZM9.16683 3.99996C8.94582 3.99996 8.73386 4.08776 8.57758 4.24404C8.4213 4.40032 8.3335 4.61228 8.3335 4.83329V8.51663L6.5835 9.52496C6.42296 9.61593 6.29716 9.75761 6.22582 9.92778C6.15447 10.0979 6.14162 10.287 6.18929 10.4652C6.23695 10.6435 6.34243 10.8009 6.48918 10.9127C6.63593 11.0246 6.81565 11.0846 7.00017 11.0833C7.14615 11.0843 7.28983 11.0469 7.41683 10.975L9.5835 9.72496L9.6585 9.64996L9.79183 9.54163C9.82442 9.50037 9.85236 9.45566 9.87517 9.40829C9.90233 9.36355 9.92467 9.31607 9.94183 9.26663C9.9645 9.21364 9.97857 9.15738 9.9835 9.09996L10.0002 8.99996V4.83329C10.0002 4.61228 9.91237 4.40032 9.75609 4.24404C9.59981 4.08776 9.38785 3.99996 9.16683 3.99996Z" fill="#00008F"/>
</svg>
