<svg width="25" height="25" viewBox="0 0 25 25" fill="none" xmlns="http://www.w3.org/2000/svg">
<path d="M18.75 8.33333H19.7917C20.8967 8.33333 21.9565 8.77231 22.7379 9.55372C23.5193 10.3351 23.9583 11.3949 23.9583 12.5C23.9583 13.6051 23.5193 14.6649 22.7379 15.4463C21.9565 16.2277 20.8967 16.6667 19.7917 16.6667H18.75" stroke="white" stroke-width="2" stroke-linecap="round" stroke-linejoin="round"/>
<path d="M2.08333 8.33333H18.75V17.7083C18.75 18.8134 18.311 19.8732 17.5296 20.6546C16.7482 21.436 15.6884 21.875 14.5833 21.875H6.25C5.14493 21.875 4.08512 21.436 3.30372 20.6546C2.52232 19.8732 2.08333 18.8134 2.08333 17.7083V8.33333Z" stroke="white" stroke-width="2" stroke-linecap="round" stroke-linejoin="round"/>
<path d="M14.5833 1.04167V4.16667" stroke="white" stroke-width="2" stroke-linecap="round" stroke-linejoin="round"/>
<path d="M10.4167 1.04167V4.16667" stroke="white" stroke-width="2" stroke-linecap="round" stroke-linejoin="round"/>
<path d="M6.25 1.04167V4.16667" stroke="white" stroke-width="2" stroke-linecap="round" stroke-linejoin="round"/>
</svg>
