<svg width="27" height="27" viewBox="0 0 27 27" fill="none" xmlns="http://www.w3.org/2000/svg">
<path d="M7.875 7.875C7.6525 7.875 7.43499 7.94098 7.24998 8.0646C7.06498 8.18821 6.92078 8.36391 6.83564 8.56948C6.75049 8.77505 6.72821 9.00125 6.77162 9.21948C6.81502 9.43771 6.92217 9.63816 7.0795 9.7955C7.23684 9.95283 7.43729 10.06 7.65552 10.1034C7.87375 10.1468 8.09995 10.1245 8.30552 10.0394C8.51109 9.95422 8.68679 9.81002 8.8104 9.62502C8.93402 9.44001 9 9.2225 9 9C9 8.70163 8.88147 8.41548 8.6705 8.2045C8.45952 7.99353 8.17337 7.875 7.875 7.875ZM7.875 12.375C7.6525 12.375 7.43499 12.441 7.24998 12.5646C7.06498 12.6882 6.92078 12.8639 6.83564 13.0695C6.75049 13.275 6.72821 13.5012 6.77162 13.7195C6.81502 13.9377 6.92217 14.1382 7.0795 14.2955C7.23684 14.4528 7.43729 14.56 7.65552 14.6034C7.87375 14.6468 8.09995 14.6245 8.30552 14.5394C8.51109 14.4542 8.68679 14.31 8.8104 14.125C8.93402 13.94 9 13.7225 9 13.5C9 13.2016 8.88147 12.9155 8.6705 12.7045C8.45952 12.4935 8.17337 12.375 7.875 12.375ZM19.125 12.375H12.375C12.0766 12.375 11.7905 12.4935 11.5795 12.7045C11.3685 12.9155 11.25 13.2016 11.25 13.5C11.25 13.7984 11.3685 14.0845 11.5795 14.2955C11.7905 14.5065 12.0766 14.625 12.375 14.625H19.125C19.4234 14.625 19.7095 14.5065 19.9205 14.2955C20.1315 14.0845 20.25 13.7984 20.25 13.5C20.25 13.2016 20.1315 12.9155 19.9205 12.7045C19.7095 12.4935 19.4234 12.375 19.125 12.375ZM19.125 7.875H12.375C12.0766 7.875 11.7905 7.99353 11.5795 8.2045C11.3685 8.41548 11.25 8.70163 11.25 9C11.25 9.29837 11.3685 9.58452 11.5795 9.7955C11.7905 10.0065 12.0766 10.125 12.375 10.125H19.125C19.4234 10.125 19.7095 10.0065 19.9205 9.7955C20.1315 9.58452 20.25 9.29837 20.25 9C20.25 8.70163 20.1315 8.41548 19.9205 8.2045C19.7095 7.99353 19.4234 7.875 19.125 7.875ZM21.375 2.25H5.625C4.72989 2.25 3.87145 2.60558 3.23851 3.23851C2.60558 3.87145 2.25 4.72989 2.25 5.625V16.875C2.25 17.7701 2.60558 18.6286 3.23851 19.2615C3.87145 19.8944 4.72989 20.25 5.625 20.25H18.6637L22.8263 24.4237C22.9314 24.528 23.056 24.6105 23.1931 24.6665C23.3302 24.7225 23.4769 24.7509 23.625 24.75C23.7726 24.7538 23.919 24.723 24.0525 24.66C24.2579 24.5756 24.4338 24.4323 24.5579 24.2481C24.6821 24.0639 24.7489 23.8471 24.75 23.625V5.625C24.75 4.72989 24.3944 3.87145 23.7615 3.23851C23.1286 2.60558 22.2701 2.25 21.375 2.25ZM22.5 20.9137L19.9237 18.3263C19.8186 18.222 19.694 18.1395 19.5569 18.0835C19.4198 18.0275 19.2731 17.9991 19.125 18H5.625C5.32663 18 5.04048 17.8815 4.8295 17.6705C4.61853 17.4595 4.5 17.1734 4.5 16.875V5.625C4.5 5.32663 4.61853 5.04048 4.8295 4.8295C5.04048 4.61853 5.32663 4.5 5.625 4.5H21.375C21.6734 4.5 21.9595 4.61853 22.1705 4.8295C22.3815 5.04048 22.5 5.32663 22.5 5.625V20.9137Z" fill="#A832A2"/>
</svg>
