<svg width="19" height="19" viewBox="0 0 19 19" fill="none" xmlns="http://www.w3.org/2000/svg">
<path d="M5.125 0.75C2.5 0.75 0.75 3.375 0.75 6C0.75 7.84625 1.625 10.375 2.5 11.25C3.375 12.125 4.25 18.25 6 18.25C9.9725 18.25 7.75 12.125 9.5 12.125C11.25 12.125 9.0275 18.25 13 18.25C14.75 18.25 15.625 12.125 16.5 11.25C17.375 10.375 18.25 7.84625 18.25 6C18.25 3.375 16.5 0.75 13.875 0.75C11.25 0.75 11.25 1.625 9.5 1.625C7.75 1.625 7.75 0.75 5.125 0.75ZM5.125 2.5C6.875 2.5 7.75 3.375 9.5 3.375C11.25 3.375 12.125 2.5 13.875 2.5C15.3362 2.5 16.5 4.25 16.5 6C16.5 7.53125 15.7475 9.59625 14.9162 10.4275C14.1637 11.18 13.0525 16.4475 12.5625 16.4475C12.3787 16.4475 12.125 15.52 12.125 14.3912C12.125 12.6062 11.6262 10.375 9.5 10.375C7.37375 10.375 6.875 12.6062 6.875 14.3912C6.875 15.52 6.62125 16.4475 6.4375 16.4475C5.9475 16.4475 4.83625 11.18 4.08375 10.4275C3.2525 9.59625 2.5 7.53125 2.5 6C2.5 4.25 3.66375 2.5 5.125 2.5Z" fill="#64748B"/>
</svg>
