<svg width="23" height="25" viewBox="0 0 23 25" fill="none" xmlns="http://www.w3.org/2000/svg">
<path d="M0.5 11.879C0.5 10.6715 0.904186 9.46841 1.5978 8.57662C2.2872 7.69025 3.24462 7.12903 4.375 7.12903C5.61488 7.12903 6.20813 7.33205 6.70493 7.53077C6.75827 7.5521 6.81147 7.57386 6.86497 7.59575C7.35097 7.79456 7.86301 8.00403 8.75 8.00403C9.63699 8.00403 10.149 7.79456 10.635 7.59575C10.6885 7.57386 10.7417 7.5521 10.7951 7.53077C11.2919 7.33205 11.8851 7.12903 13.125 7.12903C14.2554 7.12903 15.2128 7.69025 15.9022 8.57662C16.5958 9.46841 17 10.6715 17 11.879C17 12.7336 16.7953 13.7721 16.4794 14.7084C16.1582 15.6601 15.7506 16.4213 15.3964 16.7755C15.217 16.9549 15.0772 17.2204 14.9629 17.4788C14.8422 17.7518 14.7235 18.0805 14.6057 18.4338C14.4926 18.7733 14.3766 19.1468 14.2578 19.529L14.242 19.5801C14.1171 19.9821 13.9886 20.3944 13.8538 20.799C13.5816 21.6157 13.294 22.3667 12.9799 22.907C12.8229 23.177 12.6737 23.3687 12.5375 23.4881C12.4047 23.6043 12.3121 23.629 12.25 23.629C11.4129 23.629 10.9697 23.3209 10.6911 22.8973C10.3839 22.4302 10.2425 21.7691 10.1639 21.0147C10.1326 20.7151 10.1124 20.4169 10.0924 20.1207C10.0876 20.0494 10.0828 19.9782 10.0778 19.9072C10.0528 19.5494 10.024 19.1909 9.96914 18.8754C9.91589 18.5691 9.82908 18.2432 9.65269 17.9851C9.4542 17.6947 9.14946 17.504 8.75 17.504C8.35054 17.504 8.0458 17.6947 7.84731 17.9851C7.67092 18.2432 7.58411 18.5691 7.53086 18.8754C7.47604 19.1909 7.44716 19.5494 7.42218 19.9072C7.41722 19.9783 7.41241 20.0494 7.40758 20.1208C7.38755 20.4169 7.36737 20.7151 7.33613 21.0147C7.25746 21.7691 7.11607 22.4302 6.80892 22.8973C6.53032 23.3209 6.08711 23.629 5.25 23.629C5.18795 23.629 5.09527 23.6043 4.96254 23.4881C4.82629 23.3687 4.67713 23.177 4.52014 22.907C4.20599 22.3667 3.91844 21.6157 3.64622 20.799C3.51135 20.3944 3.3829 19.9821 3.25801 19.5801L3.2422 19.5292C3.12346 19.1469 3.00743 18.7733 2.89426 18.4338C2.77649 18.0805 2.65782 17.7518 2.53712 17.4788C2.42284 17.2204 2.28296 16.9549 2.10355 16.7755C1.74937 16.4213 1.3418 15.6601 1.02063 14.7084C0.704658 13.7721 0.5 12.7336 0.5 11.879ZM8.75 8.75403C7.96419 8.75403 7.37666 8.56087 6.72061 8.34219L6.70443 8.33679C6.05225 8.11938 5.33128 7.87903 4.375 7.87903C3.43256 7.87903 2.64205 8.44166 2.10908 9.18018C1.57347 9.92237 1.25 10.8999 1.25 11.879C1.25 12.7168 1.45367 13.6741 1.75969 14.5246C2.0625 15.3661 2.48939 16.1693 2.9802 16.6601C3.01042 16.6903 3.08017 16.7888 3.1798 16.997C3.27311 17.1921 3.37381 17.4424 3.48008 17.7352C3.69263 18.3208 3.91364 19.0371 4.13108 19.7454L4.15383 19.8196C4.36096 20.4944 4.5655 21.1609 4.74923 21.6634C4.84359 21.9215 4.94015 22.1581 5.03682 22.3367C5.08404 22.424 5.14388 22.5213 5.21861 22.6035C5.27694 22.6677 5.43642 22.8265 5.6875 22.8265C5.9248 22.8265 6.07441 22.6822 6.13262 22.6168C6.20164 22.5392 6.2505 22.4512 6.2851 22.3783C6.35636 22.2281 6.41505 22.0383 6.46225 21.8345C6.55808 21.4209 6.625 20.8687 6.625 20.2703C6.625 19.4093 6.74759 18.4959 7.08737 17.8164C7.25427 17.4826 7.46555 17.2212 7.72558 17.0429C7.98145 16.8675 8.311 16.754 8.75 16.754C9.189 16.754 9.51855 16.8675 9.77442 17.0429C10.0345 17.2212 10.2457 17.4826 10.4126 17.8164C10.7524 18.4959 10.875 19.4093 10.875 20.2703C10.875 20.8687 10.9419 21.4209 11.0377 21.8345C11.0849 22.0383 11.1436 22.2281 11.2149 22.3783C11.2495 22.4512 11.2984 22.5392 11.3674 22.6168C11.4256 22.6822 11.5752 22.8265 11.8125 22.8265C12.0636 22.8265 12.2231 22.6677 12.2814 22.6035C12.3561 22.5213 12.416 22.424 12.4632 22.3367C12.5598 22.1581 12.6564 21.9215 12.7508 21.6634C12.9345 21.1608 13.1391 20.4944 13.3462 19.8195L13.3689 19.7454C13.5864 19.0371 13.8074 18.3208 14.0199 17.7352C14.1262 17.4424 14.2269 17.1921 14.3202 16.997C14.4198 16.7888 14.4896 16.6903 14.5198 16.6601C15.0106 16.1693 15.4375 15.3661 15.7403 14.5246C16.0463 13.6741 16.25 12.7168 16.25 11.879C16.25 10.8999 15.9265 9.92237 15.3909 9.18018C14.8579 8.44166 14.0674 7.87903 13.125 7.87903C12.1687 7.87903 11.4477 8.11938 10.7956 8.33679L10.7794 8.34219C10.1233 8.56087 9.53581 8.75403 8.75 8.75403Z" fill="#64748B" stroke="#64748B"/>
<line x1="16.134" y1="6.249" x2="18.4603" y2="2.995" stroke="#64748B" stroke-linecap="round"/>
<line x1="13.887" y1="5.21632" x2="14.5802" y2="1.27685" stroke="#64748B" stroke-linecap="round"/>
<line x1="18.1586" y1="7.96349" x2="21.5493" y2="5.84145" stroke="#64748B" stroke-linecap="round"/>
</svg>
