<svg width="16" height="18" viewBox="0 0 16 18" fill="none" xmlns="http://www.w3.org/2000/svg">
<path d="M7.58334 15.6667H2.58334C2.36232 15.6667 2.15036 15.579 1.99408 15.4227C1.8378 15.2664 1.75 15.0544 1.75 14.8334V3.16675C1.75 2.94573 1.8378 2.73377 1.99408 2.57749C2.15036 2.42121 2.36232 2.33341 2.58334 2.33341H6.75V4.83342C6.75 5.49646 7.01339 6.13234 7.48224 6.60118C7.95108 7.07002 8.58696 7.33342 9.25 7.33342H11.75V11.5001C11.75 11.7211 11.8378 11.9331 11.9941 12.0893C12.1504 12.2456 12.3623 12.3334 12.5833 12.3334C12.8043 12.3334 13.0163 12.2456 13.1726 12.0893C13.3289 11.9331 13.4167 11.7211 13.4167 11.5001V6.50008C13.4167 6.50008 13.4167 6.50008 13.4167 6.45008C13.408 6.37353 13.3912 6.29811 13.3667 6.22508V6.15008C13.3266 6.0644 13.2732 5.98564 13.2083 5.91675L8.20834 0.916748C8.13945 0.851928 8.06069 0.798482 7.975 0.758415C7.94743 0.753589 7.91924 0.753589 7.89167 0.758415C7.81064 0.715084 7.72356 0.684183 7.63334 0.666748H2.58334C1.92029 0.666748 1.28441 0.93014 0.815569 1.39898C0.346728 1.86782 0.0833359 2.50371 0.0833359 3.16675V14.8334C0.0833359 15.4965 0.346728 16.1323 0.815569 16.6012C1.28441 17.07 1.92029 17.3334 2.58334 17.3334H7.58334C7.80435 17.3334 8.01631 17.2456 8.17259 17.0893C8.32887 16.9331 8.41667 16.7211 8.41667 16.5001C8.41667 16.2791 8.32887 16.0671 8.17259 15.9108C8.01631 15.7545 7.80435 15.6667 7.58334 15.6667ZM8.41667 3.50841L10.575 5.66675H9.25C9.02899 5.66675 8.81703 5.57895 8.66075 5.42267C8.50447 5.26639 8.41667 5.05443 8.41667 4.83342V3.50841ZM4.25 10.6667H9.25C9.47102 10.6667 9.68298 10.579 9.83926 10.4227C9.99554 10.2664 10.0833 10.0544 10.0833 9.83342C10.0833 9.6124 9.99554 9.40044 9.83926 9.24416C9.68298 9.08788 9.47102 9.00008 9.25 9.00008H4.25C4.02899 9.00008 3.81703 9.08788 3.66075 9.24416C3.50447 9.40044 3.41667 9.6124 3.41667 9.83342C3.41667 10.0544 3.50447 10.2664 3.66075 10.4227C3.81703 10.579 4.02899 10.6667 4.25 10.6667ZM7.58334 12.3334H4.25C4.02899 12.3334 3.81703 12.4212 3.66075 12.5775C3.50447 12.7338 3.41667 12.9457 3.41667 13.1667C3.41667 13.3878 3.50447 13.5997 3.66075 13.756C3.81703 13.9123 4.02899 14.0001 4.25 14.0001H7.58334C7.80435 14.0001 8.01631 13.9123 8.17259 13.756C8.32887 13.5997 8.41667 13.3878 8.41667 13.1667C8.41667 12.9457 8.32887 12.7338 8.17259 12.5775C8.01631 12.4212 7.80435 12.3334 7.58334 12.3334ZM4.25 7.33342H5.08334C5.30435 7.33342 5.51631 7.24562 5.67259 7.08934C5.82887 6.93306 5.91667 6.7211 5.91667 6.50008C5.91667 6.27907 5.82887 6.06711 5.67259 5.91083C5.51631 5.75455 5.30435 5.66675 5.08334 5.66675H4.25C4.02899 5.66675 3.81703 5.75455 3.66075 5.91083C3.50447 6.06711 3.41667 6.27907 3.41667 6.50008C3.41667 6.7211 3.50447 6.93306 3.66075 7.08934C3.81703 7.24562 4.02899 7.33342 4.25 7.33342ZM15.675 12.5751C15.5975 12.497 15.5054 12.435 15.4038 12.3927C15.3023 12.3504 15.1933 12.3286 15.0833 12.3286C14.9733 12.3286 14.8644 12.3504 14.7629 12.3927C14.6613 12.435 14.5691 12.497 14.4917 12.5751L11.75 15.3251L10.675 14.2417C10.5973 14.1641 10.5051 14.1024 10.4035 14.0604C10.302 14.0183 10.1932 13.9967 10.0833 13.9967C9.97345 13.9967 9.86465 14.0183 9.76313 14.0604C9.66161 14.1024 9.56937 14.1641 9.49167 14.2417C9.41397 14.3194 9.35234 14.4117 9.31029 14.5132C9.26824 14.6147 9.24659 14.7235 9.24659 14.8334C9.24659 14.9433 9.26824 15.0521 9.31029 15.1536C9.35234 15.2551 9.41397 15.3474 9.49167 15.4251L11.1583 17.0917C11.2358 17.1699 11.328 17.2319 11.4295 17.2742C11.5311 17.3165 11.64 17.3382 11.75 17.3382C11.86 17.3382 11.9689 17.3165 12.0705 17.2742C12.172 17.2319 12.2642 17.1699 12.3417 17.0917L15.675 13.7584C15.7531 13.6809 15.8151 13.5888 15.8574 13.4872C15.8997 13.3857 15.9215 13.2768 15.9215 13.1667C15.9215 13.0567 15.8997 12.9478 15.8574 12.8463C15.8151 12.7447 15.7531 12.6526 15.675 12.5751Z" fill="#64748B"/>
</svg>
