<svg width="19" height="23" viewBox="0 0 19 23" fill="none" xmlns="http://www.w3.org/2000/svg">
<path d="M10.535 16.6943C10.5104 16.6226 10.4763 16.5545 10.4338 16.4918C10.3922 16.4329 10.3471 16.3765 10.2987 16.3231C10.1405 16.167 9.93965 16.0612 9.72142 16.0192C9.50318 15.9771 9.27737 16.0007 9.0725 16.0868C8.9344 16.1404 8.80824 16.2207 8.70125 16.3231C8.65287 16.3765 8.60779 16.4329 8.56625 16.4918C8.52367 16.5545 8.48962 16.6226 8.465 16.6943C8.43256 16.7581 8.40981 16.8263 8.3975 16.8968C8.3925 16.9717 8.3925 17.0469 8.3975 17.1218C8.3937 17.2694 8.42452 17.4158 8.4875 17.5493C8.54447 17.6857 8.62438 17.8112 8.72375 17.9206C8.93051 18.1257 9.20877 18.2427 9.5 18.2468C9.64757 18.2506 9.79399 18.2198 9.9275 18.1568C10.0671 18.1063 10.1939 18.0257 10.2989 17.9207C10.4039 17.8157 10.4845 17.6889 10.535 17.5493C10.598 17.4158 10.6288 17.2694 10.625 17.1218C10.63 17.0469 10.63 16.9717 10.625 16.8968C10.6056 16.8251 10.5753 16.7568 10.535 16.6943ZM18.5 8.05433C18.4883 7.95098 18.4657 7.84916 18.4325 7.75058V7.64933C18.3784 7.53365 18.3063 7.42732 18.2188 7.33433L11.4688 0.584326C11.3758 0.496819 11.2694 0.424667 11.1538 0.370576H11.0525C10.9382 0.305035 10.812 0.262963 10.6813 0.246826H3.875C2.97989 0.246826 2.12145 0.602406 1.48851 1.23534C0.855579 1.86828 0.5 2.72672 0.5 3.62183V19.3718C0.5 20.2669 0.855579 21.1254 1.48851 21.7583C2.12145 22.3912 2.97989 22.7468 3.875 22.7468H15.125C16.0201 22.7468 16.8786 22.3912 17.5115 21.7583C18.1444 21.1254 18.5 20.2669 18.5 19.3718V8.12183C18.5 8.12183 18.5 8.12183 18.5 8.05433ZM11.75 4.08308L14.6637 6.99683H12.875C12.5766 6.99683 12.2905 6.8783 12.0795 6.66732C11.8685 6.45634 11.75 6.17019 11.75 5.87183V4.08308ZM16.25 19.3718C16.25 19.6702 16.1315 19.9563 15.9205 20.1673C15.7095 20.3783 15.4234 20.4968 15.125 20.4968H3.875C3.57663 20.4968 3.29048 20.3783 3.0795 20.1673C2.86853 19.9563 2.75 19.6702 2.75 19.3718V3.62183C2.75 3.32346 2.86853 3.03731 3.0795 2.82633C3.29048 2.61535 3.57663 2.49683 3.875 2.49683H9.5V5.87183C9.5 6.76693 9.85558 7.62538 10.4885 8.25831C11.1214 8.89125 11.9799 9.24683 12.875 9.24683H16.25V19.3718ZM9.5 10.3718C9.20163 10.3718 8.91548 10.4904 8.7045 10.7013C8.49353 10.9123 8.375 11.1985 8.375 11.4968V13.7468C8.375 14.0452 8.49353 14.3313 8.7045 14.5423C8.91548 14.7533 9.20163 14.8718 9.5 14.8718C9.79837 14.8718 10.0845 14.7533 10.2955 14.5423C10.5065 14.3313 10.625 14.0452 10.625 13.7468V11.4968C10.625 11.1985 10.5065 10.9123 10.2955 10.7013C10.0845 10.4904 9.79837 10.3718 9.5 10.3718Z" fill="white"/>
</svg>
