<svg width="14" height="18" viewBox="0 0 14 18" fill="none" xmlns="http://www.w3.org/2000/svg">
<path d="M8.11123 1.27701L13.0983 6.26408C13.1047 6.27108 13.1108 6.2783 13.1166 6.28573V6.30715L13.1427 6.38471C13.1535 6.41671 13.1615 6.44956 13.1666 6.48289V6.48294V6.48309V6.48323V6.48338V6.48352V6.48366V6.4838V6.48394V6.48408V6.48422V6.48435V6.48449V6.48463V6.48476V6.48489V6.48503V6.48516V6.48529V6.48542V6.48555V6.48568V6.48581V6.48594V6.48607V6.48619V6.48632V6.48645V6.48657V6.48669V6.48682V6.48694V6.48706V6.48718V6.4873V6.48742V6.48754V6.48766V6.48777V6.48789V6.488V6.48812V6.48823V6.48835V6.48846V6.48857V6.48868V6.48879V6.4889V6.48901V6.48912V6.48923V6.48933V6.48944V6.48955V6.48965V6.48976V6.48986V6.48996V6.49006V6.49017V6.49027V6.49037V6.49047V6.49057V6.49066V6.49076V6.49086V6.49096V6.49105V6.49115V6.49124V6.49133V6.49143V6.49152V6.49161V6.4917V6.49179V6.49188V6.49197V6.49206V6.49215V6.49224V6.49232V6.49241V6.49249V6.49258V6.49266V6.49275V6.49283V6.49291V6.49299V6.49307V6.49316V6.49324V6.49331V6.49339V6.49347V6.49355V6.49363V6.4937V6.49378V6.49385V6.49393V6.494V6.49408V6.49415V6.49422V6.49429V6.49436V6.49443V6.4945V6.49457V6.49464V6.49471V6.49478V6.49485V6.49491V6.49498V6.49505V6.49511V6.49518V6.49524V6.4953V6.49537V6.49543V6.49549V6.49555V6.49561V6.49567V6.49573V6.49579V6.49585V6.49591V6.49597V6.49603V6.49608V6.49614V6.49619V6.49625V6.4963V6.49636V6.49641V6.49647V6.49652V6.49657V6.49662V6.49667V6.49673V6.49678V6.49683V6.49688V6.49692V6.49697V6.49702V6.49707V6.49712V6.49716V6.49721V6.49726V6.4973V6.49735V6.49739V6.49743V6.49748V6.49752V6.49756V6.49761V6.49765V6.49769V6.49773V6.49777V6.49781V6.49785V6.49789V6.49793V6.49797V6.498V6.49804V6.49808V6.49812V6.49815V6.49819V6.49822V6.49826V6.49829V6.49833V6.49836V6.4984V6.49843V6.49846V6.4985V6.49853V6.49856V6.49859V6.49862V6.49865V6.49868V6.49871V6.49874V6.49877V6.4988V6.49883V6.49886V6.49888V6.49891V6.49894V6.49897V6.49899V6.49902V6.49904V6.49907V6.49909V6.49912V6.49914V6.49917V6.49919V6.49921V6.49924V6.49926V6.49928V6.4993V6.49933V6.49935V6.49937V6.49939V6.49941V6.49943V6.49945V6.49947V6.49949V6.49951V6.49953V6.49954V6.49956V6.49958V6.4996V6.49962V6.49963V6.49965V6.49967V6.49968V6.4997V6.49971V6.49973V6.49974V6.49976V6.49977V6.49979V6.4998V6.49982V6.49983V6.49984V6.49986V6.49987V6.49988V6.49989V6.49991V6.49992V6.49993V6.49994V6.49995V6.49996V6.49998V6.49999V6.5V6.50001V6.50002V6.50003V6.50004V6.50004V6.50005V6.50006V6.50007V6.50008V6.50009V6.5001V6.5001V6.50011V6.50012V6.50013V6.50014V6.50016V6.50017V6.50018V6.50019V6.5002V6.50021V6.50022V6.50023V6.50024V6.50025V6.50026V6.50027V6.50028V6.50029V6.5003V6.5003V6.50031V6.50033V14.8337C13.1666 15.3641 12.9559 15.8728 12.5809 16.2479C12.2058 16.6229 11.6971 16.8337 11.1666 16.8337H2.83331C2.30288 16.8337 1.79417 16.6229 1.4191 16.2479C1.04403 15.8728 0.833313 15.3641 0.833313 14.8337V3.16699C0.833313 2.63656 1.04403 2.12785 1.4191 1.75278C1.79417 1.37771 2.30288 1.16699 2.83331 1.16699H7.83562C7.85861 1.17208 7.88073 1.18064 7.90123 1.19239L8.01678 1.25866H8.08958C8.09701 1.26451 8.10423 1.27063 8.11123 1.27701ZM9.0202 3.15511L8.16665 2.30155V3.50866V4.83366C8.16665 5.18728 8.30712 5.52642 8.55717 5.77647C8.80722 6.02652 9.14636 6.16699 9.49998 6.16699H10.825H12.0321L11.1785 5.31344L9.0202 3.15511ZM7.49998 2.33366V1.83366H6.99998H2.83331C2.47969 1.83366 2.14055 1.97414 1.8905 2.22418C1.64046 2.47423 1.49998 2.81337 1.49998 3.16699V14.8337C1.49998 15.1873 1.64046 15.5264 1.8905 15.7765C2.14055 16.0265 2.47969 16.167 2.83331 16.167H11.1666C11.5203 16.167 11.8594 16.0265 12.1095 15.7765C12.3595 15.5264 12.5 15.1873 12.5 14.8337V7.33366V6.83366H12H9.49998C8.96955 6.83366 8.46084 6.62295 8.08577 6.24787C7.71069 5.8728 7.49998 5.36409 7.49998 4.83366V2.33366Z" fill="black" stroke="#00008F"/>
</svg>
