<svg width="4" height="16" viewBox="0 0 4 16" fill="none" xmlns="http://www.w3.org/2000/svg">
<path d="M1.98918 2.16659L1.98918 2.17492M1.98918 7.99992L1.98918 8.00825M1.98918 13.8333L1.98918 13.8416M1.98918 2.99992C1.52894 2.99992 1.15584 2.62682 1.15584 2.16659C1.15584 1.70635 1.52894 1.33325 1.98918 1.33325C2.44941 1.33325 2.82251 1.70635 2.82251 2.16659C2.82251 2.62682 2.44941 2.99992 1.98918 2.99992ZM1.98918 8.83325C1.52894 8.83325 1.15584 8.46016 1.15584 7.99992C1.15584 7.53968 1.52894 7.16659 1.98918 7.16659C2.44941 7.16659 2.82251 7.53968 2.82251 7.99992C2.82251 8.46016 2.44941 8.83325 1.98918 8.83325ZM1.98918 14.6666C1.52894 14.6666 1.15584 14.2935 1.15584 13.8333C1.15584 13.373 1.52894 12.9999 1.98918 12.9999C2.44941 12.9999 2.82251 13.373 2.82251 13.8333C2.82251 14.2935 2.44941 14.6666 1.98918 14.6666Z" stroke="#27364B" stroke-width="2" stroke-linecap="round" stroke-linejoin="round"/>
</svg>
