<svg width="15" height="15" viewBox="0 0 15 15" fill="none" xmlns="http://www.w3.org/2000/svg">
<path d="M7.5 3.125L7.5 3.13125M7.5 7.5L7.5 7.50625M7.5 11.875L7.5 11.8813M7.5 3.75C7.15482 3.75 6.875 3.47018 6.875 3.125C6.875 2.77982 7.15482 2.5 7.5 2.5C7.84518 2.5 8.125 2.77982 8.125 3.125C8.125 3.47018 7.84518 3.75 7.5 3.75ZM7.5 8.125C7.15482 8.125 6.875 7.84518 6.875 7.5C6.875 7.15482 7.15482 6.875 7.5 6.875C7.84518 6.875 8.125 7.15482 8.125 7.5C8.125 7.84518 7.84518 8.125 7.5 8.125ZM7.5 12.5C7.15482 12.5 6.875 12.2202 6.875 11.875C6.875 11.5298 7.15482 11.25 7.5 11.25C7.84518 11.25 8.125 11.5298 8.125 11.875C8.125 12.2202 7.84518 12.5 7.5 12.5Z" stroke="#27364B" stroke-width="2" stroke-linecap="round" stroke-linejoin="round"/>
</svg>
