<svg width="21" height="20" viewBox="0 0 21 20" fill="none" xmlns="http://www.w3.org/2000/svg">
<g clip-path="url(#clip0_3226_81)">
<path d="M7.16699 14.1665L10.5003 17.4998L13.8337 14.1665" stroke="white" stroke-width="2" stroke-linecap="round" stroke-linejoin="round"/>
<path d="M10.5 10V17.5" stroke="white" stroke-width="2" stroke-linecap="round" stroke-linejoin="round"/>
<path d="M17.9003 15.0749C18.6248 14.5655 19.1681 13.8384 19.4514 12.9992C19.7347 12.1601 19.7432 11.2525 19.4756 10.4081C19.2081 9.5638 18.6785 8.82669 17.9637 8.30375C17.2489 7.7808 16.386 7.49925 15.5003 7.49994H14.4503C14.1997 6.52317 13.7307 5.61598 13.0787 4.84668C12.4268 4.07737 11.6088 3.46599 10.6863 3.05857C9.76387 2.65115 8.76101 2.4583 7.75325 2.49454C6.74548 2.53078 5.75907 2.79517 4.86827 3.2678C3.97747 3.74043 3.2055 4.40898 2.61047 5.22314C2.01544 6.03729 1.61285 6.97582 1.43303 7.96807C1.2532 8.96032 1.30082 9.98044 1.57229 10.9516C1.84377 11.9228 2.33203 12.8198 3.00031 13.5749" stroke="white" stroke-width="2" stroke-linecap="round" stroke-linejoin="round"/>
</g>
<defs>
<clipPath id="clip0_3226_81">
<rect width="20" height="20" fill="white" transform="translate(0.5)"/>
</clipPath>
</defs>
</svg>
