<svg width="20" height="20" viewBox="0 0 20 20" fill="none" xmlns="http://www.w3.org/2000/svg">
<g clip-path="url(#clip0_979_31354)">
<path d="M6.6665 14.1667L9.99984 17.5L13.3332 14.1667" stroke="#00008F" stroke-width="2" stroke-linecap="round" stroke-linejoin="round"/>
<path d="M10 10V17.5" stroke="#00008F" stroke-width="2" stroke-linecap="round" stroke-linejoin="round"/>
<path d="M17.3998 15.075C18.1243 14.5655 18.6676 13.8385 18.9509 12.9993C19.2342 12.1601 19.2427 11.2525 18.9752 10.4082C18.7076 9.56386 18.178 8.82674 17.4632 8.3038C16.7484 7.78086 15.8855 7.49931 14.9998 7.5H13.9498C13.6992 6.52323 13.2302 5.61604 12.5783 4.84673C11.9263 4.07743 11.1083 3.46605 10.1858 3.05863C9.26338 2.65121 8.26053 2.45836 7.25276 2.4946C6.245 2.53084 5.25858 2.79523 4.36778 3.26786C3.47698 3.74049 2.70501 4.40904 2.10998 5.22319C1.51495 6.03734 1.11237 6.97587 0.93254 7.96813C0.752714 8.96038 0.800331 9.9805 1.07181 10.9517C1.34328 11.9229 1.83154 12.8198 2.49982 13.575" stroke="#00008F" stroke-width="2" stroke-linecap="round" stroke-linejoin="round"/>
</g>
<defs>
<clipPath id="clip0_979_31354">
<rect width="20" height="20" fill="white"/>
</clipPath>
</defs>
</svg>
