<svg width="20" height="20" viewBox="0 0 20 20" fill="none" xmlns="http://www.w3.org/2000/svg">
<path d="M9.99995 9.68006e-09C8.46603 -6.74771e-05 6.95266 0.352741 5.57691 1.03113C4.20116 1.70952 2.99992 2.69531 2.0661 3.91222C1.13229 5.12914 0.490941 6.54457 0.191676 8.04901C-0.107589 9.55345 -0.0567494 11.1066 0.340262 12.5882C0.737274 14.0699 1.46982 15.4403 2.48121 16.5936C3.49261 17.7468 4.75576 18.6519 6.17293 19.2389C7.5901 19.8259 9.1233 20.0789 10.6539 19.9786C12.1846 19.8782 13.6716 19.427 15 18.66C15.1195 18.5975 15.2251 18.5114 15.3105 18.407C15.3959 18.3027 15.4592 18.1821 15.4968 18.0525C15.5344 17.923 15.5454 17.7872 15.5291 17.6533C15.5129 17.5194 15.4697 17.3902 15.4022 17.2735C15.3347 17.1567 15.2443 17.0548 15.1364 16.9739C15.0285 16.893 14.9053 16.8347 14.7743 16.8026C14.6433 16.7705 14.5072 16.7653 14.3741 16.7872C14.241 16.8091 14.1138 16.8576 14 16.93C12.4749 17.8105 10.7019 18.1632 8.95596 17.9334C7.21003 17.7036 5.5887 16.9041 4.34342 15.659C3.09813 14.4138 2.29848 12.7926 2.06848 11.0467C1.83848 9.30076 2.19097 7.52774 3.0713 6.00257C3.95163 4.47741 5.31059 3.28532 6.93745 2.61119C8.5643 1.93706 10.3681 1.81855 12.0692 2.27404C13.7703 2.72953 15.2735 3.73358 16.3458 5.13046C17.4181 6.52734 17.9996 8.239 18 10V10.75C18 11.2141 17.8156 11.6592 17.4874 11.9874C17.1592 12.3156 16.7141 12.5 16.25 12.5C15.7858 12.5 15.3407 12.3156 15.0125 11.9874C14.6843 11.6592 14.5 11.2141 14.5 10.75V6.5C14.5 6.23478 14.3946 5.98043 14.2071 5.79289C14.0195 5.60536 13.7652 5.5 13.5 5.5C13.2674 5.49483 13.0403 5.57088 12.8578 5.71507C12.6753 5.85926 12.5487 6.06257 12.5 6.29C11.7649 5.78158 10.8937 5.5063 9.99995 5.5C9.24712 5.491 8.50406 5.67102 7.83882 6.0236C7.17359 6.37617 6.60745 6.89001 6.19226 7.51807C5.77706 8.14612 5.52609 8.86831 5.46231 9.6185C5.39854 10.3687 5.524 11.1229 5.82722 11.812C6.13044 12.5011 6.60171 13.1032 7.19788 13.563C7.79405 14.0228 8.49606 14.3257 9.23961 14.4439C9.98316 14.5621 10.7445 14.4918 11.4539 14.2396C12.1632 13.9873 12.798 13.5611 13.3 13C13.7751 13.6153 14.4302 14.0673 15.1741 14.293C15.918 14.5188 16.7138 14.5071 17.4508 14.2596C18.1877 14.0121 18.8292 13.5411 19.2861 12.9121C19.743 12.2831 19.9925 11.5274 20 10.75V10C20 8.68678 19.7413 7.38642 19.2387 6.17317C18.7362 4.95991 17.9996 3.85752 17.071 2.92893C16.1424 2.00035 15.04 1.26375 13.8268 0.761205C12.6135 0.258658 11.3132 9.68006e-09 9.99995 9.68006e-09ZM9.99995 12.5C9.5055 12.5 9.02215 12.3534 8.61103 12.0787C8.1999 11.804 7.87947 11.4135 7.69025 10.9567C7.50103 10.4999 7.45153 9.99723 7.54799 9.51227C7.64445 9.02732 7.88255 8.58186 8.23218 8.23223C8.58182 7.8826 9.02727 7.6445 9.51223 7.54804C9.99718 7.45157 10.4998 7.50108 10.9567 7.6903C11.4135 7.87952 11.8039 8.19995 12.0786 8.61107C12.3533 9.0222 12.5 9.50555 12.5 10C12.5 10.663 12.2366 11.2989 11.7677 11.7678C11.2989 12.2366 10.663 12.5 9.99995 12.5Z" fill="#F56C6C"/>
</svg>
