<svg width="22" height="22" viewBox="0 0 22 22" fill="none" xmlns="http://www.w3.org/2000/svg">
<path d="M12.1827 13.4842L17.041 18.3334H15.5835C15.3404 18.3334 15.1072 18.43 14.9353 18.6019C14.7634 18.7738 14.6668 19.007 14.6668 19.2501C14.6668 19.4932 14.7634 19.7264 14.9353 19.8983C15.1072 20.0702 15.3404 20.1667 15.5835 20.1667H19.2502C19.3699 20.1653 19.4883 20.1404 19.5985 20.0934C19.8225 20.0004 20.0005 19.8224 20.0935 19.5984C20.1405 19.4882 20.1654 19.3699 20.1668 19.2501V15.5834C20.1668 15.3403 20.0703 15.1071 19.8983 14.9352C19.7264 14.7633 19.4933 14.6667 19.2502 14.6667C19.007 14.6667 18.7739 14.7633 18.602 14.9352C18.4301 15.1071 18.3335 15.3403 18.3335 15.5834V17.0409L13.4843 12.1826C13.3117 12.01 13.0776 11.913 12.8335 11.913C12.5894 11.913 12.3553 12.01 12.1827 12.1826C12.0101 12.3552 11.9131 12.5893 11.9131 12.8334C11.9131 13.0775 12.0101 13.3116 12.1827 13.4842ZM3.66683 17.0409V15.5834C3.66683 15.3403 3.57025 15.1071 3.39834 14.9352C3.22644 14.7633 2.99328 14.6667 2.75016 14.6667C2.50705 14.6667 2.27389 14.7633 2.10198 14.9352C1.93007 15.1071 1.8335 15.3403 1.8335 15.5834L1.8335 19.2501C1.83494 19.3699 1.85986 19.4882 1.90683 19.5984C1.99985 19.8224 2.17784 20.0004 2.40183 20.0934C2.51203 20.1404 2.63038 20.1653 2.75016 20.1667H6.41683C6.65994 20.1667 6.8931 20.0702 7.06501 19.8983C7.23692 19.7264 7.3335 19.4932 7.3335 19.2501C7.3335 19.007 7.23692 18.7738 7.06501 18.6019C6.8931 18.43 6.65994 18.3334 6.41683 18.3334H4.95933L9.81766 13.4842C9.90358 13.399 9.97178 13.2976 10.0183 13.1859C10.0649 13.0742 10.0888 12.9544 10.0888 12.8334C10.0888 12.7124 10.0649 12.5926 10.0183 12.4809C9.97178 12.3692 9.90358 12.2678 9.81766 12.1826C9.73245 12.0967 9.63106 12.0285 9.51936 11.9819C9.40765 11.9354 9.28784 11.9114 9.16683 11.9114C9.04582 11.9114 8.926 11.9354 8.8143 11.9819C8.7026 12.0285 8.60121 12.0967 8.516 12.1826L3.66683 17.0409ZM14.6668 2.75008C14.6668 2.9932 14.7634 3.22636 14.9353 3.39826C15.1072 3.57017 15.3404 3.66675 15.5835 3.66675H17.041L12.1827 8.51591C12.0101 8.68853 11.9131 8.92264 11.9131 9.16675C11.9131 9.41086 12.0101 9.64497 12.1827 9.81758C12.3553 9.99019 12.5894 10.0872 12.8335 10.0872C13.0776 10.0872 13.3117 9.99019 13.4843 9.81758L18.3335 4.95925V6.41675C18.3335 6.65986 18.4301 6.89302 18.602 7.06493C18.7739 7.23684 19.007 7.33342 19.2502 7.33342C19.4933 7.33342 19.7264 7.23684 19.8983 7.06493C20.0703 6.89302 20.1668 6.65986 20.1668 6.41675V2.75008C20.1654 2.63029 20.1405 2.51195 20.0935 2.40175C20.0005 2.17776 19.8225 1.99977 19.5985 1.90675C19.4883 1.85978 19.3699 1.83486 19.2502 1.83342H15.5835C15.3404 1.83342 15.1072 1.92999 14.9353 2.1019C14.7634 2.27381 14.6668 2.50697 14.6668 2.75008ZM2.40183 1.90675C2.17784 1.99977 1.99985 2.17776 1.90683 2.40175C1.85986 2.51195 1.83494 2.63029 1.8335 2.75008L1.8335 6.41675C1.8335 6.65986 1.93007 6.89302 2.10198 7.06493C2.27389 7.23684 2.50705 7.33342 2.75016 7.33342C2.99328 7.33342 3.22644 7.23684 3.39834 7.06493C3.57025 6.89302 3.66683 6.65986 3.66683 6.41675V4.95925L8.516 9.81758C8.60121 9.9035 8.7026 9.97169 8.8143 10.0182C8.926 10.0648 9.04582 10.0887 9.16683 10.0887C9.28784 10.0887 9.40765 10.0648 9.51936 10.0182C9.63106 9.97169 9.73245 9.9035 9.81766 9.81758C9.90358 9.73237 9.97178 9.63098 10.0183 9.51928C10.0649 9.40757 10.0888 9.28776 10.0888 9.16675C10.0888 9.04574 10.0649 8.92592 10.0183 8.81422C9.97178 8.70252 9.90358 8.60113 9.81766 8.51591L4.95933 3.66675H6.41683C6.65994 3.66675 6.8931 3.57017 7.06501 3.39826C7.23692 3.22636 7.3335 2.9932 7.3335 2.75008C7.3335 2.50697 7.23692 2.27381 7.06501 2.1019C6.8931 1.92999 6.65994 1.83342 6.41683 1.83342H2.75016C2.63038 1.83486 2.51203 1.85978 2.40183 1.90675Z" fill="#00008F"/>
</svg>
