<svg width="16" height="18" viewBox="0 0 16 18" fill="none" xmlns="http://www.w3.org/2000/svg">
<path d="M15.4333 12.0167C15.3911 11.9158 15.3319 11.8227 15.2583 11.7417L12.7583 9.24175C12.6014 9.08483 12.3886 8.99667 12.1667 8.99667C11.9447 8.99667 11.7319 9.08483 11.575 9.24175C11.4181 9.39867 11.3299 9.6115 11.3299 9.83342C11.3299 10.0553 11.4181 10.2682 11.575 10.4251L12.6583 11.5001H8C7.77899 11.5001 7.56703 11.5879 7.41074 11.7442C7.25446 11.9004 7.16667 12.1124 7.16667 12.3334C7.16667 12.5544 7.25446 12.7664 7.41074 12.9227C7.56703 13.079 7.77899 13.1667 8 13.1667H12.6583L11.575 14.2417C11.4969 14.3192 11.4349 14.4114 11.3926 14.5129C11.3503 14.6145 11.3285 14.7234 11.3285 14.8334C11.3285 14.9434 11.3503 15.0523 11.3926 15.1539C11.4349 15.2554 11.4969 15.3476 11.575 15.4251C11.6525 15.5032 11.7446 15.5652 11.8462 15.6075C11.9477 15.6498 12.0567 15.6716 12.1667 15.6716C12.2767 15.6716 12.3856 15.6498 12.4871 15.6075C12.5887 15.5652 12.6809 15.5032 12.7583 15.4251L15.2583 12.9251C15.3355 12.8469 15.3952 12.7531 15.4333 12.6501C15.5167 12.4472 15.5167 12.2196 15.4333 12.0167ZM9.66667 15.6667H3C2.77899 15.6667 2.56702 15.579 2.41074 15.4227C2.25446 15.2664 2.16667 15.0544 2.16667 14.8334V3.16675C2.16667 2.94573 2.25446 2.73377 2.41074 2.57749C2.56702 2.42121 2.77899 2.33341 3 2.33341H7.16667V4.83342C7.16667 5.49646 7.43006 6.13234 7.8989 6.60118C8.36774 7.07002 9.00363 7.33342 9.66667 7.33342H13C13.1645 7.33259 13.3251 7.28309 13.4616 7.19115C13.598 7.0992 13.7042 6.96893 13.7667 6.81675C13.8305 6.66499 13.8479 6.49773 13.8168 6.33607C13.7856 6.17441 13.7073 6.0256 13.5917 5.90841L8.59167 0.908415C8.52278 0.843595 8.44402 0.790149 8.35833 0.750081H8.28333L8.05 0.666748H3C2.33696 0.666748 1.70107 0.93014 1.23223 1.39898C0.763392 1.86782 0.5 2.50371 0.5 3.16675V14.8334C0.5 15.4965 0.763392 16.1323 1.23223 16.6012C1.70107 17.07 2.33696 17.3334 3 17.3334H9.66667C9.88768 17.3334 10.0996 17.2456 10.2559 17.0893C10.4122 16.9331 10.5 16.7211 10.5 16.5001C10.5 16.2791 10.4122 16.0671 10.2559 15.9108C10.0996 15.7545 9.88768 15.6667 9.66667 15.6667ZM8.83333 3.50841L10.9917 5.66675H9.66667C9.44565 5.66675 9.23369 5.57895 9.07741 5.42267C8.92113 5.26639 8.83333 5.05443 8.83333 4.83342V3.50841Z" fill="#27364B"/>
</svg>
