<svg width="21" height="17" viewBox="0 0 21 17" fill="none" xmlns="http://www.w3.org/2000/svg">
<path d="M2.4547 1.41895L5.73482 4.31296M18.9048 15.9327L15.625 13.039M12.3932 14.1787C11.8383 14.2715 11.2657 14.3201 10.6802 14.3201C6.58808 14.3201 3.12413 11.9471 1.95959 8.6758C2.27662 7.78525 2.76406 6.96127 3.38818 6.23363M8.7411 6.96536C9.23725 6.52762 9.92268 6.25687 10.6798 6.25687C12.194 6.25687 13.4215 7.33987 13.4215 8.67583C13.4215 9.3438 13.1146 9.94854 12.6184 10.3863M8.7411 6.96536L12.6184 10.3863M8.7411 6.96536L5.73482 4.31296M12.6184 10.3863L5.73482 4.31296M12.6184 10.3863L15.625 13.039M5.73482 4.31296C7.16034 3.50211 8.85798 3.03159 10.6802 3.03159C14.7723 3.03159 18.2362 5.40452 19.4008 8.67586C18.7547 10.4906 17.401 12.0289 15.625 13.039" stroke="#00008F" stroke-width="2" stroke-linecap="round" stroke-linejoin="round"/>
</svg>
