<svg width="20" height="14" viewBox="0 0 20 14" fill="none" xmlns="http://www.w3.org/2000/svg">
<path d="M19.0326 6.35331C17.1866 2.57167 13.7138 0.225281 9.96677 0.225281C6.21979 0.225281 2.74698 2.57167 0.900912 6.35331C0.85059 6.45504 0.824615 6.56485 0.824615 6.67584C0.824615 6.78684 0.85059 6.89664 0.900912 6.99837C2.74698 10.78 6.21979 13.1264 9.96677 13.1264C13.7138 13.1264 17.1866 10.78 19.0326 6.99837C19.083 6.89664 19.1089 6.78684 19.1089 6.67584C19.1089 6.56485 19.083 6.45504 19.0326 6.35331ZM9.96677 11.5138C7.06972 11.5138 4.32803 9.66729 2.74698 6.67584C4.32803 3.68439 7.06972 1.83792 9.96677 1.83792C12.8638 1.83792 15.6055 3.68439 17.1866 6.67584C15.6055 9.66729 12.8638 11.5138 9.96677 11.5138ZM9.96677 3.45056C9.24377 3.45056 8.537 3.63972 7.93584 3.99412C7.33468 4.34852 6.86613 4.85224 6.58945 5.44158C6.31277 6.03092 6.24037 6.67942 6.38142 7.30506C6.52248 7.93071 6.87064 8.5054 7.38188 8.95646C7.89312 9.40752 8.54449 9.7147 9.2536 9.83915C9.96272 9.9636 10.6977 9.89973 11.3657 9.65561C12.0337 9.4115 12.6046 8.99811 13.0063 8.46771C13.408 7.93732 13.6224 7.31374 13.6224 6.67584C13.6224 5.82044 13.2372 5.00008 12.5517 4.39522C11.8661 3.79037 10.9363 3.45056 9.96677 3.45056ZM9.96677 8.28848C9.60527 8.28848 9.25188 8.1939 8.9513 8.0167C8.65073 7.8395 8.41645 7.58764 8.27811 7.29297C8.13977 6.9983 8.10357 6.67405 8.1741 6.36123C8.24462 6.04841 8.41871 5.76107 8.67433 5.53553C8.92995 5.31 9.25563 5.15641 9.61019 5.09419C9.96475 5.03196 10.3323 5.0639 10.6662 5.18596C11.0002 5.30801 11.2857 5.51471 11.4865 5.77991C11.6874 6.0451 11.7946 6.35689 11.7946 6.67584C11.7946 7.10354 11.602 7.51372 11.2592 7.81615C10.9164 8.11858 10.4515 8.28848 9.96677 8.28848Z" fill="#00008F"/>
</svg>
