<svg width="19" height="23" viewBox="0 0 19 23" fill="none" xmlns="http://www.w3.org/2000/svg">
<path d="M12.5487 11.8231C12.4442 11.7176 12.3197 11.6339 12.1826 11.5768C12.0456 11.5197 11.8985 11.4903 11.75 11.4903C11.6015 11.4903 11.4544 11.5197 11.3174 11.5768C11.1803 11.6339 11.0558 11.7176 10.9513 11.8231L9.5 13.2856L8.04875 11.8231C7.83691 11.6112 7.54959 11.4922 7.25 11.4922C6.95041 11.4922 6.66309 11.6112 6.45125 11.8231C6.23941 12.0349 6.1204 12.3222 6.1204 12.6218C6.1204 12.9214 6.23941 13.2087 6.45125 13.4206L7.91375 14.8718L6.45125 16.3231C6.34581 16.4277 6.26211 16.5521 6.205 16.6892C6.14788 16.8263 6.11848 16.9733 6.11848 17.1218C6.11848 17.2703 6.14788 17.4174 6.205 17.5545C6.26211 17.6916 6.34581 17.816 6.45125 17.9206C6.55583 18.026 6.68026 18.1097 6.81735 18.1668C6.95444 18.2239 7.10149 18.2533 7.25 18.2533C7.39851 18.2533 7.54556 18.2239 7.68265 18.1668C7.81974 18.1097 7.94417 18.026 8.04875 17.9206L9.5 16.4581L10.9513 17.9206C11.0558 18.026 11.1803 18.1097 11.3174 18.1668C11.4544 18.2239 11.6015 18.2533 11.75 18.2533C11.8985 18.2533 12.0456 18.2239 12.1826 18.1668C12.3197 18.1097 12.4442 18.026 12.5487 17.9206C12.6542 17.816 12.7379 17.6916 12.795 17.5545C12.8521 17.4174 12.8815 17.2703 12.8815 17.1218C12.8815 16.9733 12.8521 16.8263 12.795 16.6892C12.7379 16.5521 12.6542 16.4277 12.5487 16.3231L11.0863 14.8718L12.5487 13.4206C12.6542 13.316 12.7379 13.1916 12.795 13.0545C12.8521 12.9174 12.8815 12.7703 12.8815 12.6218C12.8815 12.4733 12.8521 12.3263 12.795 12.1892C12.7379 12.0521 12.6542 11.9277 12.5487 11.8231ZM18.5 8.05433C18.4883 7.95098 18.4657 7.84916 18.4325 7.75058V7.64933C18.3784 7.53365 18.3063 7.42732 18.2188 7.33433L11.4688 0.584326C11.3758 0.496819 11.2694 0.424667 11.1538 0.370576H11.0413C10.9319 0.31208 10.8143 0.270363 10.6925 0.246826H3.875C2.97989 0.246826 2.12145 0.602406 1.48851 1.23534C0.855579 1.86828 0.5 2.72672 0.5 3.62183V19.3718C0.5 20.2669 0.855579 21.1254 1.48851 21.7583C2.12145 22.3912 2.97989 22.7468 3.875 22.7468H15.125C16.0201 22.7468 16.8786 22.3912 17.5115 21.7583C18.1444 21.1254 18.5 20.2669 18.5 19.3718V8.12183C18.5 8.12183 18.5 8.12183 18.5 8.05433ZM11.75 4.08308L14.6637 6.99683H12.875C12.5766 6.99683 12.2905 6.8783 12.0795 6.66732C11.8685 6.45634 11.75 6.17019 11.75 5.87183V4.08308ZM16.25 19.3718C16.25 19.6702 16.1315 19.9563 15.9205 20.1673C15.7095 20.3783 15.4234 20.4968 15.125 20.4968H3.875C3.57663 20.4968 3.29048 20.3783 3.0795 20.1673C2.86853 19.9563 2.75 19.6702 2.75 19.3718V3.62183C2.75 3.32346 2.86853 3.03731 3.0795 2.82633C3.29048 2.61535 3.57663 2.49683 3.875 2.49683H9.5V5.87183C9.5 6.76693 9.85558 7.62538 10.4885 8.25831C11.1214 8.89125 11.9799 9.24683 12.875 9.24683H16.25V19.3718Z" fill="white"/>
</svg>
