<svg width="35" height="36" viewBox="0 0 35 36" fill="none" xmlns="http://www.w3.org/2000/svg">
<mask id="path-1-inside-1_3688_10548" fill="white">
<path d="M17.5001 29.6665H7.29175C6.90497 29.6665 6.53404 29.5129 6.26055 29.2394C5.98706 28.9659 5.83341 28.5949 5.83341 28.2082V7.7915C5.83341 7.40473 5.98706 7.0338 6.26055 6.76031C6.53404 6.48682 6.90497 6.33317 7.29175 6.33317H14.5834V10.7082C14.5834 11.8685 15.0444 12.9813 15.8648 13.8018C16.6853 14.6222 17.7981 15.0832 18.9584 15.0832H23.3334V16.5415C23.3334 16.9283 23.4871 17.2992 23.7605 17.5727C24.034 17.8462 24.405 17.9998 24.7917 17.9998C25.1785 17.9998 25.5495 17.8462 25.8229 17.5727C26.0964 17.2992 26.2501 16.9283 26.2501 16.5415V13.6248C26.2501 13.6248 26.2501 13.6248 26.2501 13.5373C26.2349 13.4034 26.2056 13.2714 26.1626 13.1436V13.0123C26.0925 12.8624 25.9989 12.7246 25.8855 12.604L17.1355 3.854C17.0149 3.74057 16.8771 3.64704 16.7272 3.57692C16.6836 3.57074 16.6394 3.57074 16.5959 3.57692C16.4478 3.49196 16.2842 3.43742 16.1147 3.4165H7.29175C6.13143 3.4165 5.01863 3.87744 4.19816 4.69791C3.37768 5.51838 2.91675 6.63118 2.91675 7.7915V28.2082C2.91675 29.3685 3.37768 30.4813 4.19816 31.3018C5.01863 32.1222 6.13143 32.5832 7.29175 32.5832H17.5001C17.8869 32.5832 18.2578 32.4295 18.5313 32.156C18.8048 31.8825 18.9584 31.5116 18.9584 31.1248C18.9584 30.7381 18.8048 30.3671 18.5313 30.0936C18.2578 29.8201 17.8869 29.6665 17.5001 29.6665ZM17.5001 8.38942L21.2772 12.1665H18.9584C18.5716 12.1665 18.2007 12.0129 17.9272 11.7394C17.6537 11.4659 17.5001 11.0949 17.5001 10.7082V8.38942ZM10.2084 12.1665C9.82164 12.1665 9.45071 12.3201 9.17722 12.5936C8.90373 12.8671 8.75008 13.2381 8.75008 13.6248C8.75008 14.0116 8.90373 14.3825 9.17722 14.656C9.45071 14.9295 9.82164 15.0832 10.2084 15.0832H11.6667C12.0535 15.0832 12.4245 14.9295 12.6979 14.656C12.9714 14.3825 13.1251 14.0116 13.1251 13.6248C13.1251 13.2381 12.9714 12.8671 12.6979 12.5936C12.4245 12.3201 12.0535 12.1665 11.6667 12.1665H10.2084ZM31.6605 30.0894L29.9543 28.3978C30.4996 27.4458 30.7179 26.3414 30.5757 25.2536C30.4334 24.1657 29.9385 23.1545 29.1667 22.3748C28.4566 21.6394 27.5414 21.1348 26.5403 20.9269C25.5393 20.719 24.4989 20.8174 23.5546 21.2093C22.6103 21.6012 21.8059 22.2684 21.2462 23.124C20.6865 23.9796 20.3975 24.9839 20.4167 26.0061C20.4117 26.8857 20.6368 27.7514 21.0695 28.5173C21.5023 29.2831 22.1278 29.9225 22.8839 30.372C23.64 30.8216 24.5005 31.0656 25.38 31.08C26.2596 31.0944 27.1276 30.8786 27.898 30.454L29.5897 32.1603C29.7252 32.2969 29.8865 32.4054 30.0642 32.4795C30.242 32.5535 30.4326 32.5916 30.6251 32.5916C30.8176 32.5916 31.0082 32.5535 31.1859 32.4795C31.3636 32.4054 31.5249 32.2969 31.6605 32.1603C31.7972 32.0247 31.9057 31.8634 31.9797 31.6857C32.0538 31.508 32.0919 31.3174 32.0919 31.1248C32.0919 30.9323 32.0538 30.7417 31.9797 30.564C31.9057 30.3863 31.7972 30.225 31.6605 30.0894ZM27.0376 27.5373C26.6211 27.929 26.0708 28.1471 25.499 28.1471C24.9273 28.1471 24.377 27.929 23.9605 27.5373C23.559 27.1287 23.3339 26.5789 23.3334 26.0061C23.3304 25.7184 23.3857 25.4332 23.496 25.1675C23.6063 24.9018 23.7692 24.6612 23.9751 24.4603C24.3639 24.0736 24.8853 23.8494 25.4334 23.8332C25.7283 23.8151 26.0237 23.8581 26.3011 23.9595C26.5785 24.0609 26.832 24.2186 27.0456 24.4226C27.2592 24.6267 27.4284 24.8726 27.5424 25.1451C27.6565 25.4176 27.713 25.7107 27.7084 26.0061C27.6964 26.5852 27.4551 27.1359 27.0376 27.5373ZM18.9584 17.9998H10.2084C9.82164 17.9998 9.45071 18.1535 9.17722 18.427C8.90373 18.7005 8.75008 19.0714 8.75008 19.4582C8.75008 19.8449 8.90373 20.2159 9.17722 20.4894C9.45071 20.7629 9.82164 20.9165 10.2084 20.9165H18.9584C19.3452 20.9165 19.7161 20.7629 19.9896 20.4894C20.2631 20.2159 20.4167 19.8449 20.4167 19.4582C20.4167 19.0714 20.2631 18.7005 19.9896 18.427C19.7161 18.1535 19.3452 17.9998 18.9584 17.9998ZM16.0417 26.7498C16.4285 26.7498 16.7995 26.5962 17.0729 26.3227C17.3464 26.0492 17.5001 25.6783 17.5001 25.2915C17.5001 24.9047 17.3464 24.5338 17.0729 24.2603C16.7995 23.9868 16.4285 23.8332 16.0417 23.8332H10.2084C9.82164 23.8332 9.45071 23.9868 9.17722 24.2603C8.90373 24.5338 8.75008 24.9047 8.75008 25.2915C8.75008 25.6783 8.90373 26.0492 9.17722 26.3227C9.45071 26.5962 9.82164 26.7498 10.2084 26.7498H16.0417Z"/>
</mask>
<path d="M17.5001 29.6665H7.29175C6.90497 29.6665 6.53404 29.5129 6.26055 29.2394C5.98706 28.9659 5.83341 28.5949 5.83341 28.2082V7.7915C5.83341 7.40473 5.98706 7.0338 6.26055 6.76031C6.53404 6.48682 6.90497 6.33317 7.29175 6.33317H14.5834V10.7082C14.5834 11.8685 15.0444 12.9813 15.8648 13.8018C16.6853 14.6222 17.7981 15.0832 18.9584 15.0832H23.3334V16.5415C23.3334 16.9283 23.4871 17.2992 23.7605 17.5727C24.034 17.8462 24.405 17.9998 24.7917 17.9998C25.1785 17.9998 25.5495 17.8462 25.8229 17.5727C26.0964 17.2992 26.2501 16.9283 26.2501 16.5415V13.6248C26.2501 13.6248 26.2501 13.6248 26.2501 13.5373C26.2349 13.4034 26.2056 13.2714 26.1626 13.1436V13.0123C26.0925 12.8624 25.9989 12.7246 25.8855 12.604L17.1355 3.854C17.0149 3.74057 16.8771 3.64704 16.7272 3.57692C16.6836 3.57074 16.6394 3.57074 16.5959 3.57692C16.4478 3.49196 16.2842 3.43742 16.1147 3.4165H7.29175C6.13143 3.4165 5.01863 3.87744 4.19816 4.69791C3.37768 5.51838 2.91675 6.63118 2.91675 7.7915V28.2082C2.91675 29.3685 3.37768 30.4813 4.19816 31.3018C5.01863 32.1222 6.13143 32.5832 7.29175 32.5832H17.5001C17.8869 32.5832 18.2578 32.4295 18.5313 32.156C18.8048 31.8825 18.9584 31.5116 18.9584 31.1248C18.9584 30.7381 18.8048 30.3671 18.5313 30.0936C18.2578 29.8201 17.8869 29.6665 17.5001 29.6665ZM17.5001 8.38942L21.2772 12.1665H18.9584C18.5716 12.1665 18.2007 12.0129 17.9272 11.7394C17.6537 11.4659 17.5001 11.0949 17.5001 10.7082V8.38942ZM10.2084 12.1665C9.82164 12.1665 9.45071 12.3201 9.17722 12.5936C8.90373 12.8671 8.75008 13.2381 8.75008 13.6248C8.75008 14.0116 8.90373 14.3825 9.17722 14.656C9.45071 14.9295 9.82164 15.0832 10.2084 15.0832H11.6667C12.0535 15.0832 12.4245 14.9295 12.6979 14.656C12.9714 14.3825 13.1251 14.0116 13.1251 13.6248C13.1251 13.2381 12.9714 12.8671 12.6979 12.5936C12.4245 12.3201 12.0535 12.1665 11.6667 12.1665H10.2084ZM31.6605 30.0894L29.9543 28.3978C30.4996 27.4458 30.7179 26.3414 30.5757 25.2536C30.4334 24.1657 29.9385 23.1545 29.1667 22.3748C28.4566 21.6394 27.5414 21.1348 26.5403 20.9269C25.5393 20.719 24.4989 20.8174 23.5546 21.2093C22.6103 21.6012 21.8059 22.2684 21.2462 23.124C20.6865 23.9796 20.3975 24.9839 20.4167 26.0061C20.4117 26.8857 20.6368 27.7514 21.0695 28.5173C21.5023 29.2831 22.1278 29.9225 22.8839 30.372C23.64 30.8216 24.5005 31.0656 25.38 31.08C26.2596 31.0944 27.1276 30.8786 27.898 30.454L29.5897 32.1603C29.7252 32.2969 29.8865 32.4054 30.0642 32.4795C30.242 32.5535 30.4326 32.5916 30.6251 32.5916C30.8176 32.5916 31.0082 32.5535 31.1859 32.4795C31.3636 32.4054 31.5249 32.2969 31.6605 32.1603C31.7972 32.0247 31.9057 31.8634 31.9797 31.6857C32.0538 31.508 32.0919 31.3174 32.0919 31.1248C32.0919 30.9323 32.0538 30.7417 31.9797 30.564C31.9057 30.3863 31.7972 30.225 31.6605 30.0894ZM27.0376 27.5373C26.6211 27.929 26.0708 28.1471 25.499 28.1471C24.9273 28.1471 24.377 27.929 23.9605 27.5373C23.559 27.1287 23.3339 26.5789 23.3334 26.0061C23.3304 25.7184 23.3857 25.4332 23.496 25.1675C23.6063 24.9018 23.7692 24.6612 23.9751 24.4603C24.3639 24.0736 24.8853 23.8494 25.4334 23.8332C25.7283 23.8151 26.0237 23.8581 26.3011 23.9595C26.5785 24.0609 26.832 24.2186 27.0456 24.4226C27.2592 24.6267 27.4284 24.8726 27.5424 25.1451C27.6565 25.4176 27.713 25.7107 27.7084 26.0061C27.6964 26.5852 27.4551 27.1359 27.0376 27.5373ZM18.9584 17.9998H10.2084C9.82164 17.9998 9.45071 18.1535 9.17722 18.427C8.90373 18.7005 8.75008 19.0714 8.75008 19.4582C8.75008 19.8449 8.90373 20.2159 9.17722 20.4894C9.45071 20.7629 9.82164 20.9165 10.2084 20.9165H18.9584C19.3452 20.9165 19.7161 20.7629 19.9896 20.4894C20.2631 20.2159 20.4167 19.8449 20.4167 19.4582C20.4167 19.0714 20.2631 18.7005 19.9896 18.427C19.7161 18.1535 19.3452 17.9998 18.9584 17.9998ZM16.0417 26.7498C16.4285 26.7498 16.7995 26.5962 17.0729 26.3227C17.3464 26.0492 17.5001 25.6783 17.5001 25.2915C17.5001 24.9047 17.3464 24.5338 17.0729 24.2603C16.7995 23.9868 16.4285 23.8332 16.0417 23.8332H10.2084C9.82164 23.8332 9.45071 23.9868 9.17722 24.2603C8.90373 24.5338 8.75008 24.9047 8.75008 25.2915C8.75008 25.6783 8.90373 26.0492 9.17722 26.3227C9.45071 26.5962 9.82164 26.7498 10.2084 26.7498H16.0417Z" fill="#E26B0A" stroke="#E26B0A" stroke-width="6" mask="url(#path-1-inside-1_3688_10548)"/>
</svg>
