<svg width="36" height="36" viewBox="0 0 36 36" fill="none" xmlns="http://www.w3.org/2000/svg">
<path d="M30.5356 24.8686L27.0064 21.3394C26.8708 21.2027 26.7095 21.0942 26.5318 21.0202C26.3541 20.9462 26.1635 20.908 25.971 20.908C25.7785 20.908 25.5879 20.9462 25.4102 21.0202C25.2324 21.0942 25.0711 21.2027 24.9356 21.3394L19.7147 26.5603C19.5796 26.6965 19.4727 26.8581 19.4001 27.0358C19.3275 27.2135 19.2907 27.4037 19.2918 27.5957V31.1248C19.2918 31.5116 19.4455 31.8825 19.719 32.156C19.9925 32.4295 20.3634 32.5832 20.7502 32.5832H24.2793C24.4713 32.5843 24.6615 32.5475 24.8392 32.4749C25.0169 32.4023 25.1785 32.2954 25.3147 32.1603L30.5356 26.9394C30.6723 26.8038 30.7808 26.6426 30.8548 26.4648C30.9288 26.2871 30.967 26.0965 30.967 25.904C30.967 25.7115 30.9288 25.5209 30.8548 25.3432C30.7808 25.1655 30.6723 25.0042 30.5356 24.8686ZM23.6668 29.6665H22.2085V28.2082L25.971 24.4457L27.4293 25.904L23.6668 29.6665ZM14.9168 29.6665H9.0835C8.69672 29.6665 8.32579 29.5129 8.0523 29.2394C7.77881 28.9659 7.62516 28.5949 7.62516 28.2082V7.7915C7.62516 7.40473 7.77881 7.0338 8.0523 6.76031C8.32579 6.48682 8.69672 6.33317 9.0835 6.33317H16.3752V10.7082C16.3752 11.8685 16.8361 12.9813 17.6566 13.8018C18.477 14.6222 19.5898 15.0832 20.7502 15.0832H25.1252V16.5415C25.1252 16.9283 25.2788 17.2992 25.5523 17.5727C25.8258 17.8462 26.1967 17.9998 26.5835 17.9998C26.9703 17.9998 27.3412 17.8462 27.6147 17.5727C27.8882 17.2992 28.0418 16.9283 28.0418 16.5415V13.6248C28.0418 13.6248 28.0418 13.6248 28.0418 13.5373C28.0266 13.4034 27.9973 13.2714 27.9543 13.1436V13.0123C27.8842 12.8624 27.7907 12.7246 27.6772 12.604L18.9272 3.854C18.8067 3.74057 18.6689 3.64704 18.5189 3.57692C18.4754 3.57074 18.4312 3.57074 18.3877 3.57692L17.921 3.4165H9.0835C7.92317 3.4165 6.81038 3.87744 5.9899 4.69791C5.16943 5.51838 4.7085 6.63118 4.7085 7.7915V28.2082C4.7085 29.3685 5.16943 30.4813 5.9899 31.3018C6.81038 32.1222 7.92317 32.5832 9.0835 32.5832H14.9168C15.3036 32.5832 15.6745 32.4295 15.948 32.156C16.2215 31.8825 16.3752 31.5116 16.3752 31.1248C16.3752 30.7381 16.2215 30.3671 15.948 30.0936C15.6745 29.8201 15.3036 29.6665 14.9168 29.6665ZM19.2918 8.38942L23.0689 12.1665H20.7502C20.3634 12.1665 19.9925 12.0129 19.719 11.7394C19.4455 11.4659 19.2918 11.0949 19.2918 10.7082V8.38942ZM12.0002 20.9165H20.7502C21.1369 20.9165 21.5079 20.7629 21.7814 20.4894C22.0548 20.2159 22.2085 19.8449 22.2085 19.4582C22.2085 19.0714 22.0548 18.7005 21.7814 18.427C21.5079 18.1535 21.1369 17.9998 20.7502 17.9998H12.0002C11.6134 17.9998 11.2425 18.1535 10.969 18.427C10.6955 18.7005 10.5418 19.0714 10.5418 19.4582C10.5418 19.8449 10.6955 20.2159 10.969 20.4894C11.2425 20.7629 11.6134 20.9165 12.0002 20.9165ZM12.0002 15.0832H13.4585C13.8453 15.0832 14.2162 14.9295 14.4897 14.656C14.7632 14.3825 14.9168 14.0116 14.9168 13.6248C14.9168 13.2381 14.7632 12.8671 14.4897 12.5936C14.2162 12.3201 13.8453 12.1665 13.4585 12.1665H12.0002C11.6134 12.1665 11.2425 12.3201 10.969 12.5936C10.6955 12.8671 10.5418 13.2381 10.5418 13.6248C10.5418 14.0116 10.6955 14.3825 10.969 14.656C11.2425 14.9295 11.6134 15.0832 12.0002 15.0832ZM14.9168 23.8332H12.0002C11.6134 23.8332 11.2425 23.9868 10.969 24.2603C10.6955 24.5338 10.5418 24.9047 10.5418 25.2915C10.5418 25.6783 10.6955 26.0492 10.969 26.3227C11.2425 26.5962 11.6134 26.7498 12.0002 26.7498H14.9168C15.3036 26.7498 15.6745 26.5962 15.948 26.3227C16.2215 26.0492 16.3752 25.6783 16.3752 25.2915C16.3752 24.9047 16.2215 24.5338 15.948 24.2603C15.6745 23.9868 15.3036 23.8332 14.9168 23.8332Z" fill="#00008F"/>
</svg>
