<svg width="20" height="16" viewBox="0 0 20 16" fill="none" xmlns="http://www.w3.org/2000/svg">
<path d="M18.9833 6.64169C18.9049 6.545 18.8058 6.46712 18.6933 6.41376C18.5808 6.36041 18.4578 6.33293 18.3333 6.33335H16.6667V5.50002C16.6667 4.83698 16.4033 4.20109 15.9344 3.73225C15.4656 3.26341 14.8297 3.00002 14.1667 3.00002H8.93333L8.66666 2.16669C8.49379 1.67771 8.17312 1.2546 7.74908 0.955986C7.32504 0.657367 6.81863 0.498019 6.29999 0.500019H3.33333C2.67029 0.500019 2.0344 0.763411 1.56556 1.23225C1.09672 1.70109 0.833328 2.33698 0.833328 3.00002V13C0.833328 13.6631 1.09672 14.2989 1.56556 14.7678C2.0344 15.2366 2.67029 15.5 3.33333 15.5H15.3333C15.901 15.4984 16.4512 15.3036 16.8935 14.9476C17.3357 14.5917 17.6437 14.0959 17.7667 13.5417L19.1667 7.35002C19.192 7.22578 19.1887 7.0974 19.1569 6.97466C19.1251 6.85191 19.0658 6.73803 18.9833 6.64169ZM4.47499 13.1834C4.43266 13.3713 4.32649 13.5388 4.17455 13.6574C4.02261 13.7759 3.8343 13.8381 3.64166 13.8334H3.33333C3.11231 13.8334 2.90035 13.7456 2.74407 13.5893C2.58779 13.433 2.49999 13.221 2.49999 13V3.00002C2.49999 2.779 2.58779 2.56704 2.74407 2.41076C2.90035 2.25448 3.11231 2.16669 3.33333 2.16669H6.29999C6.48172 2.1572 6.66155 2.20746 6.81202 2.30978C6.9625 2.4121 7.07535 2.56087 7.13333 2.73335L7.58333 4.10002C7.6368 4.25897 7.73699 4.39809 7.8708 4.49919C8.00461 4.60029 8.16581 4.65867 8.33333 4.66669H14.1667C14.3877 4.66669 14.5996 4.75448 14.7559 4.91076C14.9122 5.06704 15 5.27901 15 5.50002V6.33335H6.66666C6.47403 6.32864 6.28571 6.39084 6.13377 6.50935C5.98184 6.62786 5.87566 6.79537 5.83333 6.98335L4.47499 13.1834ZM16.1417 13.1834C16.0993 13.3713 15.9932 13.5388 15.8412 13.6574C15.6893 13.7759 15.501 13.8381 15.3083 13.8334H6.00833C6.05137 13.7405 6.08218 13.6425 6.1 13.5417L7.33333 8.00002H17.3333L16.1417 13.1834Z" fill="#64748B"/>
</svg>
