<svg width="20" height="16" viewBox="0 0 20 16" fill="none" xmlns="http://www.w3.org/2000/svg">
<path d="M18.9835 6.64169C18.9051 6.545 18.806 6.46712 18.6935 6.41376C18.581 6.36041 18.458 6.33293 18.3335 6.33335H16.6668V5.50002C16.6668 4.83698 16.4034 4.20109 15.9346 3.73225C15.4658 3.26341 14.8299 3.00002 14.1668 3.00002H8.9335L8.66683 2.16669C8.49395 1.67771 8.17329 1.2546 7.74925 0.955986C7.32521 0.657367 6.81879 0.498019 6.30016 0.500019H3.3335C2.67045 0.500019 2.03457 0.763411 1.56573 1.23225C1.09689 1.70109 0.833496 2.33698 0.833496 3.00002V13C0.833496 13.6631 1.09689 14.2989 1.56573 14.7678C2.03457 15.2366 2.67045 15.5 3.3335 15.5H15.3335C15.9012 15.4984 16.4514 15.3036 16.8936 14.9476C17.3359 14.5917 17.6438 14.0959 17.7668 13.5417L19.1668 7.35002C19.1922 7.22578 19.1888 7.0974 19.1571 6.97466C19.1253 6.85191 19.0659 6.73803 18.9835 6.64169ZM4.47516 13.1834C4.43283 13.3713 4.32666 13.5388 4.17472 13.6574C4.02278 13.7759 3.83446 13.8381 3.64183 13.8334H3.3335C3.11248 13.8334 2.90052 13.7456 2.74424 13.5893C2.58796 13.433 2.50016 13.221 2.50016 13V3.00002C2.50016 2.779 2.58796 2.56704 2.74424 2.41076C2.90052 2.25448 3.11248 2.16669 3.3335 2.16669H6.30016C6.48188 2.1572 6.66172 2.20746 6.81219 2.30978C6.96267 2.4121 7.07551 2.56087 7.1335 2.73335L7.5835 4.10002C7.63697 4.25897 7.73716 4.39809 7.87097 4.49919C8.00478 4.60029 8.16598 4.65867 8.3335 4.66669H14.1668C14.3878 4.66669 14.5998 4.75448 14.7561 4.91076C14.9124 5.06704 15.0002 5.27901 15.0002 5.50002V6.33335H6.66683C6.47419 6.32864 6.28588 6.39084 6.13394 6.50935C5.982 6.62786 5.87583 6.79537 5.8335 6.98335L4.47516 13.1834ZM16.1418 13.1834C16.0995 13.3713 15.9933 13.5388 15.8414 13.6574C15.6894 13.7759 15.5011 13.8381 15.3085 13.8334H6.0085C6.05154 13.7405 6.08235 13.6425 6.10016 13.5417L7.3335 8.00002H17.3335L16.1418 13.1834Z" fill="#00008F"/>
</svg>
