<svg width="21" height="22" viewBox="0 0 21 22" fill="none" xmlns="http://www.w3.org/2000/svg">
<path d="M8.68501 2.67391C9.14695 0.771131 11.8531 0.771132 12.315 2.67391C12.6134 3.90308 14.0216 4.4864 15.1018 3.82825C16.7739 2.80942 18.6874 4.72292 17.6686 6.39503C17.0104 7.47519 17.5937 8.88343 18.8229 9.18184C20.7257 9.64377 20.7257 12.3499 18.8229 12.8118C17.5937 13.1102 17.0104 14.5185 17.6686 15.5986C18.6874 17.2707 16.7739 19.1842 15.1018 18.1654C14.0216 17.5073 12.6134 18.0906 12.315 19.3197C11.8531 21.2225 9.14695 21.2225 8.68501 19.3197C8.38661 18.0906 6.97836 17.5073 5.8982 18.1654C4.2261 19.1842 2.31259 17.2707 3.33142 15.5986C3.98957 14.5185 3.40626 13.1102 2.17709 12.8118C0.274305 12.3499 0.274305 9.64377 2.17708 9.18184C3.40626 8.88343 3.98957 7.47519 3.33142 6.39503C2.31259 4.72292 4.2261 2.80941 5.8982 3.82825C6.97836 4.4864 8.38661 3.90308 8.68501 2.67391Z" stroke="white" stroke-linecap="round" stroke-linejoin="round"/>
<path d="M13.75 10.9968C13.75 12.7918 12.2949 14.2468 10.5 14.2468C8.70507 14.2468 7.25 12.7918 7.25 10.9968C7.25 9.2019 8.70507 7.74683 10.5 7.74683C12.2949 7.74683 13.75 9.2019 13.75 10.9968Z" stroke="white" stroke-linecap="round" stroke-linejoin="round"/>
</svg>
