<svg width="31" height="30" viewBox="0 0 31 30" fill="none" xmlns="http://www.w3.org/2000/svg">
<rect x="0.5" width="30" height="30" rx="3" fill="#E5F2E5"/>
<path d="M15.0833 21.6667H10.0833C9.86224 21.6667 9.65028 21.579 9.494 21.4227C9.33772 21.2664 9.24992 21.0544 9.24992 20.8334V9.16675C9.24992 8.94573 9.33772 8.73377 9.494 8.57749C9.65028 8.42121 9.86224 8.33341 10.0833 8.33341H14.2499V10.8334C14.2499 11.4965 14.5133 12.1323 14.9822 12.6012C15.451 13.07 16.0869 13.3334 16.7499 13.3334H19.2499V17.5001C19.2499 17.7211 19.3377 17.9331 19.494 18.0893C19.6503 18.2456 19.8622 18.3334 20.0833 18.3334C20.3043 18.3334 20.5162 18.2456 20.6725 18.0893C20.8288 17.9331 20.9166 17.7211 20.9166 17.5001V12.5001C20.9166 12.5001 20.9166 12.5001 20.9166 12.4501C20.9079 12.3735 20.8911 12.2981 20.8666 12.2251V12.1501C20.8265 12.0644 20.7731 11.9856 20.7083 11.9167L15.7083 6.91675C15.6394 6.85193 15.5606 6.79848 15.4749 6.75841C15.4474 6.75359 15.4192 6.75359 15.3916 6.75841C15.3106 6.71508 15.2235 6.68418 15.1333 6.66675H10.0833C9.42021 6.66675 8.78433 6.93014 8.31549 7.39898C7.84664 7.86782 7.58325 8.50371 7.58325 9.16675V20.8334C7.58325 21.4965 7.84664 22.1323 8.31549 22.6012C8.78433 23.07 9.42021 23.3334 10.0833 23.3334H15.0833C15.3043 23.3334 15.5162 23.2456 15.6725 23.0893C15.8288 22.9331 15.9166 22.7211 15.9166 22.5001C15.9166 22.2791 15.8288 22.0671 15.6725 21.9108C15.5162 21.7545 15.3043 21.6667 15.0833 21.6667ZM15.9166 9.50841L18.0749 11.6667H16.7499C16.5289 11.6667 16.3169 11.579 16.1607 11.4227C16.0044 11.2664 15.9166 11.0544 15.9166 10.8334V9.50841ZM11.7499 16.6667H16.7499C16.9709 16.6667 17.1829 16.579 17.3392 16.4227C17.4955 16.2664 17.5833 16.0544 17.5833 15.8334C17.5833 15.6124 17.4955 15.4004 17.3392 15.2442C17.1829 15.0879 16.9709 15.0001 16.7499 15.0001H11.7499C11.5289 15.0001 11.3169 15.0879 11.1607 15.2442C11.0044 15.4004 10.9166 15.6124 10.9166 15.8334C10.9166 16.0544 11.0044 16.2664 11.1607 16.4227C11.3169 16.579 11.5289 16.6667 11.7499 16.6667ZM15.0833 18.3334H11.7499C11.5289 18.3334 11.3169 18.4212 11.1607 18.5775C11.0044 18.7338 10.9166 18.9457 10.9166 19.1667C10.9166 19.3878 11.0044 19.5997 11.1607 19.756C11.3169 19.9123 11.5289 20.0001 11.7499 20.0001H15.0833C15.3043 20.0001 15.5162 19.9123 15.6725 19.756C15.8288 19.5997 15.9166 19.3878 15.9166 19.1667C15.9166 18.9457 15.8288 18.7338 15.6725 18.5775C15.5162 18.4212 15.3043 18.3334 15.0833 18.3334ZM11.7499 13.3334H12.5833C12.8043 13.3334 13.0162 13.2456 13.1725 13.0893C13.3288 12.9331 13.4166 12.7211 13.4166 12.5001C13.4166 12.2791 13.3288 12.0671 13.1725 11.9108C13.0162 11.7545 12.8043 11.6667 12.5833 11.6667H11.7499C11.5289 11.6667 11.3169 11.7545 11.1607 11.9108C11.0044 12.0671 10.9166 12.2791 10.9166 12.5001C10.9166 12.7211 11.0044 12.9331 11.1607 13.0893C11.3169 13.2456 11.5289 13.3334 11.7499 13.3334ZM23.1749 18.5751C23.0974 18.497 23.0053 18.435 22.9037 18.3927C22.8022 18.3504 22.6933 18.3286 22.5833 18.3286C22.4732 18.3286 22.3643 18.3504 22.2628 18.3927C22.1612 18.435 22.0691 18.497 21.9916 18.5751L19.2499 21.3251L18.1749 20.2417C18.0972 20.1641 18.005 20.1024 17.9035 20.0604C17.8019 20.0183 17.6931 19.9967 17.5833 19.9967C17.4734 19.9967 17.3646 20.0183 17.263 20.0604C17.1615 20.1024 17.0693 20.1641 16.9916 20.2417C16.9139 20.3194 16.8523 20.4117 16.8102 20.5132C16.7682 20.6147 16.7465 20.7235 16.7465 20.8334C16.7465 20.9433 16.7682 21.0521 16.8102 21.1536C16.8523 21.2551 16.9139 21.3474 16.9916 21.4251L18.6583 23.0917C18.7357 23.1699 18.8279 23.2319 18.9294 23.2742C19.031 23.3165 19.1399 23.3382 19.2499 23.3382C19.3599 23.3382 19.4689 23.3165 19.5704 23.2742C19.6719 23.2319 19.7641 23.1699 19.8416 23.0917L23.1749 19.7584C23.253 19.6809 23.315 19.5888 23.3573 19.4872C23.3996 19.3857 23.4214 19.2768 23.4214 19.1667C23.4214 19.0567 23.3996 18.9478 23.3573 18.8463C23.315 18.7447 23.253 18.6526 23.1749 18.5751Z" fill="#00B050"/>
</svg>
