<svg width="31" height="30" viewBox="0 0 31 30" fill="none" xmlns="http://www.w3.org/2000/svg">
<rect x="0.5" width="30" height="30" rx="3" fill="#E5F2E5"/>
<path d="M16.3334 18.3333H11.3334C11.1124 18.3333 10.9004 18.4211 10.7442 18.5774C10.5879 18.7337 10.5001 18.9456 10.5001 19.1666C10.5001 19.3877 10.5879 19.5996 10.7442 19.7559C10.9004 19.9122 11.1124 20 11.3334 20H16.3334C16.5544 20 16.7664 19.9122 16.9227 19.7559C17.079 19.5996 17.1668 19.3877 17.1668 19.1666C17.1668 18.9456 17.079 18.7337 16.9227 18.5774C16.7664 18.4211 16.5544 18.3333 16.3334 18.3333ZM13.0001 13.3333H14.6668C14.8878 13.3333 15.0997 13.2455 15.256 13.0892C15.4123 12.933 15.5001 12.721 15.5001 12.5C15.5001 12.279 15.4123 12.067 15.256 11.9107C15.0997 11.7544 14.8878 11.6666 14.6668 11.6666H13.0001C12.7791 11.6666 12.5671 11.7544 12.4108 11.9107C12.2546 12.067 12.1668 12.279 12.1668 12.5C12.1668 12.721 12.2546 12.933 12.4108 13.0892C12.5671 13.2455 12.7791 13.3333 13.0001 13.3333ZM23.0001 15H20.5001V7.49998C20.5007 7.35313 20.4624 7.20875 20.3893 7.08143C20.3161 6.95412 20.2106 6.8484 20.0834 6.77498C19.9567 6.70184 19.813 6.66333 19.6668 6.66333C19.5205 6.66333 19.3768 6.70184 19.2501 6.77498L16.7501 8.20831L14.2501 6.77498C14.1234 6.70184 13.9797 6.66333 13.8334 6.66333C13.6871 6.66333 13.5434 6.70184 13.4168 6.77498L10.9168 8.20831L8.41675 6.77498C8.29007 6.70184 8.14637 6.66333 8.00009 6.66333C7.85381 6.66333 7.7101 6.70184 7.58342 6.77498C7.45625 6.8484 7.35074 6.95412 7.27757 7.08143C7.2044 7.20875 7.16617 7.35313 7.16675 7.49998V20.8333C7.16675 21.4964 7.43015 22.1322 7.89899 22.6011C8.36783 23.0699 9.00371 23.3333 9.66675 23.3333H21.3334C21.9965 23.3333 22.6323 23.0699 23.1012 22.6011C23.57 22.1322 23.8334 21.4964 23.8334 20.8333V15.8333C23.8334 15.6123 23.7456 15.4003 23.5893 15.2441C23.4331 15.0878 23.2211 15 23.0001 15ZM9.66675 21.6666C9.44574 21.6666 9.23378 21.5788 9.0775 21.4226C8.92122 21.2663 8.83342 21.0543 8.83342 20.8333V8.94164L10.5001 9.89164C10.6287 9.95882 10.7717 9.9939 10.9168 9.9939C11.0619 9.9939 11.2048 9.95882 11.3334 9.89164L13.8334 8.45831L16.3334 9.89164C16.462 9.95882 16.605 9.9939 16.7501 9.9939C16.8952 9.9939 17.0381 9.95882 17.1668 9.89164L18.8334 8.94164V20.8333C18.8357 21.1176 18.8864 21.3994 18.9834 21.6666H9.66675ZM22.1668 20.8333C22.1668 21.0543 22.079 21.2663 21.9227 21.4226C21.7664 21.5788 21.5544 21.6666 21.3334 21.6666C21.1124 21.6666 20.9004 21.5788 20.7442 21.4226C20.5879 21.2663 20.5001 21.0543 20.5001 20.8333V16.6666H22.1668V20.8333ZM16.3334 15H11.3334C11.1124 15 10.9004 15.0878 10.7442 15.2441C10.5879 15.4003 10.5001 15.6123 10.5001 15.8333C10.5001 16.0543 10.5879 16.2663 10.7442 16.4226C10.9004 16.5788 11.1124 16.6666 11.3334 16.6666H16.3334C16.5544 16.6666 16.7664 16.5788 16.9227 16.4226C17.079 16.2663 17.1668 16.0543 17.1668 15.8333C17.1668 15.6123 17.079 15.4003 16.9227 15.2441C16.7664 15.0878 16.5544 15 16.3334 15Z" fill="#00B050"/>
</svg>
