<svg width="31" height="30" viewBox="0 0 31 30" fill="none" xmlns="http://www.w3.org/2000/svg">
<rect x="0.5" width="30" height="30" rx="3" fill="#E5F2E5"/>
<path d="M11.3334 10.0001C11.1686 10.0001 11.0075 10.049 10.8705 10.1405C10.7334 10.2321 10.6266 10.3623 10.5635 10.5145C10.5005 10.6668 10.484 10.8344 10.5161 10.996C10.5483 11.1577 10.6276 11.3061 10.7442 11.4227C10.8607 11.5392 11.0092 11.6186 11.1709 11.6507C11.3325 11.6829 11.5001 11.6664 11.6523 11.6033C11.8046 11.5403 11.9348 11.4334 12.0263 11.2964C12.1179 11.1594 12.1668 10.9982 12.1668 10.8334C12.1668 10.6124 12.079 10.4005 11.9227 10.2442C11.7664 10.0879 11.5544 10.0001 11.3334 10.0001ZM23.5918 14.8168L15.6918 6.93343C15.6141 6.84965 15.52 6.78274 15.4153 6.73687C15.3107 6.69099 15.1977 6.66713 15.0834 6.66676H10.0834C9.97376 6.66613 9.86504 6.68715 9.76351 6.72862C9.66198 6.77009 9.56963 6.83119 9.49176 6.90843L7.40843 8.98343C7.33119 9.0613 7.27009 9.15364 7.22862 9.25517C7.18715 9.3567 7.16613 9.46542 7.16676 9.57509V14.5751C7.16983 14.7957 7.25615 15.0071 7.40843 15.1668L15.3168 23.0834C15.4765 23.2357 15.6878 23.322 15.9084 23.3251C16.0181 23.3257 16.1268 23.3047 16.2284 23.2632C16.3299 23.2218 16.4222 23.1607 16.5001 23.0834L23.5918 15.9918C23.669 15.9139 23.7301 15.8215 23.7716 15.72C23.813 15.6185 23.8341 15.5098 23.8334 15.4001C23.8283 15.1824 23.7421 14.9744 23.5918 14.8168ZM15.9084 21.3251L8.83343 14.2418V9.91676L10.4168 8.33343H14.7334L21.8168 15.4084L15.9084 21.3251Z" fill="#00B050"/>
</svg>
