<svg width="26" height="26" viewBox="0 0 26 26" fill="none" xmlns="http://www.w3.org/2000/svg">
<path d="M1.75 13L4.25 10.5M4.25 10.5L13 1.75L21.75 10.5M4.25 10.5V23C4.25 23.6904 4.80964 24.25 5.5 24.25H9.25M21.75 10.5L24.25 13M21.75 10.5V23C21.75 23.6904 21.1904 24.25 20.5 24.25H16.75M9.25 24.25C9.94036 24.25 10.5 23.6904 10.5 23V18C10.5 17.3096 11.0596 16.75 11.75 16.75H14.25C14.9404 16.75 15.5 17.3096 15.5 18V23C15.5 23.6904 16.0596 24.25 16.75 24.25M9.25 24.25H16.75" stroke="#FFC000" stroke-width="2" stroke-linecap="round" stroke-linejoin="round"/>
</svg>
