<svg width="21" height="21" viewBox="0 0 21 21" fill="none" xmlns="http://www.w3.org/2000/svg">
<path d="M1.125 10.5L3.20833 8.41667M3.20833 8.41667L10.5 1.125L17.7917 8.41667M3.20833 8.41667V18.8333C3.20833 19.4086 3.6747 19.875 4.25 19.875H7.375M17.7917 8.41667L19.875 10.5M17.7917 8.41667V18.8333C17.7917 19.4086 17.3253 19.875 16.75 19.875H13.625M7.375 19.875C7.9503 19.875 8.41667 19.4086 8.41667 18.8333V14.6667C8.41667 14.0914 8.88304 13.625 9.45833 13.625H11.5417C12.117 13.625 12.5833 14.0914 12.5833 14.6667V18.8333C12.5833 19.4086 13.0497 19.875 13.625 19.875M7.375 19.875H13.625" stroke="white" stroke-width="2" stroke-linecap="round" stroke-linejoin="round"/>
</svg>
