<svg width="22" height="22" viewBox="0 0 22 22" fill="none" xmlns="http://www.w3.org/2000/svg">
<path d="M11.5 16H10.5C10.2 16 10 16.2 10 16.5C10 16.8 10.2 17 10.5 17H11.5C11.8 17 12 16.8 12 16.5C12 16.2 11.8 16 11.5 16ZM6.5 12H5.5C5.2 12 5 12.2 5 12.5C5 12.8 5.2 13 5.5 13H6.5C6.8 13 7 12.8 7 12.5C7 12.2 6.8 12 6.5 12ZM11.5 12H10.5C10.2 12 10 12.2 10 12.5C10 12.8 10.2 13 10.5 13H11.5C11.8 13 12 12.8 12 12.5C12 12.2 11.8 12 11.5 12ZM6.5 16H5.5C5.2 16 5 16.2 5 16.5C5 16.8 5.2 17 5.5 17H6.5C6.8 17 7 16.8 7 16.5C7 16.2 6.8 16 6.5 16ZM12.5 6.5H11.5V5.5C11.5 5.2 11.3 5 11 5C10.7 5 10.5 5.2 10.5 5.5V6.5H9.5C9.2 6.5 9 6.7 9 7C9 7.3 9.2 7.5 9.5 7.5H10.5V8.5C10.5 8.8 10.7 9 11 9C11.3 9 11.5 8.8 11.5 8.5V7.5H12.5C12.8 7.5 13 7.3 13 7C13 6.7 12.8 6.5 12.5 6.5ZM20.5 6H17V1.5C17 1.2 16.8 1 16.5 1H5.5C5.2 1 5 1.2 5 1.5V6H1.5C1.2 6 1 6.2 1 6.5V20.5C1 20.8 1.2 21 1.5 21H20.5C20.8 21 21 20.8 21 20.5V6.5C21 6.2 20.8 6 20.5 6ZM20 20H2V7H5.5C5.8 7 6 6.8 6 6.5V2H16V6.5C16 6.8 16.2 7 16.5 7H20V20ZM16.5 16H15.5C15.2 16 15 16.2 15 16.5C15 16.8 15.2 17 15.5 17H16.5C16.8 17 17 16.8 17 16.5C17 16.2 16.8 16 16.5 16ZM15.5 12C15.2 12 15 12.2 15 12.5C15 12.8 15.2 13 15.5 13H16.5C16.8 13 17 12.8 17 12.5C17 12.2 16.8 12 16.5 12H15.5Z" fill="#FFC000" stroke="#FFC000" stroke-width="0.8"/>
</svg>
