<svg width="22" height="21" viewBox="0 0 22 21" fill="none" xmlns="http://www.w3.org/2000/svg">
<path d="M11.5 15.5H10.5C10.2 15.5 10 15.7 10 16C10 16.3 10.2 16.5 10.5 16.5H11.5C11.8 16.5 12 16.3 12 16C12 15.7 11.8 15.5 11.5 15.5ZM6.5 11.5H5.5C5.2 11.5 5 11.7 5 12C5 12.3 5.2 12.5 5.5 12.5H6.5C6.8 12.5 7 12.3 7 12C7 11.7 6.8 11.5 6.5 11.5ZM11.5 11.5H10.5C10.2 11.5 10 11.7 10 12C10 12.3 10.2 12.5 10.5 12.5H11.5C11.8 12.5 12 12.3 12 12C12 11.7 11.8 11.5 11.5 11.5ZM6.5 15.5H5.5C5.2 15.5 5 15.7 5 16C5 16.3 5.2 16.5 5.5 16.5H6.5C6.8 16.5 7 16.3 7 16C7 15.7 6.8 15.5 6.5 15.5ZM12.5 6H11.5V5C11.5 4.7 11.3 4.5 11 4.5C10.7 4.5 10.5 4.7 10.5 5V6H9.5C9.2 6 9 6.2 9 6.5C9 6.8 9.2 7 9.5 7H10.5V8C10.5 8.3 10.7 8.5 11 8.5C11.3 8.5 11.5 8.3 11.5 8V7H12.5C12.8 7 13 6.8 13 6.5C13 6.2 12.8 6 12.5 6ZM20.5 5.5H17V1C17 0.7 16.8 0.5 16.5 0.5H5.5C5.2 0.5 5 0.7 5 1V5.5H1.5C1.2 5.5 1 5.7 1 6V20C1 20.3 1.2 20.5 1.5 20.5H20.5C20.8 20.5 21 20.3 21 20V6C21 5.7 20.8 5.5 20.5 5.5ZM20 19.5H2V6.5H5.5C5.8 6.5 6 6.3 6 6V1.5H16V6C16 6.3 16.2 6.5 16.5 6.5H20V19.5ZM16.5 15.5H15.5C15.2 15.5 15 15.7 15 16C15 16.3 15.2 16.5 15.5 16.5H16.5C16.8 16.5 17 16.3 17 16C17 15.7 16.8 15.5 16.5 15.5ZM15.5 11.5C15.2 11.5 15 11.7 15 12C15 12.3 15.2 12.5 15.5 12.5H16.5C16.8 12.5 17 12.3 17 12C17 11.7 16.8 11.5 16.5 11.5H15.5Z" fill="#00008F" stroke="#00008F" stroke-width="0.8"/>
</svg>
