<svg width="35" height="36" viewBox="0 0 35 36" fill="none" xmlns="http://www.w3.org/2000/svg">
<path d="M14.5833 9.25H7.29167C5.68084 9.25 4.375 10.5558 4.375 12.1667V25.2917C4.375 26.9025 5.68084 28.2083 7.29167 28.2083H27.7083C29.3192 28.2083 30.625 26.9025 30.625 25.2917V12.1667C30.625 10.5558 29.3192 9.25 27.7083 9.25H20.4167M14.5833 9.25V7.79167C14.5833 6.18084 15.8892 4.875 17.5 4.875C19.1108 4.875 20.4167 6.18084 20.4167 7.79167V9.25M14.5833 9.25C14.5833 10.8608 15.8892 12.1667 17.5 12.1667C19.1108 12.1667 20.4167 10.8608 20.4167 9.25M13.125 20.9167C14.7358 20.9167 16.0417 19.6108 16.0417 18C16.0417 16.3892 14.7358 15.0833 13.125 15.0833C11.5142 15.0833 10.2083 16.3892 10.2083 18C10.2083 19.6108 11.5142 20.9167 13.125 20.9167ZM13.125 20.9167C15.0299 20.9167 16.6504 22.1341 17.251 23.8333M13.125 20.9167C11.2201 20.9167 9.59947 22.1341 8.99887 23.8333M21.875 16.5417H26.25M21.875 22.375H24.7917" stroke="#CC0000" stroke-width="3" stroke-linecap="round" stroke-linejoin="round"/>
</svg>
