<svg width="20" height="23" viewBox="0 0 20 23" fill="none" xmlns="http://www.w3.org/2000/svg">
<path d="M9.375 20.4968H3.75C3.45163 20.4968 3.16548 20.3783 2.9545 20.1673C2.74353 19.9563 2.625 19.6702 2.625 19.3718V3.62183C2.625 3.32346 2.74353 3.03731 2.9545 2.82633C3.16548 2.61535 3.45163 2.49683 3.75 2.49683H9.375V5.87183C9.375 6.76693 9.73058 7.62538 10.3635 8.25831C10.9964 8.89125 11.8549 9.24683 12.75 9.24683H16.125V11.4968C16.125 11.7952 16.2435 12.0813 16.4545 12.2923C16.6655 12.5033 16.9516 12.6218 17.25 12.6218C17.5484 12.6218 17.8345 12.5033 18.0455 12.2923C18.2565 12.0813 18.375 11.7952 18.375 11.4968V8.12183C18.375 8.12183 18.375 8.12183 18.375 8.05433C18.3633 7.95098 18.3407 7.84916 18.3075 7.75058V7.64933C18.2509 7.53165 18.179 7.42196 18.0938 7.32308L11.3438 0.573076C11.2449 0.487792 11.1352 0.415922 11.0175 0.359326C10.9839 0.354556 10.9498 0.354556 10.9163 0.359326L10.5675 0.246826H3.75C2.85489 0.246826 1.99645 0.602406 1.36351 1.23534C0.730579 1.86828 0.375 2.72672 0.375 3.62183V19.3718C0.375 20.2669 0.730579 21.1254 1.36351 21.7583C1.99645 22.3912 2.85489 22.7468 3.75 22.7468H9.375C9.67337 22.7468 9.95952 22.6283 10.1705 22.4173C10.3815 22.2063 10.5 21.9202 10.5 21.6218C10.5 21.3235 10.3815 21.0373 10.1705 20.8263C9.95952 20.6154 9.67337 20.4968 9.375 20.4968ZM11.625 4.08308L14.5387 6.99683H12.75C12.4516 6.99683 12.1655 6.8783 11.9545 6.66732C11.7435 6.45634 11.625 6.17019 11.625 5.87183V4.08308ZM18.375 14.8718H12.0863L13.5487 13.4206C13.7606 13.2087 13.8796 12.9214 13.8796 12.6218C13.8796 12.3222 13.7606 12.0349 13.5487 11.8231C13.3369 11.6112 13.0496 11.4922 12.75 11.4922C12.4504 11.4922 12.1631 11.6112 11.9513 11.8231L8.57625 15.1981C8.47688 15.3074 8.39697 15.433 8.34 15.5693C8.22748 15.8432 8.22748 16.1504 8.34 16.4243C8.39154 16.5634 8.47207 16.69 8.57625 16.7956L11.9513 20.1706C12.0558 20.276 12.1803 20.3597 12.3174 20.4168C12.4544 20.4739 12.6015 20.5033 12.75 20.5033C12.8985 20.5033 13.0456 20.4739 13.1826 20.4168C13.3197 20.3597 13.4442 20.276 13.5487 20.1706C13.6542 20.066 13.7379 19.9416 13.795 19.8045C13.8521 19.6674 13.8815 19.5203 13.8815 19.3718C13.8815 19.2233 13.8521 19.0763 13.795 18.9392C13.7379 18.8021 13.6542 18.6777 13.5487 18.5731L12.0863 17.1218H18.375C18.6734 17.1218 18.9595 17.0033 19.1705 16.7923C19.3815 16.5813 19.5 16.2952 19.5 15.9968C19.5 15.6985 19.3815 15.4123 19.1705 15.2013C18.9595 14.9904 18.6734 14.8718 18.375 14.8718Z" fill="white"/>
</svg>
