<svg width="5" height="13" viewBox="0 0 5 13" fill="none" xmlns="http://www.w3.org/2000/svg">
<path d="M2.5 2.125L2.5 2.13125M2.5 6.5L2.5 6.50625M2.5 10.875L2.5 10.8813M2.5 2.75C2.15482 2.75 1.875 2.47018 1.875 2.125C1.875 1.77982 2.15482 1.5 2.5 1.5C2.84518 1.5 3.125 1.77982 3.125 2.125C3.125 2.47018 2.84518 2.75 2.5 2.75ZM2.5 7.125C2.15482 7.125 1.875 6.84518 1.875 6.5C1.875 6.15482 2.15482 5.875 2.5 5.875C2.84518 5.875 3.125 6.15482 3.125 6.5C3.125 6.84518 2.84518 7.125 2.5 7.125ZM2.5 11.5C2.15482 11.5 1.875 11.2202 1.875 10.875C1.875 10.5298 2.15482 10.25 2.5 10.25C2.84518 10.25 3.125 10.5298 3.125 10.875C3.125 11.2202 2.84518 11.5 2.5 11.5Z" stroke="#27364B" stroke-width="2" stroke-linecap="round" stroke-linejoin="round"/>
</svg>
