<svg width="19" height="21" viewBox="0 0 19 21" fill="none" xmlns="http://www.w3.org/2000/svg">
<path d="M17.8149 8.07911L17.8149 8.08008C17.9353 9.30794 17.7809 10.5472 17.3628 11.708C16.9447 12.8687 16.2735 13.9219 15.3978 14.791L15.3955 14.7933L9.89551 20.3246L9.89506 20.325C9.84471 20.3758 9.7848 20.4161 9.71879 20.4436C9.65278 20.4711 9.58198 20.4852 9.51048 20.4852C9.43897 20.4852 9.36817 20.4711 9.30217 20.4436C9.23616 20.4161 9.17625 20.3758 9.1259 20.325L9.12478 20.3239L3.60395 14.7926L3.60228 14.791C2.72662 13.9219 2.0554 12.8687 1.63732 11.708C1.21928 10.5473 1.06482 9.30816 1.18514 8.0804C1.30798 6.84367 1.70318 5.64949 2.34235 4.58363C2.98141 3.51796 3.8485 2.60702 4.88137 1.9162C6.08335 1.11898 7.47126 0.646525 8.91001 0.544838C10.3491 0.44313 11.7899 0.715806 13.0923 1.33631C14.3947 1.95682 15.5141 2.90401 16.3417 4.08564C17.1694 5.26728 17.6769 6.6431 17.8149 8.07911ZM9.14651 18.8223L9.50006 19.1759L9.85361 18.8223L14.6452 14.0308C14.6452 14.0308 14.6452 14.0307 14.6453 14.0307C15.4067 13.2698 15.9894 12.3491 16.3512 11.3353C16.713 10.3215 16.8448 9.23999 16.7372 8.16897C16.6291 7.08988 16.2834 6.04811 15.7249 5.11851C15.1663 4.1889 14.4088 3.39454 13.5068 2.79249L13.5059 2.79189C12.3187 2.00329 10.9253 1.58264 9.50006 1.58264C8.07486 1.58264 6.68137 2.00329 5.49423 2.79189L5.49316 2.7926C4.58839 3.39699 3.82922 4.19487 3.27055 5.12856C2.71193 6.06219 2.36772 7.10827 2.26283 8.19118C2.15858 9.25859 2.2921 10.3358 2.6538 11.3455C3.01551 12.3552 3.59645 13.2722 4.35483 14.0307L4.35484 14.0307L9.14651 18.8223ZM7.17361 5.45576C7.86211 4.99572 8.67154 4.75013 9.49959 4.75004C10.6095 4.75266 11.6732 5.19473 12.458 5.97957C13.2429 6.76445 13.685 7.82823 13.6876 8.9382C13.6874 9.76618 13.4418 10.5755 12.9818 11.264C12.5217 11.9526 11.8677 12.4893 11.1025 12.8063C10.3374 13.1232 9.49541 13.2062 8.68312 13.0446C7.87082 12.883 7.12468 12.4842 6.53905 11.8985C5.95342 11.3129 5.5546 10.5668 5.39302 9.75448C5.23145 8.94218 5.31437 8.10022 5.63131 7.33505C5.94826 6.56989 6.48498 5.91589 7.17361 5.45576ZM7.77548 11.5186C8.28595 11.8596 8.88611 12.0417 9.50006 12.0417C10.3233 12.0417 11.1129 11.7147 11.695 11.1325C12.2772 10.5504 12.6042 9.76081 12.6042 8.93754C12.6042 8.32359 12.4222 7.72343 12.0811 7.21296C11.74 6.70248 11.2552 6.30461 10.688 6.06966C10.1208 5.83471 9.49662 5.77324 8.89447 5.89302C8.29232 6.01279 7.73921 6.30843 7.30508 6.74256C6.87096 7.17669 6.57531 7.72979 6.45554 8.33194C6.33576 8.93409 6.39724 9.55824 6.63218 10.1255C6.86713 10.6927 7.265 11.1775 7.77548 11.5186Z" fill="#27364B" stroke="#27364B"/>
</svg>
