<svg width="14" height="18" viewBox="0 0 14 18" fill="none" xmlns="http://www.w3.org/2000/svg">
<path d="M10.6667 6.49984V6.99984H11.1667C11.6971 6.99984 12.2058 7.21055 12.5809 7.58562C12.956 7.9607 13.1667 8.4694 13.1667 8.99984V14.8332C13.1667 15.3636 12.956 15.8723 12.5809 16.2474C12.2058 16.6225 11.6971 16.8332 11.1667 16.8332H2.83334C2.30291 16.8332 1.7942 16.6225 1.41913 16.2474C1.04406 15.8723 0.833344 15.3636 0.833344 14.8332V8.99984C0.833344 8.4694 1.04406 7.9607 1.41913 7.58562C1.7942 7.21055 2.30291 6.99984 2.83334 6.99984H3.33334V6.49984V4.83317C3.33334 3.86071 3.71965 2.92808 4.40729 2.24045C5.09492 1.55281 6.02755 1.1665 7.00001 1.1665C7.97247 1.1665 8.9051 1.55281 9.59273 2.24045C10.2804 2.92808 10.6667 3.86071 10.6667 4.83317V6.49984ZM9.50001 6.99984H10V6.49984V4.83317C10 4.03752 9.68394 3.27446 9.12133 2.71185C8.55872 2.14924 7.79566 1.83317 7.00001 1.83317C6.20436 1.83317 5.4413 2.14924 4.87869 2.71185C4.31608 3.27446 4.00001 4.03752 4.00001 4.83317V6.49984V6.99984H4.50001H9.50001ZM6.76431 10.4308C6.82682 10.3683 6.91161 10.3332 7.00001 10.3332C7.08841 10.3332 7.1732 10.3683 7.23571 10.4308C7.29822 10.4933 7.33334 10.5781 7.33334 10.6665V13.1665C7.33334 13.2549 7.29822 13.3397 7.23571 13.4022C7.1732 13.4647 7.08842 13.4998 7.00001 13.4998C6.9116 13.4998 6.82682 13.4647 6.76431 13.4022C6.7018 13.3397 6.66668 13.2549 6.66668 13.1665V10.6665C6.66668 10.5781 6.7018 10.4933 6.76431 10.4308ZM12.1095 15.776C12.3595 15.5259 12.5 15.1868 12.5 14.8332V8.99984C12.5 8.64622 12.3595 8.30708 12.1095 8.05703C11.8594 7.80698 11.5203 7.6665 11.1667 7.6665H2.83334C2.47972 7.6665 2.14058 7.80698 1.89053 8.05703C1.64049 8.30708 1.50001 8.64621 1.50001 8.99984V14.8332C1.50001 15.1868 1.64049 15.5259 1.89053 15.776C2.14058 16.026 2.47972 16.1665 2.83334 16.1665H11.1667C11.5203 16.1665 11.8594 16.026 12.1095 15.776Z" fill="#27364B" stroke="#27364B"/>
</svg>
