<svg width="80" height="44" viewBox="0 0 80 44" fill="none" xmlns="http://www.w3.org/2000/svg">
<path d="M0.163269 24.3917C0.163269 23.2317 0.348888 22.2401 0.720473 21.4153C1.09275 20.5903 1.58436 19.9138 2.19583 19.3855C2.80776 18.8575 3.51431 18.471 4.31818 18.2254C5.12177 17.9807 5.94312 17.8584 6.78286 17.8584C7.88543 17.8584 8.98926 18.0655 10.092 18.4769V17.047C10.092 15.9904 9.80423 15.2624 9.22886 14.8628C8.6532 14.4632 7.98177 14.2632 7.21394 14.2632C6.51826 14.2632 5.8047 14.4442 5.07435 14.8046C4.34239 15.1659 3.74839 15.6039 3.29259 16.1191L0.845846 13.2968C1.80585 12.1125 2.84306 11.2615 3.95867 10.7462C5.07435 10.2305 6.2786 9.95996 7.57409 9.9342C8.50984 9.9342 9.41402 10.0752 10.2895 10.3595C11.1651 10.6435 11.9445 11.0813 12.6281 11.6733C13.3116 12.2668 13.863 13.0071 14.2827 13.8964C14.702 14.7855 14.9123 15.8358 14.9123 17.047V29.2621C13.8091 29.7007 12.6518 30.055 11.4409 30.3249C10.2297 30.5957 9.04864 30.7312 7.8979 30.7312C5.25991 30.7312 3.31093 30.1577 2.05194 29.011C0.792846 27.8649 0.163269 26.3243 0.163269 24.3917ZM7.68205 21.8008C6.72279 21.8008 6.0213 22.0274 5.57786 22.478C5.13367 22.9294 4.91195 23.5153 4.91195 24.2369C4.91195 24.9592 5.14603 25.532 5.61275 25.957C6.08137 26.382 6.81845 26.5948 7.8261 26.5948C8.59273 26.5948 9.3014 26.5053 9.94829 26.3243V22.2659C9.66046 22.1364 9.31215 22.0274 8.90545 21.9366C8.4969 21.8471 8.08967 21.8008 7.68205 21.8008Z" fill="#00008F"/>
<path d="M25.2373 9.93445C26.2925 9.93445 27.3054 10.0694 28.2771 10.3404C29.2482 10.6105 30.1119 11.0355 30.8672 11.6157C31.6223 12.1957 32.228 12.9493 32.6838 13.877C33.1394 14.8046 33.3674 15.9258 33.3674 17.2401V30.3444H28.4033V17.4332C28.4033 16.5059 28.1085 15.8294 27.521 15.403C26.9331 14.9788 26.2804 14.7666 25.561 14.7666C24.7934 14.7666 24.1096 14.9468 23.5103 15.3068V30.3444H18.5098V11.6732C19.541 11.1322 20.6322 10.7071 21.7836 10.3974C22.9347 10.0889 24.0859 9.93445 25.2373 9.93445Z" fill="#00008F"/>
<path d="M41.9118 30.3496H36.9109V3.01941H41.9118V17.9017L47.3083 10.3252H53.1362L45.7253 19.9892C46.9 21.6651 48.1478 23.4041 49.4665 25.2076C50.7852 27.0119 52.0203 28.7253 53.1715 30.3496H47.38L42.2358 23.0425L41.9118 23.3523V30.3496Z" fill="#00008F"/>
<path d="M61.1582 30.7358C60.223 30.7358 59.3056 30.5868 58.406 30.2906C57.5068 29.9954 56.7033 29.5504 55.9956 28.9581C55.2882 28.3652 54.7186 27.6242 54.2873 26.7347C53.855 25.8459 53.6399 24.8088 53.6399 23.6229V17.0126C53.6399 15.8019 53.8615 14.7521 54.3049 13.8625C54.7486 12.9733 55.3242 12.2387 56.0318 11.6597C56.7386 11.0797 57.5483 10.648 58.4603 10.3641C59.371 10.0807 60.2951 9.93835 61.2299 9.93835C62.1414 9.93835 63.0289 10.0676 63.8924 10.3252C64.7554 10.5832 65.5232 10.9889 66.1946 11.5429C66.8657 12.0975 67.4058 12.8059 67.8135 13.669C68.2212 14.5327 68.4254 15.5696 68.4254 16.7806V22.6568H58.6763V23.5459C58.6763 24.3186 58.9639 24.9054 59.5394 25.3046C60.1151 25.7044 60.7626 25.9034 61.4819 25.9034C62.0574 25.9034 62.6153 25.7821 63.1551 25.5366C63.6944 25.2919 64.1084 24.9121 64.3962 24.3958L67.6695 26.9477C67.31 27.6692 66.8716 28.2682 66.3565 28.7447C65.8404 29.2222 65.2891 29.609 64.702 29.904C64.1137 30.2013 63.5148 30.4128 62.9026 30.5426C62.2917 30.6718 61.7094 30.7358 61.1582 30.7358ZM63.7126 16.8584C63.7126 16.1622 63.4609 15.6409 62.9573 15.2926C62.453 14.944 61.8895 14.7708 61.2659 14.7708C60.6186 14.7708 60.0253 14.9441 59.4858 15.2926C58.9462 15.6409 58.6763 16.1758 58.6763 16.8972V18.6752H63.7125V16.8584H63.7126Z" fill="#00008F"/>
<path d="M2.91007 42.6034C3.07805 42.6034 3.2409 42.576 3.39962 42.5204C3.55805 42.4653 3.70257 42.385 3.83352 42.2804C3.96332 42.1748 4.06645 42.0466 4.14089 41.896C4.21528 41.7458 4.25253 41.571 4.25253 41.37C4.25253 41.1593 4.20832 40.9868 4.11997 40.852C4.03104 40.7168 3.91704 40.606 3.77695 40.5207C3.63738 40.436 3.48286 40.3687 3.31604 40.3178C3.14714 40.2682 2.98406 40.2281 2.82632 40.1975C2.5278 40.1381 2.22646 40.0652 1.9238 39.98C1.62068 39.8948 1.34746 39.7673 1.10504 39.5968C0.862567 39.4259 0.664816 39.2082 0.510353 38.9421C0.35658 38.6767 0.279781 38.3335 0.279781 37.9124C0.279781 37.5027 0.361239 37.1514 0.524325 36.8604C0.68718 36.57 0.895448 36.3346 1.147 36.1538C1.39919 35.9736 1.68116 35.8411 1.99388 35.7551C2.30585 35.6707 2.61161 35.6276 2.91013 35.6276C3.29212 35.6276 3.67693 35.703 4.06409 35.8533C4.45125 36.0034 4.79329 36.2388 5.09204 36.5599L4.40618 37.4169C4.18326 37.1663 3.93992 36.9911 3.67951 36.8901C3.41784 36.7904 3.16203 36.7404 2.91013 36.7404C2.75142 36.7404 2.58321 36.758 2.40639 36.7929C2.22888 36.8276 2.0632 36.8901 1.9096 36.9809C1.75566 37.0711 1.62994 37.1886 1.53158 37.3339C1.43408 37.4799 1.38476 37.6624 1.38476 37.8827C1.38476 38.1129 1.44104 38.2987 1.55273 38.4387C1.66512 38.5794 1.80262 38.6897 1.96554 38.7696C2.12839 38.8494 2.30585 38.9122 2.49739 38.9572C2.68813 39.0024 2.86311 39.0404 3.022 39.0704C3.30143 39.1302 3.58162 39.2105 3.86128 39.311C4.14095 39.411 4.39078 39.5495 4.60974 39.724C4.82847 39.8998 5.00834 40.1228 5.14792 40.3925C5.28801 40.6639 5.35774 40.9948 5.35774 41.3857C5.35774 41.7757 5.28795 42.1173 5.14792 42.4073C5.00834 42.6983 4.82399 42.9411 4.596 43.1366C4.36709 43.3321 4.10559 43.4776 3.8119 43.5727C3.51832 43.6677 3.21768 43.7156 2.91013 43.7156C2.34097 43.7156 1.80256 43.5946 1.29451 43.3549C0.78565 43.1144 0.354052 42.6928 0 42.0918L0.838939 41.476C1.08187 41.8663 1.39407 42.1521 1.77681 42.3323C2.15903 42.5131 2.53688 42.6034 2.91007 42.6034Z" fill="#FF1721"/>
<path d="M9.37334 41.22C9.37334 41.4604 9.41961 41.6664 9.51268 41.8368C9.60621 42.0068 9.7321 42.1495 9.89076 42.2649C10.0488 42.3804 10.2284 42.4656 10.4289 42.5206C10.6299 42.5761 10.8373 42.6036 11.0515 42.6036C11.3782 42.6036 11.6979 42.5184 12.0101 42.3479C12.3226 42.1773 12.5536 41.9116 12.7029 41.5506L13.6825 42.0014C13.5515 42.2924 13.3903 42.543 13.1992 42.7537C13.0077 42.9637 12.7984 43.1424 12.5696 43.2879C12.3411 43.4329 12.0961 43.5409 11.8353 43.6102C11.5741 43.6809 11.3128 43.7159 11.0514 43.7159C10.6974 43.7159 10.3525 43.663 10.0171 43.5577C9.68106 43.453 9.38185 43.2922 9.1215 43.0767C8.85977 42.8609 8.64759 42.5904 8.48427 42.2649C8.32165 41.9395 8.2395 41.5609 8.2395 41.1298V38.2137C8.2395 37.7826 8.32165 37.4042 8.48427 37.0786C8.64759 36.7531 8.85977 36.4826 9.1215 36.2672C9.38185 36.0514 9.68106 35.8911 10.0171 35.7859C10.3525 35.6806 10.6974 35.6278 11.0514 35.6278C11.3965 35.6278 11.7346 35.6806 12.0659 35.7859C12.3972 35.8911 12.6934 36.0514 12.9547 36.2672C13.2153 36.4826 13.4251 36.7531 13.5838 37.0786C13.7424 37.4042 13.8216 37.7826 13.8216 38.2137V40.2731H9.37328V41.22H9.37334ZM12.7584 38.1535C12.7584 37.9234 12.7072 37.7206 12.6049 37.5449C12.502 37.3694 12.3717 37.2209 12.2128 37.1011C12.0544 36.9811 11.8725 36.8882 11.6672 36.8236C11.462 36.7583 11.2577 36.7251 11.0516 36.7251C10.8187 36.7251 10.5993 36.7583 10.3947 36.8236C10.1889 36.8882 10.0096 36.9811 9.85587 37.1011C9.70164 37.2208 9.58293 37.3719 9.49917 37.5521C9.41519 37.7324 9.37334 37.9434 9.37334 38.1832V39.266H12.7584V38.1535Z" fill="#FF1721"/>
<path d="M20.0196 40.3033L21.4745 35.7783H22.6215L20.0622 43.5653H18.7322L16.172 35.7783H17.333L18.7885 40.3332L19.4037 42.4831H19.4321L20.0196 40.3033Z" fill="#FF1721"/>
<path d="M26.1893 41.22C26.1893 41.4604 26.2358 41.6664 26.3291 41.8368C26.4224 42.0068 26.5481 42.1495 26.7076 42.2649C26.8654 42.3804 27.045 42.4656 27.2455 42.5206C27.4461 42.5761 27.6537 42.6036 27.8679 42.6036C28.1943 42.6036 28.514 42.5184 28.8263 42.3479C29.139 42.1773 29.3697 41.9116 29.5197 41.5506L30.4985 42.0014C30.3679 42.2924 30.2069 42.543 30.0152 42.7537C29.8243 42.9637 29.6139 43.1424 29.3861 43.2879C29.1572 43.4329 28.9129 43.5409 28.6523 43.6102C28.3908 43.6809 28.1288 43.7159 27.8679 43.7159C27.5141 43.7159 27.1688 43.663 26.8333 43.5577C26.4973 43.453 26.1988 43.2922 25.9375 43.0767C25.6762 42.8609 25.4638 42.5904 25.3009 42.2649C25.1374 41.9395 25.0557 41.5609 25.0557 41.1298V38.2137C25.0557 37.7826 25.1374 37.4042 25.3009 37.0786C25.4638 36.7531 25.6762 36.4826 25.9375 36.2672C26.1988 36.0514 26.4973 35.8911 26.8333 35.7859C27.1688 35.6806 27.5141 35.6278 27.8679 35.6278C28.2134 35.6278 28.5513 35.6806 28.8828 35.7859C29.2131 35.8911 29.5094 36.0514 29.7711 36.2672C30.0319 36.4826 30.2418 36.7531 30.4004 37.0786C30.5589 37.4042 30.6383 37.7826 30.6383 38.2137V40.2731H26.1892V41.22H26.1893ZM29.575 38.1535C29.575 37.9234 29.524 37.7206 29.4214 37.5449C29.3181 37.3694 29.1879 37.2209 29.0297 37.1011C28.8705 36.9811 28.689 36.8882 28.4834 36.8236C28.2781 36.7583 28.0734 36.7251 27.8679 36.7251C27.6345 36.7251 27.4156 36.7583 27.211 36.8236C27.0059 36.8882 26.8263 36.9811 26.6717 37.1011C26.5175 37.2208 26.3993 37.3719 26.3154 37.5521C26.2316 37.7324 26.1893 37.9434 26.1893 38.1832V39.266H29.575V38.1535Z" fill="#FF1721"/>
<path d="M39.3955 38.1832V43.5654H38.2904V38.1387C38.2904 37.8982 38.2417 37.6894 38.1435 37.5149C38.0454 37.3388 37.9202 37.1934 37.7662 37.0786C37.6126 36.9637 37.4396 36.8785 37.2478 36.8236C37.0567 36.7682 36.8634 36.7407 36.6675 36.7407C36.3408 36.7407 36.0263 36.7781 35.7231 36.853C35.4204 36.9281 35.1663 37.0066 34.9604 37.0859V43.5653H33.8418V36.274C34.3076 36.1042 34.781 35.9543 35.2617 35.8233C35.7419 35.6931 36.2107 35.6278 36.6674 35.6278C37.0123 35.6381 37.3482 35.6956 37.6753 35.8006C38.0016 35.9066 38.2928 36.0644 38.549 36.274C38.8059 36.4841 39.0113 36.7476 39.1644 37.0637C39.3188 37.3792 39.3955 37.7526 39.3955 38.1832Z" fill="#FF1721"/>
<path d="M45.2999 42.6034C45.4681 42.6034 45.6308 42.576 45.7895 42.5204C45.9482 42.4653 46.0924 42.385 46.2227 42.2804C46.353 42.1748 46.4563 42.0466 46.5315 41.896C46.6057 41.7458 46.6429 41.571 46.6429 41.37C46.6429 41.1593 46.5981 40.9868 46.5096 40.852C46.4211 40.7168 46.3074 40.606 46.1675 40.5207C46.0277 40.436 45.8735 40.3687 45.7052 40.3178C45.538 40.2682 45.3744 40.2281 45.216 40.1975C44.9179 40.1381 44.6165 40.0652 44.313 39.98C44.0105 39.8948 43.7377 39.7673 43.4951 39.5968C43.2527 39.4259 43.0544 39.2082 42.9004 38.9421C42.7469 38.6767 42.6689 38.3335 42.6689 37.9124C42.6689 37.5027 42.7506 37.1514 42.9142 36.8604C43.0775 36.57 43.2851 36.3346 43.5368 36.1538C43.789 35.9736 44.0714 35.8411 44.3837 35.7551C44.696 35.6707 45.0015 35.6276 45.2999 35.6276C45.6819 35.6276 46.0669 35.703 46.4539 35.8533C46.8406 36.0034 47.1835 36.2388 47.4823 36.5599L46.7968 37.4169C46.5735 37.1663 46.3306 36.9911 46.0691 36.8901C45.8081 36.7904 45.5516 36.7404 45.2999 36.7404C45.1407 36.7404 44.9732 36.758 44.7963 36.7929C44.6186 36.8276 44.4534 36.8901 44.2992 36.9809C44.1455 37.0711 44.0198 37.1886 43.9216 37.3339C43.8238 37.4799 43.7745 37.6624 43.7745 37.8827C43.7745 38.1129 43.8312 38.2987 43.9425 38.4387C44.0547 38.5794 44.1924 38.6897 44.3557 38.7696C44.5181 38.8494 44.696 38.9122 44.8871 38.9572C45.0774 39.0024 45.2528 39.0404 45.4115 39.0704C45.6914 39.1302 45.9713 39.2105 46.2508 39.311C46.5314 39.411 46.7805 39.5495 46.9993 39.724C47.2185 39.8998 47.3981 40.1228 47.5381 40.3925C47.6782 40.6639 47.7483 40.9948 47.7483 41.3857C47.7483 41.7757 47.6782 42.1173 47.5381 42.4073C47.398 42.6983 47.214 42.9411 46.9862 43.1366C46.7569 43.3321 46.4963 43.4776 46.2024 43.5727C45.9083 43.6677 45.6075 43.7156 45.2999 43.7156C44.7308 43.7156 44.1924 43.5946 43.6836 43.3549C43.1756 43.1144 42.7443 42.6928 42.3902 42.0918L43.2295 41.476C43.4716 41.8663 43.7839 42.1521 44.1669 42.3323C44.5489 42.5131 44.9268 42.6034 45.2999 42.6034Z" fill="#FF1721"/>
<path d="M53.3299 43.7157C52.9661 43.7157 52.628 43.658 52.3158 43.543C52.003 43.4272 51.735 43.2595 51.5116 43.0387C51.2878 42.8184 51.1119 42.551 50.9868 42.2347C50.8609 41.9192 50.7976 41.5607 50.7976 41.1594V33.8083H51.903V35.7782H53.3865V36.8903H51.903V41.1594C51.903 41.3804 51.9444 41.5932 52.0282 41.7992C52.1124 42.0044 52.2366 42.1804 52.3994 42.3249C52.5624 42.4702 52.7564 42.573 52.9798 42.6331C53.101 42.6734 53.232 42.6929 53.3716 42.6929C53.4925 42.6929 53.6236 42.6777 53.7638 42.6479V43.6851C53.6889 43.6951 53.6167 43.7029 53.5468 43.7077C53.4772 43.7129 53.4047 43.7157 53.3299 43.7157Z" fill="#FF1721"/>
<path d="M57.4991 41.22C57.4991 41.4604 57.5452 41.6664 57.6382 41.8368C57.7315 42.0068 57.8578 42.1495 58.0167 42.2649C58.1752 42.3804 58.3544 42.4656 58.5545 42.5206C58.7555 42.5761 58.9626 42.6036 59.178 42.6036C59.5039 42.6036 59.8234 42.5184 60.1357 42.3479C60.4488 42.1773 60.6794 41.9116 60.8285 41.5506L61.8081 42.0014C61.6773 42.2924 61.5163 42.543 61.3251 42.7537C61.1333 42.9637 60.9239 43.1424 60.6955 43.2879C60.467 43.4329 60.2223 43.5409 59.9612 43.6102C59.6997 43.6809 59.4386 43.7159 59.178 43.7159C58.8233 43.7159 58.4786 43.663 58.1431 43.5577C57.8067 43.453 57.5084 43.2922 57.2474 43.0767C56.9859 42.8609 56.7734 42.5904 56.6104 42.2649C56.4471 41.9395 56.3651 41.5609 56.3651 41.1298V38.2137C56.3651 37.7826 56.4471 37.4042 56.6104 37.0786C56.7734 36.7531 56.9859 36.4826 57.2474 36.2672C57.5084 36.0514 57.8067 35.8911 58.1431 35.7859C58.4786 35.6806 58.8233 35.6278 59.178 35.6278C59.5228 35.6278 59.8607 35.6806 60.1921 35.7859C60.5228 35.8911 60.8188 36.0514 61.0804 36.2672C61.3415 36.4826 61.5513 36.7531 61.7099 37.0786C61.8686 37.4042 61.9478 37.7826 61.9478 38.2137V40.2731H57.4992V41.22H57.4991ZM60.8844 38.1535C60.8844 37.9234 60.8329 37.7206 60.7303 37.5449C60.6276 37.3694 60.4973 37.2209 60.3387 37.1011C60.18 36.9811 59.998 36.8882 59.7936 36.8236C59.5877 36.7583 59.3827 36.7251 59.1779 36.7251C58.9439 36.7251 58.7246 36.7583 58.52 36.8236C58.3148 36.8882 58.1351 36.9811 57.9817 37.1011C57.8271 37.2208 57.7085 37.3719 57.6247 37.5521C57.541 37.7324 57.4991 37.9434 57.4991 38.1832V39.266H60.8844V38.1535Z" fill="#FF1721"/>
<path d="M67.88 36.7704C67.6559 36.7704 67.446 36.8009 67.2507 36.8607C67.0547 36.921 66.8817 37.0137 66.7327 37.1387C66.5834 37.2642 66.4644 37.4173 66.3757 37.5975C66.2876 37.7778 66.2429 37.9885 66.2429 38.2283V43.5654H65.1235V38.2283C65.1235 37.788 65.2044 37.4042 65.3682 37.0787C65.5314 36.7532 65.7438 36.4842 66.0053 36.2742C66.2662 36.0645 66.5577 35.9038 66.8792 35.7937C67.2011 35.6832 67.521 35.6279 67.8379 35.6279C67.94 35.6279 68.0451 35.6334 68.1525 35.6432C68.2594 35.6529 68.3644 35.6682 68.4674 35.6888V36.8155C68.3644 36.7954 68.2669 36.7828 68.1734 36.7782C68.0805 36.773 67.9826 36.7704 67.88 36.7704Z" fill="#FF1721"/>
<path d="M75.1342 7.73234L72.3254 9.8282C72.252 9.88317 72.1557 9.80689 72.1812 9.71541L73.168 6.19804C73.1796 6.15727 73.1663 6.11354 73.1349 6.08803L70.4126 3.86523C70.3414 3.80723 70.3777 3.68517 70.4672 3.6835L73.8848 3.60468C73.9248 3.60345 73.9595 3.57621 73.9725 3.53643L75.0989 0.0681015C75.1282 -0.0227005 75.2478 -0.0227005 75.2771 0.0681015L76.4023 3.53643C76.4158 3.57621 76.4502 3.60345 76.4897 3.60468L79.9076 3.6835C79.997 3.68517 80.0333 3.80717 79.963 3.86523L77.2408 6.08803C77.2094 6.11354 77.1961 6.15727 77.2075 6.19804L78.194 9.71541C78.2195 9.80689 78.1227 9.88311 78.0491 9.8282L75.2415 7.73234C75.2091 7.70838 75.1664 7.70838 75.1342 7.73234Z" fill="#FF1721"/>
</svg>
