<svg width="80" height="44" viewBox="0 0 80 44" fill="none" xmlns="http://www.w3.org/2000/svg">
<path d="M0.163269 24.5339C0.163269 23.3738 0.348888 22.3822 0.720473 21.5574C1.09275 20.7325 1.58436 20.0559 2.19583 19.5276C2.80776 18.9996 3.51431 18.6131 4.31818 18.3675C5.12177 18.1228 5.94312 18.0006 6.78286 18.0006C7.88543 18.0006 8.98926 18.2076 10.092 18.6191V17.1891C10.092 16.1326 9.80423 15.4046 9.22886 15.005C8.6532 14.6053 7.98177 14.4053 7.21394 14.4053C6.51826 14.4053 5.8047 14.5863 5.07435 14.9468C4.34239 15.308 3.74839 15.746 3.29259 16.2612L0.845846 13.4389C1.80585 12.2547 2.84306 11.4037 3.95867 10.8884C5.07435 10.3726 6.2786 10.1021 7.57409 10.0763C8.50984 10.0763 9.41402 10.2174 10.2895 10.5016C11.1651 10.7856 11.9445 11.2234 12.6281 11.8154C13.3116 12.409 13.863 13.1492 14.2827 14.0386C14.702 14.9276 14.9123 15.9779 14.9123 17.1892V29.4042C13.8091 29.8429 12.6518 30.1971 11.4409 30.4671C10.2297 30.7378 9.04864 30.8734 7.8979 30.8734C5.25991 30.8734 3.31093 30.2999 2.05194 29.1531C0.792846 28.007 0.163269 26.4664 0.163269 24.5339ZM7.68205 21.943C6.72279 21.943 6.0213 22.1695 5.57786 22.6202C5.13367 23.0715 4.91195 23.6575 4.91195 24.3791C4.91195 25.1013 5.14603 25.6741 5.61275 26.0991C6.08137 26.5242 6.81845 26.737 7.8261 26.737C8.59273 26.737 9.3014 26.6474 9.94829 26.4664V22.408C9.66046 22.2785 9.31215 22.1695 8.90545 22.0787C8.4969 21.9892 8.08967 21.943 7.68205 21.943Z" fill="white"/>
<path d="M25.2374 10.0766C26.2925 10.0766 27.3055 10.2115 28.2771 10.4825C29.2482 10.7526 30.1119 11.1776 30.8672 11.7578C31.6224 12.3378 32.228 13.0914 32.6838 14.0192C33.1394 14.9467 33.3674 16.068 33.3674 17.3822V30.4865H28.4033V17.5753C28.4033 16.648 28.1085 15.9715 27.521 15.5451C26.9331 15.121 26.2805 14.9087 25.561 14.9087C24.7934 14.9087 24.1096 15.0889 23.5103 15.4489V30.4865H18.5098V11.8153C19.541 11.2743 20.6322 10.8492 21.7837 10.5395C22.9347 10.231 24.0859 10.0766 25.2374 10.0766Z" fill="white"/>
<path d="M41.9118 30.4916H36.9109V3.16148H41.9118V18.0437L47.3083 10.4673H53.1362L45.7253 20.1313C46.9 21.8071 48.1478 23.5462 49.4665 25.3497C50.7852 27.154 52.0203 28.8673 53.1715 30.4916H47.38L42.2358 23.1846L41.9118 23.4944V30.4916Z" fill="white"/>
<path d="M61.1582 30.8779C60.223 30.8779 59.3056 30.7289 58.406 30.4326C57.5068 30.1374 56.7033 29.6924 55.9956 29.1001C55.2882 28.5073 54.7186 27.7663 54.2873 26.8767C53.855 25.988 53.6399 24.9508 53.6399 23.7649V17.1547C53.6399 15.9439 53.8615 14.8941 54.3049 14.0046C54.7486 13.1153 55.3242 12.3808 56.0318 11.8017C56.7386 11.2218 57.5483 10.79 58.4603 10.5062C59.371 10.2227 60.2951 10.0804 61.2299 10.0804C62.1414 10.0804 63.0289 10.2097 63.8924 10.4672C64.7554 10.7252 65.5232 11.1309 66.1946 11.6849C66.8657 12.2395 67.4058 12.9479 67.8135 13.811C68.2212 14.6748 68.4254 15.7116 68.4254 16.9226V22.7988H58.6763V23.6879C58.6763 24.4606 58.9639 25.0474 59.5394 25.4467C60.1151 25.8464 60.7626 26.0454 61.4819 26.0454C62.0574 26.0454 62.6153 25.9242 63.1551 25.6787C63.6944 25.4339 64.1084 25.0541 64.3962 24.5378L67.6695 27.0898C67.31 27.8112 66.8716 28.4103 66.3565 28.8868C65.8404 29.3642 65.2891 29.7511 64.702 30.0461C64.1137 30.3434 63.5148 30.5548 62.9026 30.6846C62.2917 30.8139 61.7094 30.8779 61.1582 30.8779ZM63.7126 17.0004C63.7126 16.3042 63.4609 15.7829 62.9573 15.4346C62.453 15.086 61.8895 14.9128 61.2659 14.9128C60.6186 14.9128 60.0253 15.0861 59.4858 15.4346C58.9462 15.7829 58.6763 16.3179 58.6763 17.0392V18.8172H63.7125V17.0004H63.7126Z" fill="white"/>
<path d="M2.91007 42.7454C3.07805 42.7454 3.2409 42.718 3.39962 42.6624C3.55805 42.6074 3.70257 42.527 3.83352 42.4224C3.96332 42.3169 4.06645 42.1886 4.14089 42.0381C4.21528 41.8878 4.25253 41.7131 4.25253 41.5121C4.25253 41.3014 4.20832 41.1289 4.11997 40.994C4.03104 40.8589 3.91704 40.7481 3.77695 40.6628C3.63738 40.5781 3.48286 40.5108 3.31604 40.4598C3.14714 40.4103 2.98406 40.3701 2.82632 40.3396C2.5278 40.2801 2.22646 40.2072 1.9238 40.1221C1.62068 40.0368 1.34746 39.9093 1.10504 39.7388C0.862567 39.568 0.664816 39.3503 0.510353 39.0842C0.35658 38.8188 0.279781 38.4755 0.279781 38.0544C0.279781 37.6447 0.361239 37.2934 0.524325 37.0024C0.68718 36.712 0.895448 36.4766 1.147 36.2959C1.39919 36.1157 1.68116 35.9832 1.99388 35.8971C2.30585 35.8127 2.61161 35.7696 2.91013 35.7696C3.29212 35.7696 3.67693 35.8451 4.06409 35.9954C4.45125 36.1454 4.79329 36.3808 5.09204 36.7019L4.40618 37.559C4.18326 37.3084 3.93992 37.1331 3.67951 37.0322C3.41784 36.9324 3.16203 36.8824 2.91013 36.8824C2.75142 36.8824 2.58321 36.9001 2.40639 36.9349C2.22888 36.9697 2.0632 37.0322 1.9096 37.1229C1.75566 37.2132 1.62994 37.3307 1.53158 37.476C1.43408 37.6219 1.38476 37.8044 1.38476 38.0248C1.38476 38.255 1.44104 38.4407 1.55273 38.5808C1.66512 38.7215 1.80262 38.8317 1.96554 38.9117C2.12839 38.9915 2.30585 39.0543 2.49739 39.0993C2.68813 39.1444 2.86311 39.1825 3.022 39.2125C3.30143 39.2722 3.58162 39.3526 3.86128 39.453C4.14095 39.553 4.39078 39.6916 4.60974 39.8661C4.82847 40.0419 5.00834 40.2649 5.14792 40.5346C5.28801 40.8059 5.35774 41.1369 5.35774 41.5278C5.35774 41.9178 5.28795 42.2594 5.14792 42.5494C5.00834 42.8404 4.82399 43.0831 4.596 43.2786C4.36709 43.4741 4.10559 43.6197 3.8119 43.7147C3.51832 43.8097 3.21768 43.8577 2.91013 43.8577C2.34097 43.8577 1.80256 43.7367 1.29451 43.4969C0.78565 43.2565 0.354052 42.8349 0 42.2339L0.838939 41.6181C1.08187 42.0083 1.39407 42.2941 1.77681 42.4744C2.15903 42.6552 2.53688 42.7454 2.91007 42.7454Z" fill="#FF1721"/>
<path d="M9.37334 41.3621C9.37334 41.6024 9.41961 41.8084 9.51268 41.9788C9.60621 42.1488 9.7321 42.2916 9.89076 42.4069C10.0488 42.5224 10.2284 42.6076 10.4289 42.6626C10.6299 42.7182 10.8373 42.7457 11.0515 42.7457C11.3782 42.7457 11.6979 42.6605 12.0101 42.4899C12.3226 42.3194 12.5536 42.0537 12.7029 41.6926L13.6825 42.1435C13.5515 42.4345 13.3903 42.685 13.1992 42.8957C13.0077 43.1057 12.7984 43.2844 12.5696 43.43C12.3411 43.575 12.0961 43.683 11.8353 43.7522C11.5741 43.823 11.3128 43.858 11.0514 43.858C10.6974 43.858 10.3525 43.805 10.0171 43.6997C9.68106 43.595 9.38185 43.4343 9.1215 43.2187C8.85977 43.0029 8.64759 42.7324 8.48427 42.4069C8.32165 42.0815 8.2395 41.7029 8.2395 41.2718V38.3557C8.2395 37.9246 8.32165 37.5462 8.48427 37.2206C8.64759 36.8952 8.85977 36.6247 9.1215 36.4092C9.38185 36.1935 9.68106 36.0332 10.0171 35.9279C10.3525 35.8227 10.6974 35.7699 11.0514 35.7699C11.3965 35.7699 11.7346 35.8226 12.0659 35.9279C12.3972 36.0332 12.6934 36.1935 12.9547 36.4092C13.2153 36.6246 13.4251 36.8952 13.5838 37.2206C13.7424 37.5462 13.8216 37.9246 13.8216 38.3557V40.4151H9.37328V41.3621H9.37334ZM12.7584 38.2955C12.7584 38.0654 12.7072 37.8627 12.6049 37.6869C12.502 37.5114 12.3717 37.3629 12.2128 37.2431C12.0544 37.1232 11.8725 37.0302 11.6672 36.9656C11.462 36.9003 11.2577 36.8671 11.0516 36.8671C10.8187 36.8671 10.5993 36.9003 10.3947 36.9656C10.1889 37.0302 10.0096 37.1232 9.85587 37.2431C9.70164 37.3628 9.58293 37.5139 9.49917 37.6941C9.41519 37.8745 9.37334 38.0854 9.37334 38.3252V39.408H12.7584V38.2955Z" fill="#FF1721"/>
<path d="M20.0197 40.4454L21.4745 35.9204H22.6216L20.0623 43.7074H18.7323L16.1721 35.9204H17.333L18.7886 40.4753L19.4038 42.6252H19.4322L20.0197 40.4454Z" fill="#FF1721"/>
<path d="M26.1893 41.3621C26.1893 41.6024 26.2358 41.8084 26.3291 41.9788C26.4224 42.1488 26.5481 42.2916 26.7077 42.4069C26.8654 42.5224 27.0451 42.6076 27.2456 42.6626C27.4461 42.7182 27.6537 42.7457 27.868 42.7457C28.1944 42.7457 28.514 42.6605 28.8263 42.4899C29.139 42.3194 29.3698 42.0537 29.5197 41.6926L30.4985 42.1435C30.3679 42.4345 30.2069 42.685 30.0153 42.8957C29.8243 43.1057 29.614 43.2844 29.3861 43.43C29.1572 43.575 28.9129 43.683 28.6523 43.7522C28.3908 43.823 28.1288 43.858 27.868 43.858C27.5141 43.858 27.1688 43.805 26.8333 43.6997C26.4973 43.595 26.1988 43.4343 25.9375 43.2187C25.6763 43.0029 25.4639 42.7324 25.301 42.4069C25.1374 42.0815 25.0557 41.7029 25.0557 41.2718V38.3557C25.0557 37.9246 25.1374 37.5462 25.301 37.2206C25.4639 36.8952 25.6763 36.6247 25.9375 36.4092C26.1988 36.1935 26.4973 36.0332 26.8333 35.9279C27.1688 35.8227 27.5141 35.7699 27.868 35.7699C28.2135 35.7699 28.5513 35.8226 28.8829 35.9279C29.2132 36.0332 29.5094 36.1935 29.7711 36.4092C30.0319 36.6246 30.2418 36.8952 30.4005 37.2206C30.559 37.5462 30.6383 37.9246 30.6383 38.3557V40.4151H26.1893V41.3621H26.1893ZM29.575 38.2955C29.575 38.0654 29.5241 37.8627 29.4214 37.6869C29.3181 37.5114 29.1879 37.3629 29.0297 37.2431C28.8705 37.1232 28.689 37.0302 28.4834 36.9656C28.2782 36.9003 28.0734 36.8671 27.868 36.8671C27.6346 36.8671 27.4157 36.9003 27.2111 36.9656C27.0059 37.0302 26.8263 37.1232 26.6717 37.2431C26.5176 37.3628 26.3993 37.5139 26.3154 37.6941C26.2316 37.8745 26.1893 38.0854 26.1893 38.3252V39.408H29.575V38.2955Z" fill="#FF1721"/>
<path d="M39.3956 38.3253V43.7074H38.2904V38.2807C38.2904 38.0402 38.2417 37.8314 38.1435 37.6569C38.0454 37.4809 37.9202 37.3354 37.7663 37.2206C37.6127 37.1057 37.4396 37.0206 37.2479 36.9657C37.0568 36.9103 36.8635 36.8827 36.6675 36.8827C36.3408 36.8827 36.0264 36.9201 35.7231 36.995C35.4204 37.0701 35.1664 37.1487 34.9604 37.2279V43.7074H33.8418V36.4161C34.3077 36.2462 34.7811 36.0963 35.2617 35.9654C35.742 35.8351 36.2107 35.7699 36.6674 35.7699C37.0123 35.7801 37.3482 35.8376 37.6753 35.9427C38.0017 36.0487 38.2929 36.2064 38.549 36.4161C38.8059 36.6262 39.0113 36.8896 39.1645 37.2057C39.3188 37.5212 39.3956 37.8947 39.3956 38.3253Z" fill="#FF1721"/>
<path d="M45.2999 42.7454C45.4681 42.7454 45.6308 42.718 45.7895 42.6624C45.9482 42.6074 46.0924 42.527 46.2227 42.4224C46.353 42.3169 46.4563 42.1886 46.5315 42.0381C46.6057 41.8878 46.6429 41.7131 46.6429 41.5121C46.6429 41.3014 46.5981 41.1289 46.5096 40.994C46.4211 40.8589 46.3074 40.7481 46.1675 40.6628C46.0277 40.5781 45.8735 40.5108 45.7052 40.4598C45.538 40.4103 45.3744 40.3701 45.216 40.3396C44.9179 40.2801 44.6165 40.2072 44.313 40.1221C44.0105 40.0368 43.7377 39.9093 43.4951 39.7388C43.2527 39.568 43.0544 39.3503 42.9004 39.0842C42.7469 38.8188 42.6689 38.4755 42.6689 38.0544C42.6689 37.6447 42.7506 37.2934 42.9142 37.0024C43.0775 36.712 43.2851 36.4766 43.5368 36.2959C43.789 36.1157 44.0714 35.9832 44.3837 35.8971C44.696 35.8127 45.0015 35.7696 45.2999 35.7696C45.6819 35.7696 46.0669 35.8451 46.4539 35.9954C46.8406 36.1454 47.1835 36.3808 47.4823 36.7019L46.7968 37.559C46.5735 37.3084 46.3306 37.1331 46.0691 37.0322C45.8081 36.9324 45.5516 36.8824 45.2999 36.8824C45.1407 36.8824 44.9732 36.9001 44.7963 36.9349C44.6186 36.9697 44.4534 37.0322 44.2992 37.1229C44.1455 37.2132 44.0198 37.3307 43.9216 37.476C43.8238 37.6219 43.7745 37.8044 43.7745 38.0248C43.7745 38.255 43.8312 38.4407 43.9425 38.5808C44.0547 38.7215 44.1924 38.8317 44.3557 38.9117C44.5181 38.9915 44.696 39.0543 44.8871 39.0993C45.0774 39.1444 45.2528 39.1825 45.4115 39.2125C45.6914 39.2722 45.9713 39.3526 46.2508 39.453C46.5314 39.553 46.7805 39.6916 46.9993 39.8661C47.2185 40.0419 47.3981 40.2649 47.5381 40.5346C47.6782 40.8059 47.7483 41.1369 47.7483 41.5278C47.7483 41.9178 47.6782 42.2594 47.5381 42.5494C47.398 42.8404 47.214 43.0831 46.9862 43.2786C46.7569 43.4741 46.4963 43.6197 46.2024 43.7147C45.9083 43.8097 45.6075 43.8577 45.2999 43.8577C44.7308 43.8577 44.1924 43.7367 43.6836 43.4969C43.1756 43.2565 42.7443 42.8349 42.3902 42.2339L43.2295 41.6181C43.4716 42.0083 43.7839 42.2941 44.1669 42.4744C44.5489 42.6552 44.9268 42.7454 45.2999 42.7454Z" fill="#FF1721"/>
<path d="M53.3299 43.8578C52.9661 43.8578 52.628 43.8 52.3158 43.6851C52.003 43.5693 51.735 43.4015 51.5116 43.1808C51.2878 42.9605 51.1119 42.693 50.9868 42.3768C50.8609 42.0612 50.7976 41.7027 50.7976 41.3015V33.9504H51.903V35.9203H53.3865V37.0324H51.903V41.3015C51.903 41.5225 51.9444 41.7352 52.0282 41.9412C52.1124 42.1464 52.2366 42.3225 52.3994 42.467C52.5624 42.6122 52.7564 42.715 52.9798 42.7752C53.101 42.8155 53.232 42.835 53.3716 42.835C53.4925 42.835 53.6236 42.8198 53.7638 42.7899V43.8272C53.6889 43.8372 53.6167 43.845 53.5468 43.8497C53.4772 43.855 53.4047 43.8578 53.3299 43.8578Z" fill="#FF1721"/>
<path d="M57.4991 41.3621C57.4991 41.6024 57.5452 41.8084 57.6382 41.9788C57.7315 42.1488 57.8578 42.2916 58.0167 42.4069C58.1752 42.5224 58.3544 42.6076 58.5545 42.6626C58.7555 42.7182 58.9626 42.7457 59.178 42.7457C59.5039 42.7457 59.8234 42.6605 60.1357 42.4899C60.4488 42.3194 60.6794 42.0537 60.8285 41.6926L61.8081 42.1435C61.6773 42.4345 61.5163 42.685 61.3251 42.8957C61.1333 43.1057 60.9239 43.2844 60.6955 43.43C60.467 43.575 60.2223 43.683 59.9612 43.7522C59.6997 43.823 59.4386 43.858 59.178 43.858C58.8233 43.858 58.4786 43.805 58.1431 43.6997C57.8067 43.595 57.5084 43.4343 57.2474 43.2187C56.9859 43.0029 56.7734 42.7324 56.6104 42.4069C56.4471 42.0815 56.3651 41.7029 56.3651 41.2718V38.3557C56.3651 37.9246 56.4471 37.5462 56.6104 37.2206C56.7734 36.8952 56.9859 36.6247 57.2474 36.4092C57.5084 36.1935 57.8067 36.0332 58.1431 35.9279C58.4786 35.8227 58.8233 35.7699 59.178 35.7699C59.5228 35.7699 59.8607 35.8226 60.1921 35.9279C60.5228 36.0332 60.8188 36.1935 61.0804 36.4092C61.3415 36.6246 61.5513 36.8952 61.7099 37.2206C61.8686 37.5462 61.9478 37.9246 61.9478 38.3557V40.4151H57.4992V41.3621H57.4991ZM60.8844 38.2955C60.8844 38.0654 60.8329 37.8627 60.7303 37.6869C60.6276 37.5114 60.4973 37.3629 60.3387 37.2431C60.18 37.1232 59.998 37.0302 59.7936 36.9656C59.5877 36.9003 59.3827 36.8671 59.1779 36.8671C58.9439 36.8671 58.7246 36.9003 58.52 36.9656C58.3148 37.0302 58.1351 37.1232 57.9817 37.2431C57.8271 37.3628 57.7085 37.5139 57.6247 37.6941C57.541 37.8745 57.4991 38.0854 57.4991 38.3252V39.408H60.8844V38.2955Z" fill="#FF1721"/>
<path d="M67.88 36.9124C67.6559 36.9124 67.446 36.943 67.2507 37.0027C67.0547 37.0631 66.8817 37.1558 66.7327 37.2807C66.5834 37.4062 66.4644 37.5593 66.3757 37.7395C66.2876 37.9198 66.2429 38.1305 66.2429 38.3704V43.7074H65.1235V38.3704C65.1235 37.9301 65.2044 37.5462 65.3682 37.2207C65.5314 36.8952 65.7438 36.6263 66.0053 36.4162C66.2662 36.2065 66.5577 36.0458 66.8792 35.9358C67.2011 35.8252 67.521 35.77 67.8379 35.77C67.94 35.77 68.0451 35.7755 68.1525 35.7852C68.2594 35.7949 68.3644 35.8102 68.4674 35.8308V36.9576C68.3644 36.9375 68.2669 36.9248 68.1734 36.9202C68.0805 36.915 67.9826 36.9124 67.88 36.9124Z" fill="#FF1721"/>
<path d="M75.1342 7.87443L72.3254 9.97029C72.252 10.0253 72.1557 9.94898 72.1812 9.8575L73.168 6.34013C73.1796 6.29936 73.1663 6.25563 73.1349 6.23012L70.4126 4.00732C70.3414 3.94932 70.3777 3.82726 70.4672 3.82559L73.8848 3.74677C73.9248 3.74554 73.9595 3.7183 73.9725 3.67852L75.0989 0.210191C75.1282 0.119389 75.2478 0.119389 75.2771 0.210191L76.4023 3.67852C76.4158 3.7183 76.4502 3.74554 76.4897 3.74677L79.9076 3.82559C79.997 3.82726 80.0333 3.94926 79.963 4.00732L77.2408 6.23012C77.2094 6.25563 77.1961 6.29936 77.2075 6.34013L78.194 9.8575C78.2195 9.94898 78.1227 10.0252 78.0491 9.97029L75.2415 7.87443C75.2091 7.85047 75.1664 7.85047 75.1342 7.87443Z" fill="#FF1721"/>
</svg>
