<svg width="21" height="21" viewBox="0 0 21 21" fill="none" xmlns="http://www.w3.org/2000/svg">
<path d="M8.41671 15.7084H9.45837V16.75C9.45837 17.0263 9.56812 17.2913 9.76347 17.4866C9.95882 17.682 10.2238 17.7917 10.5 17.7917C10.7763 17.7917 11.0413 17.682 11.2366 17.4866C11.432 17.2913 11.5417 17.0263 11.5417 16.75V15.7084H12.5834C12.8596 15.7084 13.1246 15.5986 13.3199 15.4033C13.5153 15.2079 13.625 14.943 13.625 14.6667C13.625 14.3904 13.5153 14.1255 13.3199 13.9301C13.1246 13.7348 12.8596 13.625 12.5834 13.625H11.5417V12.5834C11.5417 12.3071 11.432 12.0422 11.2366 11.8468C11.0413 11.6515 10.7763 11.5417 10.5 11.5417C10.2238 11.5417 9.95882 11.6515 9.76347 11.8468C9.56812 12.0422 9.45837 12.3071 9.45837 12.5834V13.625H8.41671C8.14044 13.625 7.87549 13.7348 7.68014 13.9301C7.48479 14.1255 7.37504 14.3904 7.37504 14.6667C7.37504 14.943 7.48479 15.2079 7.68014 15.4033C7.87549 15.5986 8.14044 15.7084 8.41671 15.7084ZM17.7917 4.25004H15.7084V3.20837C15.7084 2.37957 15.3791 1.58472 14.7931 0.998665C14.207 0.412614 13.4122 0.083374 12.5834 0.083374H8.41671C7.58791 0.083374 6.79305 0.412614 6.207 0.998665C5.62095 1.58472 5.29171 2.37957 5.29171 3.20837V4.25004H3.20837C2.37957 4.25004 1.58472 4.57928 0.998665 5.16533C0.412614 5.75138 0.083374 6.54624 0.083374 7.37504V17.7917C0.083374 18.6205 0.412614 19.4154 0.998665 20.0014C1.58472 20.5875 2.37957 20.9167 3.20837 20.9167H17.7917C18.6205 20.9167 19.4154 20.5875 20.0014 20.0014C20.5875 19.4154 20.9167 18.6205 20.9167 17.7917V7.37504C20.9167 6.54624 20.5875 5.75138 20.0014 5.16533C19.4154 4.57928 18.6205 4.25004 17.7917 4.25004ZM7.37504 3.20837C7.37504 2.93211 7.48479 2.66716 7.68014 2.4718C7.87549 2.27645 8.14044 2.16671 8.41671 2.16671H12.5834C12.8596 2.16671 13.1246 2.27645 13.3199 2.4718C13.5153 2.66716 13.625 2.93211 13.625 3.20837V4.25004H7.37504V3.20837ZM18.8334 17.7917C18.8334 18.068 18.7236 18.3329 18.5283 18.5283C18.3329 18.7236 18.068 18.8334 17.7917 18.8334H3.20837C2.93211 18.8334 2.66716 18.7236 2.4718 18.5283C2.27645 18.3329 2.16671 18.068 2.16671 17.7917V10.5H18.8334V17.7917ZM18.8334 8.41671H2.16671V7.37504C2.16671 7.09877 2.27645 6.83382 2.4718 6.63847C2.66716 6.44312 2.93211 6.33337 3.20837 6.33337H17.7917C18.068 6.33337 18.3329 6.44312 18.5283 6.63847C18.7236 6.83382 18.8334 7.09877 18.8334 7.37504V8.41671Z" fill="#64748B"/>
</svg>
