<svg width="21" height="21" viewBox="0 0 21 21" fill="none" xmlns="http://www.w3.org/2000/svg">
<path d="M8.41658 15.7084H9.45825V16.75C9.45825 17.0263 9.568 17.2913 9.76335 17.4866C9.9587 17.682 10.2237 17.7917 10.4999 17.7917C10.7762 17.7917 11.0411 17.682 11.2365 17.4866C11.4318 17.2913 11.5416 17.0263 11.5416 16.75V15.7084H12.5833C12.8595 15.7084 13.1245 15.5986 13.3198 15.4033C13.5152 15.2079 13.6249 14.943 13.6249 14.6667C13.6249 14.3904 13.5152 14.1255 13.3198 13.9301C13.1245 13.7348 12.8595 13.625 12.5833 13.625H11.5416V12.5834C11.5416 12.3071 11.4318 12.0422 11.2365 11.8468C11.0411 11.6515 10.7762 11.5417 10.4999 11.5417C10.2237 11.5417 9.9587 11.6515 9.76335 11.8468C9.568 12.0422 9.45825 12.3071 9.45825 12.5834V13.625H8.41658C8.14032 13.625 7.87537 13.7348 7.68002 13.9301C7.48467 14.1255 7.37492 14.3904 7.37492 14.6667C7.37492 14.943 7.48467 15.2079 7.68002 15.4033C7.87537 15.5986 8.14032 15.7084 8.41658 15.7084ZM17.7916 4.25004H15.7083V3.20837C15.7083 2.37957 15.379 1.58472 14.793 0.998665C14.2069 0.412614 13.4121 0.083374 12.5833 0.083374H8.41658C7.58778 0.083374 6.79293 0.412614 6.20688 0.998665C5.62083 1.58472 5.29158 2.37957 5.29158 3.20837V4.25004H3.20825C2.37945 4.25004 1.58459 4.57928 0.998543 5.16533C0.412492 5.75138 0.083252 6.54624 0.083252 7.37504V17.7917C0.083252 18.6205 0.412492 19.4154 0.998543 20.0014C1.58459 20.5875 2.37945 20.9167 3.20825 20.9167H17.7916C18.6204 20.9167 19.4152 20.5875 20.0013 20.0014C20.5873 19.4154 20.9166 18.6205 20.9166 17.7917V7.37504C20.9166 6.54624 20.5873 5.75138 20.0013 5.16533C19.4152 4.57928 18.6204 4.25004 17.7916 4.25004ZM7.37492 3.20837C7.37492 2.93211 7.48467 2.66716 7.68002 2.4718C7.87537 2.27645 8.14032 2.16671 8.41658 2.16671H12.5833C12.8595 2.16671 13.1245 2.27645 13.3198 2.4718C13.5152 2.66716 13.6249 2.93211 13.6249 3.20837V4.25004H7.37492V3.20837ZM18.8333 17.7917C18.8333 18.068 18.7235 18.3329 18.5282 18.5283C18.3328 18.7236 18.0679 18.8334 17.7916 18.8334H3.20825C2.93198 18.8334 2.66703 18.7236 2.47168 18.5283C2.27633 18.3329 2.16659 18.068 2.16659 17.7917V10.5H18.8333V17.7917ZM18.8333 8.41671H2.16659V7.37504C2.16659 7.09877 2.27633 6.83382 2.47168 6.63847C2.66703 6.44312 2.93198 6.33337 3.20825 6.33337H17.7916C18.0679 6.33337 18.3328 6.44312 18.5282 6.63847C18.7235 6.83382 18.8333 7.09877 18.8333 7.37504V8.41671Z" fill="#00008F"/>
</svg>
