<svg width="20" height="21" viewBox="0 0 20 21" fill="none" xmlns="http://www.w3.org/2000/svg">
<path d="M8 15.5H9V16.5C9 16.7652 9.10536 17.0196 9.29289 17.2071C9.48043 17.3946 9.73478 17.5 10 17.5C10.2652 17.5 10.5196 17.3946 10.7071 17.2071C10.8946 17.0196 11 16.7652 11 16.5V15.5H12C12.2652 15.5 12.5196 15.3946 12.7071 15.2071C12.8946 15.0196 13 14.7652 13 14.5C13 14.2348 12.8946 13.9804 12.7071 13.7929C12.5196 13.6054 12.2652 13.5 12 13.5H11V12.5C11 12.2348 10.8946 11.9804 10.7071 11.7929C10.5196 11.6054 10.2652 11.5 10 11.5C9.73478 11.5 9.48043 11.6054 9.29289 11.7929C9.10536 11.9804 9 12.2348 9 12.5V13.5H8C7.73478 13.5 7.48043 13.6054 7.29289 13.7929C7.10536 13.9804 7 14.2348 7 14.5C7 14.7652 7.10536 15.0196 7.29289 15.2071C7.48043 15.3946 7.73478 15.5 8 15.5ZM17 4.5H15V3.5C15 2.70435 14.6839 1.94129 14.1213 1.37868C13.5587 0.816071 12.7956 0.5 12 0.5H8C7.20435 0.5 6.44129 0.816071 5.87868 1.37868C5.31607 1.94129 5 2.70435 5 3.5V4.5H3C2.20435 4.5 1.44129 4.81607 0.87868 5.37868C0.316071 5.94129 0 6.70435 0 7.5V17.5C0 18.2956 0.316071 19.0587 0.87868 19.6213C1.44129 20.1839 2.20435 20.5 3 20.5H17C17.7956 20.5 18.5587 20.1839 19.1213 19.6213C19.6839 19.0587 20 18.2956 20 17.5V7.5C20 6.70435 19.6839 5.94129 19.1213 5.37868C18.5587 4.81607 17.7956 4.5 17 4.5ZM7 3.5C7 3.23478 7.10536 2.98043 7.29289 2.79289C7.48043 2.60536 7.73478 2.5 8 2.5H12C12.2652 2.5 12.5196 2.60536 12.7071 2.79289C12.8946 2.98043 13 3.23478 13 3.5V4.5H7V3.5ZM18 17.5C18 17.7652 17.8946 18.0196 17.7071 18.2071C17.5196 18.3946 17.2652 18.5 17 18.5H3C2.73478 18.5 2.48043 18.3946 2.29289 18.2071C2.10536 18.0196 2 17.7652 2 17.5V10.5H18V17.5ZM18 8.5H2V7.5C2 7.23478 2.10536 6.98043 2.29289 6.79289C2.48043 6.60536 2.73478 6.5 3 6.5H17C17.2652 6.5 17.5196 6.60536 17.7071 6.79289C17.8946 6.98043 18 7.23478 18 7.5V8.5Z" fill="#2763A5"/>
</svg>
