<svg width="16" height="18" viewBox="0 0 16 18" fill="none" xmlns="http://www.w3.org/2000/svg">
<path d="M14.6593 0.668213C14.5499 0.668151 14.4415 0.689663 14.3404 0.73152C14.2392 0.773376 14.1473 0.834757 14.0699 0.912151C13.9926 0.989546 13.9312 1.08144 13.8893 1.18257C13.8475 1.2837 13.8259 1.39209 13.826 1.50155V2.03215C13.1232 2.90357 12.2349 3.60731 11.2258 4.09215C10.2167 4.57698 9.1122 4.83072 7.99268 4.83488H2.99268C2.32986 4.8356 1.69439 5.09923 1.22571 5.56791C0.757024 6.0366 0.493399 6.67206 0.492676 7.33488V9.00155C0.493399 9.66436 0.757024 10.2998 1.22571 10.7685C1.69439 11.2372 2.32986 11.5008 2.99268 11.5015H3.39583L1.39356 16.1735C1.33915 16.3003 1.31706 16.4385 1.32927 16.5759C1.34148 16.7132 1.38762 16.8454 1.46354 16.9605C1.53945 17.0757 1.64277 17.1702 1.76422 17.2355C1.88566 17.3008 2.02144 17.335 2.15934 17.3349H5.49268C5.6558 17.335 5.81536 17.2871 5.95151 17.1973C6.08767 17.1074 6.19441 16.9795 6.25847 16.8295L8.52826 11.5332C9.55379 11.6085 10.553 11.8932 11.4642 12.3698C12.3754 12.8464 13.1792 13.5047 13.826 14.3041V14.8349C13.826 15.0559 13.9138 15.2679 14.0701 15.4241C14.2264 15.5804 14.4383 15.6682 14.6593 15.6682C14.8804 15.6682 15.0923 15.5804 15.2486 15.4241C15.4049 15.2679 15.4927 15.0559 15.4927 14.8349V1.50155C15.4927 1.39209 15.4712 1.2837 15.4294 1.18257C15.3875 1.08143 15.3261 0.989544 15.2487 0.912149C15.1713 0.834754 15.0795 0.773374 14.9783 0.731517C14.8772 0.689661 14.7688 0.668149 14.6593 0.668213ZM2.99268 9.83488C2.77171 9.83473 2.55983 9.74689 2.40358 9.59064C2.24734 9.43439 2.15949 9.22251 2.15934 9.00155V7.33488C2.15949 7.11391 2.24734 6.90204 2.40359 6.74579C2.55983 6.58954 2.77171 6.5017 2.99268 6.50155H3.82601V9.83488H2.99268ZM4.94336 15.6682H3.42318L5.20866 11.5015H6.72884L4.94336 15.6682ZM13.826 11.9364C12.1829 10.5827 10.1216 9.84011 7.99268 9.83484H5.49268V6.5015H7.99268C10.1216 6.49606 12.1829 5.7533 13.826 4.39955V11.9364Z" fill="#64748B"/>
</svg>
