<svg width="23" height="23" viewBox="0 0 23 23" fill="none" xmlns="http://www.w3.org/2000/svg">
<path d="M10.375 4.61428V19.642C10.375 20.7354 9.48861 21.6218 8.3952 21.6218C7.55851 21.6218 6.81215 21.0959 6.53074 20.3079L4.11603 13.3901M18.25 12.6218C20.114 12.6218 21.625 11.1108 21.625 9.24683C21.625 7.38287 20.114 5.87183 18.25 5.87183M4.11603 13.3901C2.50483 12.7052 1.375 11.1079 1.375 9.24682C1.375 6.76154 3.38971 4.74683 5.87499 4.74683H7.9361C12.5493 4.74683 16.514 3.35847 18.25 1.37183L18.25 17.1218C16.514 15.1352 12.5493 13.7468 7.9361 13.7468L5.87497 13.7468C5.25083 13.7468 4.65636 13.6197 4.11603 13.3901Z" stroke="white" stroke-width="2" stroke-linecap="round" stroke-linejoin="round"/>
</svg>
