<svg width="18" height="18" viewBox="0 0 18 18" fill="none" xmlns="http://www.w3.org/2000/svg">
<path d="M8.15592 3.90182V15.0335C8.15592 15.8434 7.49934 16.5 6.68941 16.5C6.06964 16.5 5.51678 16.1104 5.30833 15.5267L3.51965 10.4024M13.9893 9.83333C15.37 9.83333 16.4893 8.71404 16.4893 7.33333C16.4893 5.95262 15.37 4.83333 13.9893 4.83333M3.51965 10.4024C2.32617 9.89508 1.48926 8.71194 1.48926 7.33333C1.48926 5.49238 2.98164 4 4.82259 4H6.34933C9.76653 4 12.7033 2.97159 13.9893 1.5L13.9893 13.1667C12.7033 11.6951 9.76653 10.6667 6.34933 10.6667L4.82257 10.6667C4.36024 10.6667 3.9199 10.5725 3.51965 10.4024Z" stroke="#FFC000" stroke-width="2" stroke-linecap="round" stroke-linejoin="round"/>
</svg>
