<svg width="18" height="18" viewBox="0 0 18 18" fill="none" xmlns="http://www.w3.org/2000/svg">
<path d="M17.0334 9.8333C16.9132 9.73387 16.7674 9.67022 16.6127 9.64959C16.458 9.62896 16.3006 9.65219 16.1584 9.71663C15.2773 10.1199 14.3192 10.3274 13.3501 10.325C11.5575 10.3228 9.83842 9.612 8.56773 8.34755C7.29703 7.0831 6.57778 5.36755 6.56678 3.57496C6.57058 3.01316 6.64051 2.45375 6.77511 1.9083C6.80368 1.76291 6.79296 1.61254 6.74408 1.47268C6.69519 1.33281 6.60989 1.20851 6.49698 1.11257C6.38407 1.01664 6.24762 0.952545 6.10169 0.926892C5.95577 0.901239 5.80564 0.914956 5.66678 0.96663C4.36038 1.55405 3.22476 2.46393 2.36658 3.61078C1.5084 4.75763 0.955846 6.10382 0.76082 7.52287C0.565795 8.94192 0.734701 10.3873 1.25167 11.7231C1.76864 13.0589 2.61671 14.2414 3.7162 15.1595C4.81569 16.0776 6.13051 16.7011 7.53715 16.9715C8.94379 17.2418 10.3961 17.1502 11.7576 16.7052C13.1191 16.2601 14.3451 15.4763 15.3204 14.4273C16.2958 13.3783 16.9885 12.0985 17.3334 10.7083C17.3755 10.5491 17.3694 10.3811 17.316 10.2254C17.2626 10.0696 17.1643 9.9332 17.0334 9.8333ZM9.11678 15.4083C7.71825 15.3984 6.35695 14.9565 5.21927 14.1431C4.0816 13.3296 3.22317 12.1844 2.76152 10.8642C2.29986 9.54406 2.25756 8.11345 2.6404 6.7683C3.02323 5.42315 3.81249 4.22921 4.90011 3.34996V3.57496C4.90232 5.81537 5.79329 7.96338 7.3775 9.54758C8.9617 11.1318 11.1097 12.0228 13.3501 12.025C13.9383 12.0271 14.5251 11.9657 15.1001 11.8416C14.525 12.9296 13.6638 13.8398 12.6094 14.4743C11.555 15.1087 10.3473 15.4432 9.11678 15.4416V15.4083Z" fill="#00008F"/>
</svg>
