<svg width="14" height="18" viewBox="0 0 14 18" fill="none" xmlns="http://www.w3.org/2000/svg">
<path d="M5.19645 9.95956C4.80592 9.56904 4.17276 9.56904 3.78223 9.95956C3.39171 10.3501 3.39171 10.9832 3.78223 11.3738L5.19645 9.95956ZM6.15601 12.3333L5.4489 13.0404C5.83942 13.431 6.47259 13.431 6.86311 13.0404L6.15601 12.3333ZM10.1964 9.70711C10.587 9.31658 10.587 8.68342 10.1964 8.29289C9.80592 7.90237 9.17276 7.90237 8.78223 8.29289L10.1964 9.70711ZM11.8227 4.83333V14.8333H13.8227V4.83333H11.8227ZM11.156 15.5H2.82267V17.5H11.156V15.5ZM2.15601 14.8333V4.83333H0.156006V14.8333H2.15601ZM2.82267 4.16667H4.48934V2.16667H2.82267V4.16667ZM9.48934 4.16667H11.156V2.16667H9.48934V4.16667ZM2.82267 15.5C2.45448 15.5 2.15601 15.2015 2.15601 14.8333H0.156006C0.156006 16.3061 1.34991 17.5 2.82267 17.5V15.5ZM11.8227 14.8333C11.8227 15.2015 11.5242 15.5 11.156 15.5V17.5C12.6288 17.5 13.8227 16.3061 13.8227 14.8333H11.8227ZM13.8227 4.83333C13.8227 3.36057 12.6288 2.16667 11.156 2.16667V4.16667C11.5242 4.16667 11.8227 4.46514 11.8227 4.83333H13.8227ZM2.15601 4.83333C2.15601 4.46514 2.45448 4.16667 2.82267 4.16667V2.16667C1.34991 2.16667 0.156006 3.36057 0.156006 4.83333H2.15601ZM3.78223 11.3738L5.4489 13.0404L6.86311 11.6262L5.19645 9.95956L3.78223 11.3738ZM6.86311 13.0404L10.1964 9.70711L8.78223 8.29289L5.4489 11.6262L6.86311 13.0404ZM6.15601 2.5H7.82267V0.5H6.15601V2.5ZM7.82267 3.83333H6.15601V5.83333H7.82267V3.83333ZM6.15601 3.83333C5.78782 3.83333 5.48934 3.53486 5.48934 3.16667H3.48934C3.48934 4.63943 4.68325 5.83333 6.15601 5.83333V3.83333ZM8.48934 3.16667C8.48934 3.53486 8.19086 3.83333 7.82267 3.83333V5.83333C9.29543 5.83333 10.4893 4.63943 10.4893 3.16667H8.48934ZM7.82267 2.5C8.19086 2.5 8.48934 2.79848 8.48934 3.16667H10.4893C10.4893 1.69391 9.29543 0.5 7.82267 0.5V2.5ZM6.15601 0.5C4.68325 0.5 3.48934 1.69391 3.48934 3.16667H5.48934C5.48934 2.79848 5.78782 2.5 6.15601 2.5V0.5Z" fill="#178815"/>
</svg>
