<svg width="20" height="20" viewBox="0 0 20 20" fill="none" xmlns="http://www.w3.org/2000/svg">
<path d="M13.3333 11.6667H6.66667C6.44565 11.6667 6.23369 11.7545 6.07741 11.9108C5.92113 12.0671 5.83333 12.2791 5.83333 12.5001C5.83333 12.7211 5.92113 12.9331 6.07741 13.0893C6.23369 13.2456 6.44565 13.3334 6.66667 13.3334H13.3333C13.5543 13.3334 13.7663 13.2456 13.9226 13.0893C14.0789 12.9331 14.1667 12.7211 14.1667 12.5001C14.1667 12.2791 14.0789 12.0671 13.9226 11.9108C13.7663 11.7545 13.5543 11.6667 13.3333 11.6667ZM13.3333 8.33342H8.33333C8.11232 8.33342 7.90036 8.42121 7.74408 8.57749C7.5878 8.73377 7.5 8.94573 7.5 9.16675C7.5 9.38776 7.5878 9.59972 7.74408 9.756C7.90036 9.91228 8.11232 10.0001 8.33333 10.0001H13.3333C13.5543 10.0001 13.7663 9.91228 13.9226 9.756C14.0789 9.59972 14.1667 9.38776 14.1667 9.16675C14.1667 8.94573 14.0789 8.73377 13.9226 8.57749C13.7663 8.42121 13.5543 8.33342 13.3333 8.33342ZM16.6667 3.33341H14.1667V2.50008C14.1667 2.27907 14.0789 2.06711 13.9226 1.91083C13.7663 1.75455 13.5543 1.66675 13.3333 1.66675C13.1123 1.66675 12.9004 1.75455 12.7441 1.91083C12.5878 2.06711 12.5 2.27907 12.5 2.50008V3.33341H10.8333V2.50008C10.8333 2.27907 10.7455 2.06711 10.5893 1.91083C10.433 1.75455 10.221 1.66675 10 1.66675C9.77899 1.66675 9.56702 1.75455 9.41074 1.91083C9.25446 2.06711 9.16667 2.27907 9.16667 2.50008V3.33341H7.5V2.50008C7.5 2.27907 7.4122 2.06711 7.25592 1.91083C7.09964 1.75455 6.88768 1.66675 6.66667 1.66675C6.44565 1.66675 6.23369 1.75455 6.07741 1.91083C5.92113 2.06711 5.83333 2.27907 5.83333 2.50008V3.33341H3.33333C3.11232 3.33341 2.90036 3.42121 2.74408 3.57749C2.5878 3.73377 2.5 3.94573 2.5 4.16675V15.8334C2.5 16.4965 2.76339 17.1323 3.23223 17.6012C3.70107 18.07 4.33696 18.3334 5 18.3334H15C15.663 18.3334 16.2989 18.07 16.7678 17.6012C17.2366 17.1323 17.5 16.4965 17.5 15.8334V4.16675C17.5 3.94573 17.4122 3.73377 17.2559 3.57749C17.0996 3.42121 16.8877 3.33341 16.6667 3.33341ZM15.8333 15.8334C15.8333 16.0544 15.7455 16.2664 15.5893 16.4227C15.433 16.579 15.221 16.6667 15 16.6667H5C4.77899 16.6667 4.56702 16.579 4.41074 16.4227C4.25446 16.2664 4.16667 16.0544 4.16667 15.8334V5.00008H5.83333V5.83342C5.83333 6.05443 5.92113 6.26639 6.07741 6.42267C6.23369 6.57895 6.44565 6.66675 6.66667 6.66675C6.88768 6.66675 7.09964 6.57895 7.25592 6.42267C7.4122 6.26639 7.5 6.05443 7.5 5.83342V5.00008H9.16667V5.83342C9.16667 6.05443 9.25446 6.26639 9.41074 6.42267C9.56702 6.57895 9.77899 6.66675 10 6.66675C10.221 6.66675 10.433 6.57895 10.5893 6.42267C10.7455 6.26639 10.8333 6.05443 10.8333 5.83342V5.00008H12.5V5.83342C12.5 6.05443 12.5878 6.26639 12.7441 6.42267C12.9004 6.57895 13.1123 6.66675 13.3333 6.66675C13.5543 6.66675 13.7663 6.57895 13.9226 6.42267C14.0789 6.26639 14.1667 6.05443 14.1667 5.83342V5.00008H15.8333V15.8334Z" fill="#A832A2"/>
</svg>
