<svg width="19" height="19" viewBox="0 0 19 19" fill="none" xmlns="http://www.w3.org/2000/svg">
<path d="M3.25002 9.49967H1.16669M3.25002 9.49967C3.25002 10.6503 4.18276 11.583 5.33335 11.583C6.48395 11.583 7.41669 10.6503 7.41669 9.49967M3.25002 9.49967C3.25002 8.34908 4.18276 7.41634 5.33335 7.41634C6.48395 7.41634 7.41669 8.34908 7.41669 9.49967M15.75 15.7497C15.75 14.5991 14.8173 13.6663 13.6667 13.6663C12.5161 13.6663 11.5834 14.5991 11.5834 15.7497M15.75 15.7497C15.75 16.9003 14.8173 17.833 13.6667 17.833C12.5161 17.833 11.5834 16.9003 11.5834 15.7497M15.75 15.7497H17.8334M11.5834 15.7497H1.16669M7.41669 9.49967L17.8334 9.49967M15.75 3.24967C15.75 2.09908 14.8173 1.16634 13.6667 1.16634C12.5161 1.16634 11.5834 2.09908 11.5834 3.24967M15.75 3.24967C15.75 4.40027 14.8173 5.33301 13.6667 5.33301C12.5161 5.33301 11.5834 4.40027 11.5834 3.24967M15.75 3.24967H17.8334M11.5834 3.24967H1.16669" stroke="#00008F" stroke-width="1.5" stroke-linecap="round" stroke-linejoin="round"/>
</svg>
