<svg width="18" height="20" viewBox="0 0 18 20" fill="none" xmlns="http://www.w3.org/2000/svg">
<path d="M15.3267 10.4025L9.40418 16.3346C8.62775 17.0246 7.61702 17.3919 6.57874 17.3613C5.54046 17.3308 4.55309 16.9047 3.8186 16.1702C3.08411 15.4357 2.658 14.4483 2.62744 13.41C2.59687 12.3717 2.96416 11.361 3.65418 10.5846L11.3208 2.91792C11.7786 2.48312 12.3858 2.24069 13.0171 2.24069C13.6484 2.24069 14.2556 2.48312 14.7133 2.91792C15.1593 3.36986 15.4093 3.97924 15.4093 4.61417C15.4093 5.24909 15.1593 5.85848 14.7133 6.31042L8.10084 12.9133C8.0354 12.9838 7.95672 13.0407 7.86929 13.0808C7.78186 13.1208 7.68739 13.1433 7.59128 13.1469C7.49517 13.1504 7.39931 13.135 7.30915 13.1015C7.219 13.068 7.13632 13.0171 7.06584 12.9517C6.99537 12.8862 6.93847 12.8075 6.8984 12.7201C6.85834 12.6327 6.83588 12.5382 6.83232 12.4421C6.82876 12.346 6.84417 12.2501 6.87766 12.16C6.91115 12.0698 6.96207 11.9871 7.02751 11.9167L11.9438 7.01C12.1242 6.82954 12.2256 6.58479 12.2256 6.32958C12.2256 6.07438 12.1242 5.82962 11.9438 5.64917C11.7633 5.46871 11.5186 5.36733 11.2633 5.36733C11.0081 5.36733 10.7634 5.46871 10.5829 5.64917L5.66668 10.575C5.42068 10.8191 5.22543 11.1095 5.09219 11.4294C4.95895 11.7493 4.89035 12.0924 4.89035 12.439C4.89035 12.7855 4.95895 13.1286 5.09219 13.4485C5.22543 13.7685 5.42068 14.0588 5.66668 14.3029C6.1692 14.7816 6.83662 15.0486 7.53064 15.0486C8.22465 15.0486 8.89207 14.7816 9.3946 14.3029L15.9975 7.69042C16.7593 6.87291 17.174 5.79164 17.1543 4.67441C17.1346 3.55718 16.682 2.49122 15.8918 1.70109C15.1017 0.910966 14.0357 0.458372 12.9185 0.43866C11.8013 0.418948 10.72 0.833656 9.90251 1.59542L2.23584 9.26208C1.20199 10.4071 0.64983 11.9069 0.694397 13.449C0.738964 14.9911 1.37683 16.4565 2.47508 17.5399C3.57334 18.6234 5.04728 19.2413 6.58983 19.2649C8.13237 19.2885 9.62453 18.716 10.7554 17.6667L16.6875 11.7442C16.7769 11.6548 16.8477 11.5487 16.8961 11.432C16.9445 11.3152 16.9694 11.1901 16.9694 11.0637C16.9694 10.9374 16.9445 10.8123 16.8961 10.6955C16.8477 10.5788 16.7769 10.4727 16.6875 10.3833C16.5982 10.294 16.4921 10.2231 16.3753 10.1747C16.2586 10.1264 16.1335 10.1015 16.0071 10.1015C15.8807 10.1015 15.7556 10.1264 15.6389 10.1747C15.5221 10.2231 15.416 10.294 15.3267 10.3833V10.4025Z" fill="#000040"/>
</svg>
