<svg width="23" height="19" viewBox="0 0 23 19" fill="none" xmlns="http://www.w3.org/2000/svg">
<path d="M22.75 8.30433C22.7383 8.20098 22.7157 8.09916 22.6825 8.00058V7.89933C22.6284 7.78365 22.5563 7.67732 22.4688 7.58433L15.7188 0.834326C15.6258 0.74682 15.5194 0.674668 15.4038 0.620576H15.2913C15.1819 0.56208 15.0643 0.520363 14.9425 0.496826H3.625C2.72989 0.496826 1.87145 0.852406 1.23851 1.48534C0.605579 2.11828 0.25 2.97672 0.25 3.87183V15.1218C0.25 16.0169 0.605579 16.8754 1.23851 17.5083C1.87145 18.1412 2.72989 18.4968 3.625 18.4968H19.375C20.2701 18.4968 21.1286 18.1412 21.7615 17.5083C22.3944 16.8754 22.75 16.0169 22.75 15.1218V8.37183C22.75 8.37183 22.75 8.37183 22.75 8.30433ZM16 4.33308L18.9137 7.24683H17.125C16.8266 7.24683 16.5405 7.1283 16.3295 6.91732C16.1185 6.70634 16 6.42019 16 6.12183V4.33308ZM20.5 15.1218C20.5 15.4202 20.3815 15.7063 20.1705 15.9173C19.9595 16.1283 19.6734 16.2468 19.375 16.2468H3.625C3.32663 16.2468 3.04048 16.1283 2.8295 15.9173C2.61853 15.7063 2.5 15.4202 2.5 15.1218V3.87183C2.5 3.57346 2.61853 3.28731 2.8295 3.07633C3.04048 2.86535 3.32663 2.74683 3.625 2.74683H13.75V6.12183C13.75 7.01693 14.1056 7.87538 14.7385 8.50831C15.3714 9.14125 16.2299 9.49683 17.125 9.49683H20.5V15.1218ZM5.875 9.49683H10.375C10.6734 9.49683 10.9595 9.3783 11.1705 9.16732C11.3815 8.95634 11.5 8.67019 11.5 8.37183C11.5 8.07346 11.3815 7.78731 11.1705 7.57633C10.9595 7.36535 10.6734 7.24683 10.375 7.24683H5.875C5.57663 7.24683 5.29048 7.36535 5.0795 7.57633C4.86853 7.78731 4.75 8.07346 4.75 8.37183C4.75 8.67019 4.86853 8.95634 5.0795 9.16732C5.29048 9.3783 5.57663 9.49683 5.875 9.49683ZM5.875 11.7468C5.57663 11.7468 5.29048 11.8654 5.0795 12.0763C4.86853 12.2873 4.75 12.5735 4.75 12.8718C4.75 13.1702 4.86853 13.4563 5.0795 13.6673C5.29048 13.8783 5.57663 13.9968 5.875 13.9968H17.125C17.4234 13.9968 17.7095 13.8783 17.9205 13.6673C18.1315 13.4563 18.25 13.1702 18.25 12.8718C18.25 12.5735 18.1315 12.2873 17.9205 12.0763C17.7095 11.8654 17.4234 11.7468 17.125 11.7468H5.875Z" fill="white"/>
</svg>
