<svg width="18" height="18" viewBox="0 0 18 18" fill="none" xmlns="http://www.w3.org/2000/svg">
<path d="M4.1875 10.3791C4.00516 10.3791 3.8303 10.4515 3.70137 10.5804C3.57243 10.7094 3.5 10.8842 3.5 11.0666V13.8166C3.5 13.9989 3.57243 14.1738 3.70137 14.3027C3.8303 14.4316 4.00516 14.5041 4.1875 14.5041C4.36984 14.5041 4.54471 14.4316 4.67364 14.3027C4.80257 14.1738 4.875 13.9989 4.875 13.8166V13.5883H5.33288C5.75845 13.5883 6.16659 13.4193 6.46752 13.1183C6.76844 12.8174 6.9375 12.4093 6.9375 11.9837C6.9375 11.5581 6.76844 11.15 6.46752 10.849C6.16659 10.5481 5.75845 10.3791 5.33288 10.3791H4.1875ZM5.33288 12.2133H4.875V11.7541H5.33288C5.39378 11.7541 5.45218 11.7783 5.49525 11.8213C5.53831 11.8644 5.5625 11.9228 5.5625 11.9837C5.5625 12.0446 5.53831 12.103 5.49525 12.1461C5.45218 12.1891 5.39378 12.2133 5.33288 12.2133ZM11.7514 11.0652C11.7517 10.8831 11.8243 10.7086 11.9532 10.5799C12.0821 10.4513 12.2568 10.3791 12.4389 10.3791H13.8111C13.9935 10.3791 14.1683 10.4515 14.2973 10.5804C14.4262 10.7094 14.4986 10.8842 14.4986 11.0666C14.4986 11.2489 14.4262 11.4238 14.2973 11.5527C14.1683 11.6816 13.9935 11.7541 13.8111 11.7541H13.1236V12.2147H13.8111C13.9935 12.2147 14.1683 12.2871 14.2973 12.416C14.4262 12.545 14.4986 12.7198 14.4986 12.9022C14.4986 13.0845 14.4262 13.2594 14.2973 13.3883C14.1683 13.5173 13.9935 13.5897 13.8111 13.5897H13.125V13.8152C13.1252 13.9055 13.1076 13.9949 13.0732 14.0784C13.0388 14.1619 12.9883 14.2378 12.9246 14.3017C12.7959 14.4309 12.6212 14.5037 12.4389 14.5041C12.2565 14.5044 12.0815 14.4323 11.9523 14.3037C11.8231 14.175 11.7504 14.0003 11.75 13.8179V11.0652H11.7514ZM8.30975 10.3791C8.12742 10.3791 7.95255 10.4515 7.82362 10.5804C7.69468 10.7094 7.62225 10.8842 7.62225 11.0666V13.8166C7.62225 13.9989 7.69468 14.1738 7.82362 14.3027C7.95255 14.4316 8.12742 14.5041 8.30975 14.5041H9C9.54701 14.5041 10.0716 14.2868 10.4584 13.9C10.8452 13.5132 11.0625 12.9886 11.0625 12.4416C11.0625 11.8946 10.8452 11.3699 10.4584 10.9832C10.0716 10.5964 9.54701 10.3791 9 10.3791H8.30975ZM8.99725 13.1291V11.7541H9C9.18234 11.7541 9.35721 11.8265 9.48614 11.9554C9.61507 12.0844 9.6875 12.2592 9.6875 12.4416C9.6875 12.6239 9.61507 12.7988 9.48614 12.9277C9.35721 13.0566 9.18234 13.1291 9 13.1291H8.99725ZM2.125 2.81519V7.74044C1.72248 7.88275 1.37405 8.14646 1.12777 8.4952C0.881485 8.84393 0.749493 9.2605 0.750001 9.68744V15.1916C0.750001 15.7386 0.9673 16.2632 1.35409 16.65C1.74089 17.0368 2.26549 17.2541 2.8125 17.2541H15.1875C15.7345 17.2541 16.2591 17.0368 16.6459 16.65C17.0327 16.2632 17.25 15.7386 17.25 15.1916V9.68606C17.2502 9.25936 17.1181 8.8431 16.8718 8.49464C16.6256 8.14617 16.2773 7.88267 15.875 7.74044V5.44419C15.8753 5.17273 15.822 4.90388 15.7182 4.65306C15.6144 4.40225 15.4621 4.17439 15.27 3.98256L12.6355 1.35631C12.2489 0.96991 11.7246 0.752802 11.178 0.752686H4.1875C3.64049 0.752686 3.11589 0.969984 2.72909 1.35678C2.3423 1.74357 2.125 2.26818 2.125 2.81519ZM4.1875 2.12769H10.375V4.18744C10.375 4.73444 10.5923 5.25905 10.9791 5.64584C11.3659 6.03264 11.8905 6.24994 12.4375 6.24994H14.5V7.62356H3.5V2.81519C3.5 2.63285 3.57243 2.45798 3.70137 2.32905C3.8303 2.20012 4.00516 2.12769 4.1875 2.12769ZM11.75 2.41369L14.2168 4.87494H12.4375C12.2552 4.87494 12.0803 4.8025 11.9514 4.67357C11.8224 4.54464 11.75 4.36977 11.75 4.18744V2.41369ZM2.8125 8.99994H15.1875C15.3698 8.99994 15.5447 9.07237 15.6736 9.2013C15.8026 9.33023 15.875 9.5051 15.875 9.68744V15.1916C15.875 15.3739 15.8026 15.5488 15.6736 15.6777C15.5447 15.8066 15.3698 15.8791 15.1875 15.8791H2.8125C2.63017 15.8791 2.4553 15.8066 2.32637 15.6777C2.19743 15.5488 2.125 15.3739 2.125 15.1916V9.68606C2.125 9.50372 2.19743 9.32886 2.32637 9.19993C2.4553 9.07099 2.63017 8.99856 2.8125 8.99856V8.99994Z" fill="#00008F"/>
</svg>
