<svg width="16" height="16" viewBox="0 0 16 16" fill="none" xmlns="http://www.w3.org/2000/svg">
<path d="M3.625 9.25369C3.45924 9.25369 3.30027 9.31954 3.18306 9.43675C3.06585 9.55396 3 9.71293 3 9.87869V12.3787C3 12.5445 3.06585 12.7034 3.18306 12.8206C3.30027 12.9378 3.45924 13.0037 3.625 13.0037C3.79076 13.0037 3.94973 12.9378 4.06694 12.8206C4.18415 12.7034 4.25 12.5445 4.25 12.3787V12.1712H4.66625C5.05314 12.1712 5.42417 12.0175 5.69774 11.7439C5.97131 11.4704 6.125 11.0993 6.125 10.7124C6.125 10.3256 5.97131 9.95452 5.69774 9.68095C5.42417 9.40738 5.05314 9.25369 4.66625 9.25369H3.625ZM4.66625 10.9212H4.25V10.5037H4.66625C4.72162 10.5037 4.77471 10.5257 4.81386 10.5648C4.85301 10.604 4.875 10.6571 4.875 10.7124C4.875 10.7678 4.85301 10.8209 4.81386 10.8601C4.77471 10.8992 4.72162 10.9212 4.66625 10.9212ZM10.5013 9.87744C10.5016 9.7119 10.5676 9.55325 10.6848 9.43631C10.8019 9.31937 10.9607 9.25369 11.1263 9.25369H12.3738C12.5395 9.25369 12.6985 9.31954 12.8157 9.43675C12.9329 9.55396 12.9988 9.71293 12.9988 9.87869C12.9988 10.0445 12.9329 10.2034 12.8157 10.3206C12.6985 10.4378 12.5395 10.5037 12.3738 10.5037H11.7488V10.9224H12.3738C12.5395 10.9224 12.6985 10.9883 12.8157 11.1055C12.9329 11.2227 12.9988 11.3817 12.9988 11.5474C12.9988 11.7132 12.9329 11.8722 12.8157 11.9894C12.6985 12.1066 12.5395 12.1724 12.3738 12.1724H11.75V12.3774C11.7502 12.4595 11.7342 12.5408 11.7029 12.6167C11.6716 12.6926 11.6257 12.7616 11.5678 12.8198C11.4509 12.9372 11.292 13.0034 11.1263 13.0037C10.9605 13.004 10.8014 12.9385 10.6839 12.8215C10.5665 12.7045 10.5003 12.5457 10.5 12.3799V9.87744H10.5013ZM7.3725 9.25369C7.20674 9.25369 7.04777 9.31954 6.93056 9.43675C6.81335 9.55396 6.7475 9.71293 6.7475 9.87869V12.3787C6.7475 12.5445 6.81335 12.7034 6.93056 12.8206C7.04777 12.9378 7.20674 13.0037 7.3725 13.0037H8C8.49728 13.0037 8.9742 12.8061 9.32583 12.4545C9.67746 12.1029 9.875 11.626 9.875 11.1287C9.875 10.6314 9.67746 10.1545 9.32583 9.80287C8.9742 9.45124 8.49728 9.25369 8 9.25369H7.3725ZM7.9975 11.7537V10.5037H8C8.16576 10.5037 8.32473 10.5695 8.44194 10.6868C8.55915 10.804 8.625 10.9629 8.625 11.1287C8.625 11.2945 8.55915 11.4534 8.44194 11.5706C8.32473 11.6878 8.16576 11.7537 8 11.7537H7.9975ZM1.75 2.37744V6.85494C1.38408 6.98431 1.06732 7.22406 0.843425 7.54109C0.619532 7.85812 0.499539 8.23682 0.500001 8.62494V13.6287C0.500001 14.126 0.697545 14.6029 1.04918 14.9545C1.40081 15.3061 1.87772 15.5037 2.375 15.5037H13.625C14.1223 15.5037 14.5992 15.3061 14.9508 14.9545C15.3025 14.6029 15.5 14.126 15.5 13.6287V8.62369C15.5002 8.23578 15.3801 7.85736 15.1562 7.54058C14.9323 7.22379 14.6157 6.98424 14.25 6.85494V4.76744C14.2503 4.52066 14.2018 4.27626 14.1075 4.04824C14.0131 3.82022 13.8746 3.61308 13.7 3.43869L11.305 1.05119C10.9535 0.699918 10.4769 0.502548 9.98 0.502441H3.625C3.12772 0.502441 2.65081 0.699985 2.29918 1.05162C1.94755 1.40325 1.75 1.88016 1.75 2.37744ZM3.625 1.75244H9.25V3.62494C9.25 4.12222 9.44755 4.59914 9.79918 4.95077C10.1508 5.3024 10.6277 5.49994 11.125 5.49994H13V6.74869H3V2.37744C3 2.21168 3.06585 2.05271 3.18306 1.9355C3.30027 1.81829 3.45924 1.75244 3.625 1.75244ZM10.5 2.01244L12.7425 4.24994H11.125C10.9592 4.24994 10.8003 4.18409 10.6831 4.06688C10.5658 3.94967 10.5 3.7907 10.5 3.62494V2.01244ZM2.375 7.99994H13.625C13.7908 7.99994 13.9497 8.06579 14.0669 8.183C14.1842 8.30021 14.25 8.45918 14.25 8.62494V13.6287C14.25 13.7945 14.1842 13.9534 14.0669 14.0706C13.9497 14.1878 13.7908 14.2537 13.625 14.2537H2.375C2.20924 14.2537 2.05027 14.1878 1.93306 14.0706C1.81585 13.9534 1.75 13.7945 1.75 13.6287V8.62369C1.75 8.45793 1.81585 8.29896 1.93306 8.18175C2.05027 8.06454 2.20924 7.99869 2.375 7.99869V7.99994Z" fill="#27364B"/>
</svg>
