<svg width="21" height="22" viewBox="0 0 21 22" fill="none" xmlns="http://www.w3.org/2000/svg">
<path d="M18.25 12.0417C18.0208 12.0417 17.7812 11.9687 17.5521 11.9167C17.088 11.8144 16.6319 11.6786 16.1875 11.5104C15.7042 11.3346 15.1731 11.3437 14.6961 11.536C14.2192 11.7283 13.8303 12.0902 13.6041 12.5521L13.375 13.0208C12.3604 12.4564 11.4281 11.7554 10.6041 10.9375C9.7862 10.1136 9.08521 9.18124 8.52082 8.16666L8.95832 7.87499C9.42016 7.64887 9.78205 7.25992 9.97435 6.78301C10.1667 6.30609 10.1758 5.7749 9.99998 5.29166C9.83459 4.84627 9.69888 4.39041 9.59373 3.92708C9.54165 3.69791 9.49998 3.45833 9.46873 3.21874C9.34224 2.48502 8.95792 1.82056 8.385 1.34504C7.81209 0.869512 7.08821 0.614171 6.34373 0.624995H3.21873C2.76981 0.62078 2.32524 0.713342 1.91531 0.896381C1.50537 1.07942 1.13968 1.34864 0.84314 1.68571C0.546598 2.02277 0.326165 2.41978 0.196845 2.8497C0.0675261 3.27961 0.0323572 3.73235 0.0937329 4.17708C0.648669 8.54102 2.64168 12.5957 5.75795 15.7007C8.87423 18.8056 12.9361 20.7839 17.3021 21.3229H17.6979C18.466 21.324 19.2077 21.0422 19.7812 20.5312C20.1108 20.2365 20.374 19.8752 20.5536 19.4712C20.7332 19.0671 20.8249 18.6296 20.8229 18.1875V15.0625C20.8101 14.3389 20.5467 13.6422 20.0774 13.0913C19.6082 12.5404 18.9623 12.1694 18.25 12.0417ZM18.7708 18.2917C18.7706 18.4396 18.7389 18.5857 18.6779 18.7204C18.6168 18.8551 18.5278 18.9753 18.4166 19.0729C18.3003 19.1734 18.1642 19.2485 18.0171 19.2933C17.87 19.3382 17.7151 19.3518 17.5625 19.3333C13.6613 18.8331 10.0377 17.0484 7.26323 14.2607C4.48873 11.473 2.72124 7.84097 2.23957 3.93749C2.22299 3.78491 2.23752 3.63055 2.28228 3.48374C2.32704 3.33692 2.4011 3.20071 2.49998 3.08333C2.5976 2.97222 2.71775 2.88316 2.85246 2.8221C2.98717 2.76103 3.13333 2.72935 3.28123 2.72916H6.40623C6.64847 2.72377 6.88501 2.80299 7.07513 2.95319C7.26526 3.10339 7.39708 3.31517 7.4479 3.55208C7.48957 3.8368 7.54165 4.11805 7.60415 4.39583C7.72448 4.94494 7.88463 5.48456 8.08332 6.01041L6.62498 6.68749C6.50029 6.7447 6.38813 6.82598 6.29494 6.92666C6.20175 7.02733 6.12936 7.14543 6.08193 7.27416C6.0345 7.40288 6.01297 7.53971 6.01857 7.67679C6.02417 7.81386 6.0568 7.94848 6.11457 8.07291C7.61373 11.2841 10.195 13.8654 13.4062 15.3646C13.6598 15.4688 13.9443 15.4688 14.1979 15.3646C14.3278 15.3181 14.4472 15.2463 14.5491 15.1533C14.651 15.0603 14.7335 14.948 14.7916 14.8229L15.4375 13.3646C15.976 13.5572 16.5256 13.7172 17.0833 13.8437C17.3611 13.9062 17.6423 13.9583 17.9271 14C18.164 14.0508 18.3758 14.1826 18.526 14.3728C18.6761 14.5629 18.7554 14.7994 18.75 15.0417L18.7708 18.2917Z" fill="white"/>
</svg>
