<svg width="25" height="25" viewBox="0 0 25 25" fill="none" xmlns="http://www.w3.org/2000/svg">
<path d="M19.5479 13.93C19.7202 13.9726 19.9645 14.0329 20.1991 14.0409C20.7826 14.1542 21.3109 14.4625 21.6968 14.9156C22.0901 15.3773 22.3113 15.9609 22.323 16.5672L22.323 19.6876L22.323 19.6899C22.3247 20.0613 22.2476 20.4288 22.0967 20.7682C21.946 21.1074 21.725 21.4108 21.4483 21.6583C20.9666 22.0873 20.3438 22.3239 19.6987 22.323H19.698H19.3331C15.089 21.7922 11.1413 19.8659 8.11092 16.8466C5.07338 13.82 3.13072 9.86779 2.5898 5.6141L2.58983 5.61409L2.5891 5.60881C2.53754 5.23524 2.56709 4.85494 2.67571 4.49381C2.78434 4.13268 2.96951 3.7992 3.2186 3.51606C3.4677 3.23292 3.77487 3.00678 4.11922 2.85303C4.46357 2.69928 4.837 2.62152 5.2141 2.62506L5.2141 2.62509H5.21879H8.34379V2.62514L8.35106 2.62503C8.97642 2.61594 9.58448 2.83043 10.0657 3.22987C10.5445 3.62725 10.8665 4.18171 10.9744 4.79427C11.0073 5.04408 11.0511 5.29544 11.1062 5.53798C11.2161 6.02221 11.3579 6.49865 11.5307 6.96416C11.6638 7.33103 11.6566 7.73414 11.5107 8.09611C11.3645 8.45857 11.0895 8.75417 10.7385 8.92602L10.7087 8.94063L10.681 8.95906L10.2435 9.25073L9.85965 9.50664L10.0839 9.90982C10.6706 10.9644 11.3992 11.9334 12.2494 12.7898L12.252 12.7924C13.1084 13.6426 14.0774 14.3712 15.132 14.9579L15.5927 15.2141L15.8242 14.7405L16.0533 14.272C16.0533 14.272 16.0533 14.272 16.0533 14.2719C16.0534 14.2719 16.0534 14.2718 16.0534 14.2718C16.2253 13.9209 16.5208 13.646 16.8832 13.4999C17.2447 13.3541 17.6473 13.3468 18.0138 13.4794C18.4793 13.6554 18.9569 13.7975 19.4429 13.9047C19.4736 13.9117 19.5089 13.9204 19.5479 13.93ZM21.2709 19.7924L21.2709 19.7885L21.2501 16.5451C21.2562 16.1893 21.139 15.8422 20.9184 15.5629C20.6961 15.2815 20.3826 15.0864 20.032 15.0112L20.0159 15.0077L19.9995 15.0054C19.7272 14.9655 19.4585 14.9157 19.1932 14.856C18.6553 14.7339 18.1253 14.5796 17.6059 14.3939L17.1685 14.2374L16.9804 14.6622L16.3367 16.1157C16.3065 16.1793 16.2643 16.2365 16.2122 16.284C16.1592 16.3324 16.0971 16.3697 16.0296 16.3939L16.0187 16.3978L16.008 16.4022C15.8792 16.4551 15.735 16.4563 15.6055 16.4059C12.5066 14.9556 10.0156 12.4625 8.56795 9.36205C8.53802 9.29746 8.52112 9.2276 8.51822 9.15647C8.51531 9.08519 8.5265 9.01404 8.55116 8.9471C8.57583 8.88016 8.61347 8.81875 8.66193 8.7664C8.71039 8.71405 8.76871 8.67178 8.83355 8.64204L8.83355 8.64204L8.8356 8.64109L10.2939 7.96401L10.7153 7.76837L10.5511 7.33378C10.361 6.83062 10.2078 6.31429 10.0926 5.78889L10.0926 5.78889L10.092 5.78616C10.0323 5.52088 9.98254 5.25209 9.94269 4.97977L9.9403 4.96343L9.93684 4.94729C9.86162 4.59667 9.66653 4.28324 9.38514 4.06094C9.10535 3.83991 8.75765 3.72273 8.40127 3.72925L5.28129 3.72925L5.28066 3.72925C5.06177 3.72953 4.84544 3.77642 4.64608 3.8668C4.44671 3.95718 4.26888 4.08897 4.12441 4.25342L4.12433 4.25335L4.11765 4.26128C3.97522 4.43035 3.86854 4.62655 3.80407 4.83801C3.7396 5.04948 3.71867 5.27182 3.74255 5.49159L3.7425 5.4916L3.74339 5.49882C4.23867 9.51251 6.05606 13.2471 8.9089 16.1135C11.7617 18.9799 15.4877 20.815 19.499 21.3294L19.5025 21.3298C19.7243 21.3566 19.9492 21.3368 20.1629 21.2717C20.3766 21.2065 20.5744 21.0975 20.7435 20.9515L20.7435 20.9515L20.7467 20.9486C20.9112 20.8042 21.043 20.6263 21.1333 20.427C21.2237 20.2276 21.2706 20.0113 21.2709 19.7924Z" fill="#27364B" stroke="#27364B"/>
</svg>
