<svg width="25" height="25" viewBox="0 0 25 25" fill="none" xmlns="http://www.w3.org/2000/svg">
<path d="M19.5479 13.9299C19.7202 13.9724 19.9645 14.0328 20.1991 14.0407C20.7826 14.1541 21.3109 14.4623 21.6968 14.9155C22.0901 15.3772 22.3113 15.9608 22.323 16.567L22.323 19.6875L22.323 19.6898C22.3247 20.0612 22.2476 20.4287 22.0967 20.7681C21.946 21.1073 21.725 21.4107 21.4483 21.6582C20.9666 22.0872 20.3438 22.3238 19.6987 22.3229H19.698H19.3331C15.089 21.792 11.1413 19.8658 8.11092 16.8464C5.07338 13.8199 3.13072 9.86767 2.5898 5.61397L2.58983 5.61397L2.5891 5.60869C2.53754 5.23512 2.56709 4.85482 2.67571 4.49369C2.78434 4.13256 2.96951 3.79908 3.2186 3.51594C3.4677 3.2328 3.77487 3.00666 4.11922 2.85291C4.46357 2.69915 4.837 2.6214 5.2141 2.62494L5.2141 2.62496H5.21879H8.34379V2.62502L8.35106 2.62491C8.97642 2.61582 9.58448 2.83031 10.0657 3.22975C10.5445 3.62713 10.8665 4.18159 10.9744 4.79414C11.0073 5.04396 11.0511 5.29532 11.1062 5.53786C11.2161 6.02209 11.3579 6.49853 11.5307 6.96404C11.6638 7.33091 11.6566 7.73402 11.5107 8.09599C11.3645 8.45845 11.0895 8.75405 10.7385 8.9259L10.7087 8.94051L10.681 8.95894L10.2435 9.25061L9.85965 9.50652L10.0839 9.9097C10.6706 10.9643 11.3992 11.9333 12.2494 12.7897L12.252 12.7923C13.1084 13.6425 14.0774 14.3711 15.132 14.9577L15.5927 15.214L15.8242 14.7404L16.0533 14.2719C16.0533 14.2719 16.0533 14.2718 16.0533 14.2718C16.0534 14.2717 16.0534 14.2717 16.0534 14.2717C16.2253 13.9208 16.5208 13.6458 16.8832 13.4997C17.2447 13.354 17.6473 13.3467 18.0138 13.4792C18.4793 13.6552 18.9569 13.7974 19.4429 13.9046C19.4736 13.9116 19.5089 13.9203 19.5479 13.9299ZM21.2709 19.7923L21.2709 19.7884L21.2501 16.5449C21.2562 16.1892 21.139 15.8421 20.9184 15.5628C20.6961 15.2814 20.3826 15.0863 20.032 15.0111L20.0159 15.0076L19.9995 15.0052C19.7272 14.9654 19.4585 14.9156 19.1932 14.8559C18.6553 14.7338 18.1253 14.5795 17.6059 14.3937L17.1685 14.2373L16.9804 14.6621L16.3367 16.1155C16.3065 16.1792 16.2643 16.2364 16.2122 16.2839C16.1592 16.3323 16.0971 16.3696 16.0296 16.3938L16.0187 16.3977L16.008 16.4021C15.8792 16.455 15.735 16.4562 15.6055 16.4057C12.5066 14.9555 10.0156 12.4624 8.56795 9.36193C8.53802 9.29733 8.52112 9.22748 8.51822 9.15635C8.51531 9.08507 8.5265 9.01392 8.55116 8.94698C8.57583 8.88004 8.61347 8.81863 8.66193 8.76628C8.71039 8.71393 8.76871 8.67166 8.83355 8.64191L8.83355 8.64192L8.8356 8.64097L10.2939 7.96389L10.7153 7.76825L10.5511 7.33366C10.361 6.8305 10.2078 6.31417 10.0926 5.78877L10.0926 5.78876L10.092 5.78604C10.0323 5.52075 9.98254 5.25197 9.94269 4.97965L9.9403 4.96331L9.93684 4.94717C9.86162 4.59655 9.66653 4.28312 9.38514 4.06082C9.10535 3.83979 8.75765 3.72261 8.40127 3.72913L5.28129 3.72913L5.28066 3.72913C5.06177 3.72941 4.84544 3.7763 4.64608 3.86667C4.44671 3.95705 4.26888 4.08885 4.12441 4.2533L4.12433 4.25323L4.11765 4.26116C3.97522 4.43023 3.86854 4.62643 3.80407 4.83789C3.7396 5.04936 3.71867 5.27169 3.74255 5.49147L3.7425 5.49148L3.74339 5.4987C4.23867 9.51239 6.05606 13.247 8.9089 16.1134C11.7617 18.9798 15.4877 20.8149 19.499 21.3293L19.5025 21.3297C19.7243 21.3565 19.9492 21.3367 20.1629 21.2716C20.3766 21.2064 20.5744 21.0973 20.7435 20.9513L20.7435 20.9514L20.7467 20.9485C20.9112 20.804 21.043 20.6262 21.1333 20.4268C21.2237 20.2275 21.2706 20.0112 21.2709 19.7923Z" fill="#CC0000" stroke="#CC0000"/>
</svg>
