<svg width="20" height="20" viewBox="0 0 20 20" fill="none" xmlns="http://www.w3.org/2000/svg">
<path d="M16.1476 11.3322C15.9494 11.3241 15.7439 11.2732 15.6094 11.2399C15.5801 11.2326 15.5542 11.2262 15.5325 11.2212C15.5319 11.2211 15.5314 11.221 15.5309 11.2209L16.1476 11.3322ZM16.1476 11.3322C16.5893 11.4197 16.989 11.6539 17.2814 11.9972C17.5808 12.3488 17.7493 12.793 17.7584 13.2546L17.7584 15.75L17.7584 15.7523C17.7597 16.0352 17.701 16.3153 17.5861 16.5738C17.4712 16.8322 17.303 17.0632 17.0923 17.2518C16.7253 17.5787 16.2507 17.759 15.7592 17.7583H15.7584H15.4728C12.1018 17.3353 8.96646 15.8047 6.55937 13.4063C4.14508 11.0008 2.60102 7.85947 2.17109 4.47856L2.17112 4.47856L2.17039 4.47328C2.13111 4.18866 2.15362 3.89891 2.23638 3.62376C2.31915 3.34861 2.46022 3.09453 2.65001 2.8788C2.8398 2.66308 3.07384 2.49078 3.3362 2.37364C3.59856 2.25649 3.88308 2.19725 4.17039 2.19995L4.17039 2.19997H4.17508H6.67508V2.20002L6.68235 2.19992C7.15882 2.19299 7.6221 2.35641 7.98877 2.66074C8.353 2.96306 8.59812 3.38468 8.68072 3.85056C8.70735 4.05236 8.74281 4.2557 8.78748 4.45229L16.1476 11.3322ZM12.5177 12.3099L12.057 12.0536C11.2054 11.5798 10.4228 10.9914 9.73116 10.3048L9.72858 10.3022C9.04198 9.61061 8.45357 8.82802 7.97981 7.97637L7.75553 7.57319L8.1394 7.31728L8.4894 7.08395L8.51704 7.06552L8.54688 7.05091C8.80551 6.92428 9.00817 6.70647 9.11586 6.4394C9.22336 6.1728 9.22864 5.87591 9.13073 5.60568C9.13056 5.6052 9.13039 5.60472 9.13021 5.60424L12.5177 12.3099ZM12.5177 12.3099L12.7493 11.8362M12.5177 12.3099L12.7493 11.8362M12.7493 11.8362L12.9325 11.4615L12.7493 11.8362ZM17.1168 15.8339L17.1167 15.8301L17.1001 13.2364C17.1051 12.9292 17.0038 12.6295 16.8132 12.3882C16.6209 12.1449 16.3499 11.9761 16.0466 11.9111L16.0305 11.9076L16.0141 11.9052C15.7988 11.8737 15.5863 11.8344 15.3766 11.7872C14.9503 11.6904 14.5301 11.5681 14.1185 11.4208L13.681 11.2644L13.4929 11.6892L12.9785 12.8507C12.96 12.8895 12.9342 12.9243 12.9024 12.9532C12.8698 12.983 12.8316 13.006 12.79 13.0209L12.7791 13.0247L12.7684 13.0291C12.6901 13.0613 12.6026 13.0624 12.5237 13.0325C10.0673 11.8821 8.09285 9.90545 6.94514 7.4475C6.92673 7.40775 6.91633 7.36477 6.91454 7.321C6.91275 7.27713 6.91964 7.23335 6.93481 7.19215C6.94999 7.15096 6.97316 7.11317 7.00298 7.08095C7.0328 7.04874 7.06869 7.02273 7.10859 7.00442L7.10859 7.00443L7.11064 7.00348L8.27731 6.46181L8.69868 6.26617L8.53448 5.83158C8.3841 5.43359 8.2629 5.02519 8.17183 4.60961L8.17183 4.60961L8.17122 4.60688C8.12403 4.39715 8.08467 4.18461 8.05315 3.96924L8.05076 3.9529L8.04729 3.93676C7.98224 3.63352 7.81351 3.36244 7.57015 3.17019C7.32842 2.97922 7.02807 2.87789 6.72017 2.8833L4.22508 2.8833L4.22445 2.88331C4.03514 2.88355 3.84805 2.9241 3.67562 3.00226C3.5032 3.08043 3.3494 3.19441 3.22445 3.33664L3.22437 3.33657L3.21769 3.3445C3.09503 3.4901 3.00317 3.65905 2.94765 3.84115C2.89213 4.02325 2.87411 4.21472 2.89468 4.40398L2.89462 4.40399L2.89551 4.41121C3.29446 7.6442 4.75835 10.6524 7.05629 12.9613C9.35423 15.2701 12.3554 16.7483 15.5865 17.1626L15.59 17.163C15.7813 17.1862 15.9753 17.1691 16.1596 17.1129C16.3438 17.0567 16.5144 16.9627 16.6602 16.8368L16.6602 16.8368L16.6634 16.8339C16.8056 16.709 16.9196 16.5552 16.9978 16.3828C17.076 16.2103 17.1165 16.0233 17.1168 15.8339Z" fill="#CBD4E1" stroke="#2763A5"/>
</svg>
