<svg width="20" height="20" viewBox="0 0 20 20" fill="none" xmlns="http://www.w3.org/2000/svg">
<path d="M10.0001 1.66675C8.35191 1.66675 6.74074 2.15549 5.37033 3.07117C3.99992 3.98685 2.93182 5.28834 2.30109 6.81105C1.67036 8.33377 1.50533 10.0093 1.82687 11.6258C2.14842 13.2423 2.94209 14.7272 4.10753 15.8926C5.27297 17.0581 6.75782 17.8517 8.37433 18.1733C9.99084 18.4948 11.6664 18.3298 13.1891 17.6991C14.7118 17.0683 16.0133 16.0002 16.929 14.6298C17.8447 13.2594 18.3334 11.6483 18.3334 10.0001C18.3334 8.90573 18.1179 7.8221 17.6991 6.81105C17.2803 5.80001 16.6665 4.88135 15.8926 4.10752C15.1188 3.3337 14.2002 2.71987 13.1891 2.30109C12.1781 1.8823 11.0944 1.66675 10.0001 1.66675ZM10.0001 16.6667C8.68154 16.6667 7.39261 16.2758 6.29628 15.5432C5.19996 14.8107 4.34547 13.7695 3.84089 12.5513C3.3363 11.3331 3.20428 9.99269 3.46152 8.69948C3.71875 7.40627 4.35369 6.21839 5.28604 5.28604C6.21839 4.35369 7.40628 3.71875 8.69948 3.46151C9.99269 3.20428 11.3331 3.3363 12.5513 3.84088C13.7695 4.34547 14.8107 5.19995 15.5432 6.29628C16.2758 7.39261 16.6668 8.68154 16.6668 10.0001C16.6668 11.7682 15.9644 13.4639 14.7141 14.7141C13.4639 15.9644 11.7682 16.6667 10.0001 16.6667ZM13.3334 9.16675H10.8334V6.66675C10.8334 6.44573 10.7456 6.23377 10.5893 6.07749C10.4331 5.92121 10.2211 5.83342 10.0001 5.83342C9.77907 5.83342 9.56711 5.92121 9.41083 6.07749C9.25455 6.23377 9.16675 6.44573 9.16675 6.66675V9.16675H6.66675C6.44574 9.16675 6.23378 9.25455 6.0775 9.41083C5.92122 9.56711 5.83342 9.77907 5.83342 10.0001C5.83342 10.2211 5.92122 10.4331 6.0775 10.5893C6.23378 10.7456 6.44574 10.8334 6.66675 10.8334H9.16675V13.3334C9.16675 13.5544 9.25455 13.7664 9.41083 13.9227C9.56711 14.079 9.77907 14.1667 10.0001 14.1667C10.2211 14.1667 10.4331 14.079 10.5893 13.9227C10.7456 13.7664 10.8334 13.5544 10.8334 13.3334V10.8334H13.3334C13.5544 10.8334 13.7664 10.7456 13.9227 10.5893C14.079 10.4331 14.1668 10.2211 14.1668 10.0001C14.1668 9.77907 14.079 9.56711 13.9227 9.41083C13.7664 9.25455 13.5544 9.16675 13.3334 9.16675Z" fill="#00008F"/>
</svg>
