<svg width="18" height="18" viewBox="0 0 18 18" fill="none" xmlns="http://www.w3.org/2000/svg">
<path d="M9.33336 8.16675V8.66675H9.83336H12.3334C12.4218 8.66675 12.5065 8.70187 12.5691 8.76438C12.6316 8.82689 12.6667 8.91168 12.6667 9.00008C12.6667 9.08849 12.6316 9.17327 12.5691 9.23578C12.5065 9.2983 12.4218 9.33342 12.3334 9.33342H9.83336H9.33336V9.83342V12.3334C9.33336 12.4218 9.29824 12.5066 9.23573 12.5691C9.17321 12.6316 9.08843 12.6667 9.00002 12.6667C8.91162 12.6667 8.82683 12.6316 8.76432 12.5691C8.70181 12.5066 8.66669 12.4218 8.66669 12.3334V9.83342V9.33342H8.16669H5.66669C5.57829 9.33342 5.4935 9.2983 5.43099 9.23578C5.36848 9.17327 5.33336 9.08849 5.33336 9.00008C5.33336 8.91168 5.36848 8.82689 5.43099 8.76438C5.4935 8.70187 5.57829 8.66675 5.66669 8.66675H8.16669H8.66669V8.16675V5.66675C8.66669 5.57834 8.70181 5.49356 8.76432 5.43105C8.82683 5.36853 8.91162 5.33342 9.00002 5.33342C9.08843 5.33342 9.17321 5.36853 9.23573 5.43105C9.29824 5.49356 9.33336 5.57834 9.33336 5.66675V8.16675ZM4.64806 2.4869C5.93624 1.62617 7.45074 1.16675 9.00002 1.16675C10.0287 1.16675 11.0473 1.36936 11.9977 1.76303C12.9481 2.15669 13.8116 2.73369 14.539 3.46108C15.2664 4.18847 15.8434 5.05201 16.2371 6.00239C16.6307 6.95278 16.8334 7.97139 16.8334 9.00008C16.8334 10.5494 16.3739 12.0639 15.5132 13.352C14.6525 14.6402 13.4291 15.6443 11.9977 16.2371C10.5664 16.83 8.99133 16.9852 7.47182 16.6829C5.9523 16.3806 4.55653 15.6346 3.46102 14.5391C2.36551 13.4436 1.61946 12.0478 1.31721 10.5283C1.01496 9.00877 1.17008 7.43375 1.76297 6.00239C2.35585 4.57104 3.35987 3.34764 4.64806 2.4869ZM5.01844 14.9589C6.19699 15.7464 7.58259 16.1667 9.00002 16.1667C10.9007 16.1667 12.7236 15.4117 14.0676 14.0677C15.4116 12.7237 16.1667 10.9008 16.1667 9.00008C16.1667 7.58265 15.7464 6.19705 14.9589 5.0185C14.1714 3.83994 13.0521 2.92137 11.7426 2.37894C10.4331 1.83652 8.99207 1.69459 7.60188 1.97112C6.21168 2.24765 4.9347 2.93021 3.93243 3.93248C2.93015 4.93476 2.24759 6.21174 1.97106 7.60193C1.69454 8.99213 1.83646 10.4331 2.37889 11.7426C2.92132 13.0522 3.83988 14.1715 5.01844 14.9589Z" fill="#27364B" stroke="#27364B"/>
</svg>
