<svg width="14" height="14" viewBox="0 0 14 14" fill="none" xmlns="http://www.w3.org/2000/svg">
<path d="M12.8335 6.16671H7.8335V1.16671C7.8335 0.945694 7.7457 0.733732 7.58942 0.577452C7.43314 0.421172 7.22118 0.333374 7.00016 0.333374C6.77915 0.333374 6.56719 0.421172 6.41091 0.577452C6.25463 0.733732 6.16683 0.945694 6.16683 1.16671V6.16671H1.16683C0.945816 6.16671 0.733854 6.2545 0.577574 6.41079C0.421294 6.56707 0.333496 6.77903 0.333496 7.00004C0.333496 7.22105 0.421294 7.43302 0.577574 7.5893C0.733854 7.74558 0.945816 7.83337 1.16683 7.83337H6.16683V12.8334C6.16683 13.0544 6.25463 13.2663 6.41091 13.4226C6.56719 13.5789 6.77915 13.6667 7.00016 13.6667C7.22118 13.6667 7.43314 13.5789 7.58942 13.4226C7.7457 13.2663 7.8335 13.0544 7.8335 12.8334V7.83337H12.8335C13.0545 7.83337 13.2665 7.74558 13.4228 7.5893C13.579 7.43302 13.6668 7.22105 13.6668 7.00004C13.6668 6.77903 13.579 6.56707 13.4228 6.41079C13.2665 6.2545 13.0545 6.16671 12.8335 6.16671Z" fill="white"/>
</svg>
