<svg width="18" height="18" viewBox="0 0 18 18" fill="none" xmlns="http://www.w3.org/2000/svg">
<path d="M13.1667 13.1667H14.8333C15.7538 13.1667 16.5 12.4205 16.5 11.5V8.16667C16.5 7.24619 15.7538 6.5 14.8333 6.5H3.16667C2.24619 6.5 1.5 7.24619 1.5 8.16667V11.5C1.5 12.4205 2.24619 13.1667 3.16667 13.1667H4.83333M6.5 16.5H11.5C12.4205 16.5 13.1667 15.7538 13.1667 14.8333V11.5C13.1667 10.5795 12.4205 9.83333 11.5 9.83333H6.5C5.57953 9.83333 4.83333 10.5795 4.83333 11.5V14.8333C4.83333 15.7538 5.57953 16.5 6.5 16.5ZM13.1667 6.5V3.16667C13.1667 2.24619 12.4205 1.5 11.5 1.5H6.5C5.57953 1.5 4.83333 2.24619 4.83333 3.16667V6.5H13.1667Z" stroke="#27364B" stroke-width="1.5" stroke-linecap="round" stroke-linejoin="round"/>
</svg>
