<svg width="31" height="30" viewBox="0 0 31 30" fill="none" xmlns="http://www.w3.org/2000/svg">
<rect x="0.5" width="30" height="30" rx="3" fill="#FEEDED"/>
<path d="M8.78503 22.15C8.54731 22.1516 8.31348 22.0895 8.10778 21.9703L8.35849 21.5377L8.10778 21.9703C7.90223 21.8512 7.73227 21.6793 7.61544 21.4725C7.49935 21.2704 7.43825 21.0414 7.43825 20.8084C7.43825 20.5747 7.49964 20.3452 7.61626 20.1428C7.61647 20.1424 7.61667 20.142 7.61688 20.1417L14.2774 8.48571C14.3894 8.2723 14.5571 8.09314 14.7628 7.96737C14.9722 7.83938 15.2128 7.77166 15.4582 7.77166C15.7036 7.77166 15.9443 7.83938 16.1536 7.96737L15.8929 8.39398L16.1536 7.96737C16.3592 8.093 16.5267 8.27192 16.6387 8.48504L23.1612 19.8286L23.4499 19.3149V20.3529C23.5054 20.4905 23.5378 20.637 23.5451 20.7865C23.5569 21.0258 23.5039 21.2639 23.3918 21.4756L23.3837 21.4736C23.2669 21.68 23.0972 21.8514 22.892 21.9703C22.6863 22.0895 22.4525 22.1516 22.2148 22.15M8.78503 22.15H8.78322V21.65L8.78735 22.15C8.78658 22.15 8.78581 22.15 8.78503 22.15ZM8.78503 22.15H22.2148M22.2148 22.15H22.2166V21.65L22.2124 22.15C22.2132 22.15 22.214 22.15 22.2148 22.15ZM23.9581 19.8076L23.9581 19.8076L23.9615 19.8134C24.1424 20.1185 24.2389 20.4662 24.2412 20.8209C24.2434 21.1757 24.1512 21.5246 23.9741 21.8319C23.7971 22.1393 23.5414 22.394 23.2334 22.57C22.9254 22.746 22.5762 22.8369 22.2215 22.8334V22.8334H22.2166H8.78506C8.43373 22.8307 8.08929 22.7355 7.78643 22.5574L7.56544 22.9331L7.78643 22.5574C7.48311 22.379 7.23222 22.1238 7.0591 21.8174C6.88597 21.5111 6.79674 21.1644 6.8004 20.8126C6.80407 20.4607 6.9005 20.116 7.07997 19.8134L7.08003 19.8134L7.08401 19.8064L13.7507 8.13976L13.7507 8.13977L13.7532 8.13525C13.9267 7.82426 14.18 7.56522 14.4871 7.3849C14.7942 7.20457 15.1438 7.1095 15.4999 7.1095C15.856 7.1095 16.2056 7.20457 16.5127 7.3849C16.8197 7.56522 17.0731 7.82426 17.2466 8.13525L17.2465 8.13527L17.2498 8.14093L23.9581 19.8076ZM15.3147 18.8895C15.3695 18.8529 15.434 18.8334 15.4999 18.8334C15.5883 18.8334 15.6731 18.8685 15.7356 18.931C15.7981 18.9935 15.8332 19.0783 15.8332 19.1667C15.8332 19.2326 15.8137 19.2971 15.777 19.3519C15.7404 19.4067 15.6884 19.4494 15.6275 19.4747C15.5665 19.4999 15.4995 19.5065 15.4349 19.4936C15.3702 19.4808 15.3108 19.449 15.2642 19.4024C15.2176 19.3558 15.1858 19.2964 15.173 19.2317C15.1601 19.1671 15.1667 19.1 15.1919 19.0391C15.2172 18.9782 15.2599 18.9262 15.3147 18.8895ZM15.2642 12.2643C15.3267 12.2018 15.4115 12.1667 15.4999 12.1667C15.5883 12.1667 15.6731 12.2018 15.7356 12.2643C15.7981 12.3268 15.8332 12.4116 15.8332 12.5V15.8334C15.8332 15.9218 15.7981 16.0065 15.7356 16.0691C15.6731 16.1316 15.5883 16.1667 15.4999 16.1667C15.4115 16.1667 15.3267 16.1316 15.2642 16.0691C15.2017 16.0065 15.1666 15.9218 15.1666 15.8334V12.5C15.1666 12.4116 15.2017 12.3268 15.2642 12.2643Z" fill="black" stroke="#CC0000"/>
</svg>
