<svg width="21" height="17" viewBox="0 0 21 17" fill="none" xmlns="http://www.w3.org/2000/svg">
<path d="M19.875 6.8437H17.2708C17.133 6.84428 16.9967 6.87219 16.8697 6.92583C16.7428 6.97948 16.6277 7.05778 16.5312 7.1562L15.2396 8.49995L12.3229 5.17704C12.2255 5.07296 12.1077 4.99 11.9769 4.93328C11.8461 4.87656 11.7051 4.84729 11.5625 4.84729C11.4199 4.84729 11.2789 4.87656 11.1481 4.93328C11.0173 4.99 10.8995 5.07296 10.8021 5.17704L9.03124 6.94787H7.37499C7.09872 6.94787 6.83377 7.05762 6.63842 7.25297C6.44307 7.44832 6.33332 7.71327 6.33332 7.98954C6.33332 8.2658 6.44307 8.53076 6.63842 8.72611C6.83377 8.92146 7.09872 9.0312 7.37499 9.0312H9.45832C9.59541 9.032 9.73131 9.00572 9.85823 8.95388C9.98514 8.90204 10.1006 8.82566 10.1979 8.72912L11.5417 7.33329L14.4583 10.6562C14.5524 10.7635 14.6675 10.8502 14.7966 10.9112C14.9256 10.9721 15.0657 11.0058 15.2083 11.0104C15.3454 11.0112 15.4813 10.9849 15.6082 10.933C15.7351 10.8812 15.8506 10.8048 15.9479 10.7083L17.7187 8.92704H19.875C20.1513 8.92704 20.4162 8.81729 20.6116 8.62194C20.8069 8.42659 20.9167 8.16164 20.9167 7.88537C20.9167 7.6091 20.8069 7.34415 20.6116 7.1488C20.4162 6.95345 20.1513 6.8437 19.875 6.8437ZM12.1771 12.3645L10.1979 14.3437C10.1011 14.4413 9.98586 14.5188 9.85893 14.5717C9.73199 14.6246 9.59584 14.6518 9.45832 14.6518C9.32081 14.6518 9.18466 14.6246 9.05772 14.5717C8.93079 14.5188 8.81558 14.4413 8.71874 14.3437L3.29166 8.91662C2.93449 8.55966 2.65116 8.13583 2.45785 7.66934C2.26454 7.20284 2.16504 6.70283 2.16504 6.19787C2.16504 5.69291 2.26454 5.1929 2.45785 4.7264C2.65116 4.25991 2.93449 3.83608 3.29166 3.47912C4.01214 2.76097 4.98793 2.35771 6.0052 2.35771C7.02247 2.35771 7.99826 2.76097 8.71874 3.47912C8.81558 3.57675 8.93079 3.65425 9.05772 3.70713C9.18466 3.76002 9.32081 3.78724 9.45832 3.78724C9.59584 3.78724 9.73199 3.76002 9.85893 3.70713C9.98586 3.65425 10.1011 3.57675 10.1979 3.47912C10.9299 2.783 11.9013 2.39479 12.9114 2.39479C13.9216 2.39479 14.893 2.783 15.625 3.47912C15.8571 3.71427 16.0599 3.97658 16.2292 4.26037C16.3808 4.46892 16.6045 4.61381 16.8568 4.66698C17.1091 4.72016 17.3722 4.67784 17.5952 4.54823C17.8181 4.41862 17.985 4.21092 18.0637 3.96532C18.1423 3.71973 18.127 3.45369 18.0208 3.2187C17.7634 2.79115 17.4556 2.39597 17.1042 2.04162C16.1156 1.04146 14.8032 0.426103 13.4021 0.305845C12.001 0.185588 10.6028 0.568298 9.45832 1.38537C8.5738 0.748177 7.53044 0.367741 6.44337 0.286048C5.3563 0.204355 4.26779 0.424581 3.29797 0.922421C2.32815 1.42026 1.51472 2.17636 0.947461 3.10728C0.380198 4.0382 0.081152 5.10774 0.0833247 6.19787C0.0830127 6.97296 0.236623 7.74041 0.535244 8.45567C0.833865 9.17093 1.27155 9.81976 1.82291 10.3645L7.24999 15.7916C7.83593 16.3768 8.6302 16.7055 9.45832 16.7055C10.2865 16.7055 11.0807 16.3768 11.6667 15.7916L13.625 13.8333C13.819 13.6381 13.9279 13.3741 13.9279 13.0989C13.9279 12.8237 13.819 12.5597 13.625 12.3645C13.4308 12.1768 13.1712 12.0718 12.901 12.0718C12.6309 12.0718 12.3713 12.1768 12.1771 12.3645Z" fill="#00008F"/>
</svg>
