<svg width="25" height="25" viewBox="0 0 25 25" fill="none" xmlns="http://www.w3.org/2000/svg">
<path d="M4.93821 7.12558L4.93868 7.12512C5.75288 6.31354 6.8556 5.85783 8.0052 5.85783C9.1548 5.85783 10.2575 6.31354 11.0717 7.12512L11.0737 7.12714L11.0737 7.12714C11.1241 7.17791 11.184 7.21821 11.25 7.24571C11.316 7.27321 11.3868 7.28737 11.4583 7.28737C11.5298 7.28737 11.6006 7.27321 11.6666 7.24571C11.7326 7.21821 11.7926 7.17791 11.8429 7.12714L11.848 7.12196L11.8533 7.11693C12.6782 6.33241 13.7731 5.89492 14.9114 5.89492C16.0498 5.89492 17.1447 6.33241 17.9696 7.11693L17.9753 7.12238L17.9808 7.128C18.2349 7.38536 18.4577 7.67172 18.6446 7.98115C18.7231 8.08168 18.8347 8.15147 18.9599 8.17785C19.0911 8.2055 19.2279 8.1835 19.3439 8.1161C19.4598 8.0487 19.5466 7.9407 19.5875 7.81298C19.6258 7.69332 19.6212 7.56433 19.5751 7.44802C19.3418 7.0657 19.0646 6.71189 18.7492 6.39384L18.7485 6.39323C17.8435 5.47759 16.642 4.91423 15.3593 4.80414C14.0766 4.69404 12.7966 5.04441 11.7488 5.79243L11.457 6.00077L11.1661 5.79119C10.3563 5.20784 9.4011 4.85955 8.4059 4.78476C7.41069 4.70997 6.41417 4.91159 5.52631 5.36736C4.63845 5.82313 3.89376 6.51533 3.37443 7.36758C2.85511 8.21983 2.58133 9.19899 2.58332 10.197L2.58333 10.1982C2.58304 10.9071 2.72353 11.609 2.99665 12.2632C3.26976 12.9173 3.67007 13.5107 4.17433 14.009L4.17647 14.0111L4.17646 14.0111L9.60332 19.438L4.93821 7.12558ZM4.93821 7.12558C4.53458 7.52897 4.21439 8.00794 3.99594 8.53511C3.77748 9.06229 3.66504 9.62735 3.66504 10.198C3.66504 10.7686 3.77748 11.3337 3.99594 11.8609C4.21437 12.388 4.53453 12.8669 4.9381 13.2703C4.93814 13.2703 4.93817 13.2704 4.93821 13.2704L10.3637 18.6959C10.364 18.6962 10.3643 18.6965 10.3646 18.6968C10.5078 18.8409 10.678 18.9553 10.8654 19.0334C11.0533 19.1117 11.2548 19.1519 11.4583 19.1519C11.6618 19.1519 11.8633 19.1117 12.0512 19.0334C12.2387 18.9553 12.4089 18.8409 12.552 18.6968C12.5523 18.6965 12.5526 18.6962 12.5529 18.6959M4.93821 7.12558L12.5529 18.6959M12.5529 18.6959L14.5272 16.7217C14.6279 16.6256 14.7618 16.572 14.901 16.572C15.0398 16.572 15.1733 16.6252 15.2739 16.7207C15.3726 16.8218 15.4279 16.9576 15.4279 17.099C15.4279 17.2419 15.3714 17.3791 15.2708 17.4805C15.2707 17.4806 15.2705 17.4808 15.2704 17.4809L13.3133 19.438C12.8211 19.9295 12.154 20.2057 11.4583 20.2057C10.7628 20.2057 10.0957 19.9296 9.60354 19.4382L12.5529 18.6959ZM16.8638 12.8299L17.2228 13.239L17.6 12.8466L18.8883 11.5063C18.8888 11.5058 18.8893 11.5054 18.8897 11.5049C18.9396 11.4544 18.9989 11.4142 19.0643 11.3865C19.1301 11.3587 19.2007 11.3442 19.272 11.3438H21.875C22.0187 11.3438 22.1564 11.4009 22.258 11.5025C22.3596 11.6041 22.4167 11.7418 22.4167 11.8855C22.4167 12.0292 22.3596 12.1669 22.258 12.2685C22.1564 12.3701 22.0187 12.4272 21.875 12.4272H19.7187H19.5108L19.3642 12.5746L17.5958 14.3534C17.5955 14.3538 17.5951 14.3541 17.5948 14.3544C17.5444 14.4042 17.4847 14.4435 17.4192 14.4703C17.3552 14.4964 17.2868 14.5101 17.2177 14.5105C17.1458 14.5074 17.0752 14.4899 17.0101 14.4592C16.943 14.4275 16.8831 14.3823 16.8342 14.3266L16.8341 14.3265L13.9174 11.0036L13.5587 10.5948L13.1814 10.9866L11.8424 12.3776C11.7925 12.4262 11.7337 12.4648 11.6692 12.4911C11.6032 12.5181 11.5325 12.5317 11.4612 12.5313V12.5313H11.4583H9.37499C9.23133 12.5313 9.09356 12.4743 8.99198 12.3727L8.63842 12.7262L8.99197 12.3727C8.89039 12.2711 8.83332 12.1333 8.83332 11.9897C8.83332 11.846 8.89039 11.7082 8.99197 11.6066L8.63842 11.2531L8.99198 11.6066C9.09356 11.5051 9.23133 11.448 9.37499 11.448H11.0312H11.2383L11.3848 11.3015L13.1556 9.53071L13.1614 9.52489L13.1671 9.51888C13.2177 9.46476 13.279 9.42162 13.347 9.39213C13.415 9.36264 13.4884 9.34742 13.5625 9.34742C13.6366 9.34742 13.71 9.36263 13.778 9.39213C13.8439 9.42073 13.9035 9.46217 13.9533 9.51401L16.8638 12.8299Z" fill="#2763A5" stroke="#2763A5"/>
</svg>
