<svg width="21" height="22" viewBox="0 0 21 22" fill="none" xmlns="http://www.w3.org/2000/svg">
<path d="M20.6146 9.04162L12.4583 0.885368C12.3214 0.747594 12.1486 0.650872 11.9595 0.606128C11.7705 0.561384 11.5727 0.570402 11.3885 0.632163C11.2043 0.693923 11.041 0.805966 10.9171 0.955631C10.7933 1.1053 10.7137 1.28662 10.6875 1.47912L9.92708 6.83328L7.84374 8.91662L7.49999 8.7187C7.27571 8.60965 7.01975 8.58469 6.77862 8.64834C6.5375 8.712 6.32721 8.86005 6.18598 9.06559C6.04475 9.27114 5.98194 9.52053 6.00898 9.76845C6.03602 10.0164 6.15111 10.2464 6.33333 10.4166L5.13541 11.6354L4.79166 11.4375C4.56794 11.3347 4.31506 11.3145 4.07788 11.3805C3.8407 11.4465 3.63454 11.5943 3.49597 11.7978C3.35741 12.0012 3.29539 12.2472 3.32091 12.4921C3.34644 12.7369 3.45786 12.9648 3.63541 13.1354L2.41666 14.3437L2.08333 14.125C1.96444 14.0561 1.8331 14.0114 1.69687 13.9935C1.56064 13.9756 1.42222 13.9848 1.28957 14.0207C1.15693 14.0565 1.03268 14.1182 0.923985 14.2022C0.815291 14.2863 0.724297 14.391 0.656245 14.5104C0.538604 14.7249 0.500228 14.974 0.547843 15.214C0.595459 15.4539 0.726028 15.6695 0.916661 15.8229L0.385412 16.3541C0.28895 16.4519 0.214385 16.5691 0.166661 16.6979C0.113285 16.8231 0.0849741 16.9576 0.0833282 17.0937V20.375C0.0833282 20.6512 0.193075 20.9162 0.388425 21.1115C0.583776 21.3069 0.848728 21.4166 1.12499 21.4166H4.38541C4.52153 21.415 4.65601 21.3867 4.78124 21.3333C4.91004 21.2856 5.02721 21.211 5.12499 21.1145L6.89583 19.3333L7.23958 19.5312C7.35785 19.6005 7.48863 19.6458 7.62443 19.6644C7.76024 19.6831 7.89839 19.6748 8.03096 19.6399C8.16354 19.6051 8.28794 19.5444 8.39703 19.4614C8.50611 19.3784 8.59774 19.2747 8.66666 19.1562C8.78827 18.9418 8.82988 18.6912 8.78411 18.4489C8.73833 18.2067 8.60813 17.9886 8.41666 17.8333L9.63541 16.625L9.97916 16.8229C10.1348 16.9111 10.3106 16.9577 10.4896 16.9583C10.689 16.9403 10.879 16.8653 11.0368 16.7421C11.1947 16.619 11.3137 16.4529 11.3796 16.2639C11.4456 16.0749 11.4556 15.8709 11.4086 15.6763C11.3616 15.4816 11.2595 15.3047 11.1146 15.1666L12.3333 13.9583L12.6771 14.1562C12.8328 14.2444 13.0085 14.2911 13.1875 14.2916C13.4002 14.2878 13.6067 14.219 13.7791 14.0943C13.9515 13.9697 14.0817 13.7953 14.152 13.5945C14.2223 13.3937 14.2295 13.1762 14.1725 12.9712C14.1156 12.7662 13.9972 12.5836 13.8333 12.4479L14.6562 11.625L20.0208 10.8645C20.2136 10.8371 20.3949 10.7562 20.544 10.631C20.6931 10.5058 20.8042 10.3413 20.8646 10.1562C20.936 9.96626 20.9504 9.75959 20.906 9.56159C20.8616 9.36358 20.7603 9.18286 20.6146 9.04162V9.04162ZM3.95833 19.3333H2.16666V17.5416L2.76041 16.9479L5.03124 18.2916L3.95833 19.3333ZM6.55208 16.7291L4.24999 15.427L5.43749 14.2395L7.69791 15.5416L6.55208 16.7291ZM9.27083 14.0208L7 12.7083L8.19791 11.5208L10.5 12.8229L9.27083 14.0208ZM11.9896 11.302L9.71874 9.95828L10.9062 8.77078L12.6979 10.5625L11.9896 11.302ZM14.5417 9.48953L12.0104 6.95828L12.4583 3.83328L17.6667 9.04162L14.5417 9.48953Z" fill="#64748B"/>
</svg>
