<svg width="14" height="18" viewBox="0 0 14 18" fill="none" xmlns="http://www.w3.org/2000/svg">
<path d="M8.0774 1.74408L7.37029 2.45118L7.37029 2.45118L8.0774 1.74408ZM12.5892 6.25592L13.2964 5.54882L12.5892 6.25592ZM5.33332 15.5C4.78104 15.5 4.33332 15.9477 4.33332 16.5C4.33332 17.0523 4.78104 17.5 5.33332 17.5V15.5ZM0.166656 12.3333C0.166656 12.8856 0.614372 13.3333 1.16666 13.3333C1.71894 13.3333 2.16666 12.8856 2.16666 12.3333H0.166656ZM0.45955 15.7929C0.0690254 16.1834 0.0690254 16.8166 0.45955 17.2071C0.850074 17.5976 1.48324 17.5976 1.87376 17.2071L0.45955 15.7929ZM2.83332 2.5H7.48814V0.5H2.83332V2.5ZM11.8333 6.84518V14.8333H13.8333V6.84518H11.8333ZM7.37029 2.45118L11.8821 6.96303L13.2964 5.54882L8.78451 1.03697L7.37029 2.45118ZM13.8333 6.84518C13.8333 6.35895 13.6402 5.89263 13.2964 5.54882L11.8821 6.96303C11.8509 6.93177 11.8333 6.88938 11.8333 6.84518H13.8333ZM7.48814 2.5C7.44394 2.5 7.40155 2.48244 7.37029 2.45118L8.78451 1.03697C8.44069 0.693154 7.97437 0.5 7.48814 0.5V2.5ZM11.1667 17.5C12.6394 17.5 13.8333 16.3061 13.8333 14.8333H11.8333C11.8333 15.2015 11.5348 15.5 11.1667 15.5V17.5ZM2.16666 3.16667C2.16666 2.79848 2.46513 2.5 2.83332 2.5V0.5C1.36056 0.5 0.166656 1.69391 0.166656 3.16667H2.16666ZM11.1667 15.5H5.33332V17.5H11.1667V15.5ZM2.16666 12.3333V3.16667H0.166656V12.3333H2.16666ZM8.49999 10.6667C8.49999 11.4951 7.82842 12.1667 6.99999 12.1667V14.1667C8.93299 14.1667 10.5 12.5997 10.5 10.6667H8.49999ZM5.49999 10.6667C5.49999 9.83824 6.17156 9.16667 6.99999 9.16667V7.16667C5.06699 7.16667 3.49999 8.73367 3.49999 10.6667H5.49999ZM6.99999 9.16667C7.82842 9.16667 8.49999 9.83824 8.49999 10.6667H10.5C10.5 8.73367 8.93299 7.16667 6.99999 7.16667V9.16667ZM4.52512 11.7273L0.45955 15.7929L1.87376 17.2071L5.93933 13.1415L4.52512 11.7273ZM6.99999 12.1667C6.5855 12.1667 6.21187 11.9999 5.93933 11.7273L4.52512 13.1415C5.1574 13.7738 6.03377 14.1667 6.99999 14.1667V12.1667ZM5.93933 11.7273C5.66679 11.4548 5.49999 11.0812 5.49999 10.6667H3.49999C3.49999 11.6329 3.89284 12.5093 4.52512 13.1415L5.93933 11.7273Z" fill="#64748B"/>
</svg>
