<svg width="18" height="18" viewBox="0 0 18 18" fill="none" xmlns="http://www.w3.org/2000/svg">
<path d="M11.9325 10.4615L11.7493 10.8362L11.5177 11.3099L11.057 11.0536C10.2054 10.5798 9.42278 9.99141 8.73116 9.30481L8.72858 9.30223C8.04198 8.61061 7.45357 7.82802 6.97981 6.97637L6.75553 6.57319L7.1394 6.31728L7.4894 6.08395L7.51704 6.06552L7.54688 6.05091C7.80551 5.92428 8.00817 5.70647 8.11586 5.4394C8.22337 5.17277 8.22864 4.87585 8.1307 4.60559C7.99102 4.2292 7.87637 3.84398 7.78752 3.45245L11.9325 10.4615ZM11.9325 10.4615C11.9325 10.4615 11.9325 10.4614 11.9326 10.4614C11.9326 10.4613 11.9326 10.4613 11.9326 10.4612C12.0593 10.2027 12.277 10.0002 12.544 9.89253C12.8102 9.7852 13.1065 9.77976 13.3764 9.8772C13.753 10.0195 14.1393 10.1345 14.5324 10.2212C14.5541 10.2262 14.5801 10.2326 14.6094 10.2399C14.7439 10.2732 14.9494 10.3241 15.1476 10.3322C15.5893 10.4197 15.989 10.6539 16.2814 10.9972C16.5808 11.3488 16.7493 11.793 16.7584 12.2546L16.7584 14.75L16.7584 14.7523C16.7597 15.0352 16.701 15.3153 16.5861 15.5738C16.4712 15.8323 16.3029 16.0634 16.0921 16.252C15.7251 16.5788 15.2506 16.759 14.7591 16.7583H14.7584H14.4727C11.1018 16.3353 7.96646 14.8047 5.55937 12.4063C3.14508 10.0008 1.60102 6.85947 1.17109 3.47856L1.17112 3.47856L1.17039 3.47328C1.13111 3.18866 1.15362 2.89891 1.23638 2.62376C1.31915 2.34861 1.46022 2.09453 1.65001 1.8788C1.8398 1.66308 2.07384 1.49078 2.3362 1.37364C2.59856 1.25649 2.88308 1.19725 3.17039 1.19995L3.17039 1.19997H3.17508H5.67508V1.20002L5.68235 1.19992C6.15882 1.19299 6.6221 1.35641 6.98877 1.66074C7.353 1.96306 7.59812 2.38468 7.68072 2.85056C7.70735 3.05236 7.74281 3.2557 7.78748 3.45229L11.9325 10.4615ZM16.1168 14.8339L16.1167 14.8301L16.1001 12.2364C16.1051 11.9292 16.0038 11.6295 15.8132 11.3882C15.6209 11.1449 15.3499 10.9761 15.0466 10.9111L15.0305 10.9076L15.0141 10.9052C14.799 10.8738 14.5866 10.8344 14.3771 10.7873C13.9506 10.6905 13.5303 10.5681 13.1185 10.4208L12.681 10.2644L12.4929 10.6892L11.9785 11.8507C11.96 11.8895 11.9341 11.9243 11.9024 11.9532C11.8698 11.983 11.8316 12.006 11.79 12.0208L11.7791 12.0247L11.7684 12.0291C11.6901 12.0613 11.6026 12.0624 11.5237 12.0325C9.06726 10.8821 7.09276 8.90536 5.94506 6.44733C5.9267 6.40763 5.91633 6.3647 5.91454 6.32099C5.91275 6.27713 5.91964 6.23335 5.93481 6.19215C5.94999 6.15096 5.97316 6.11317 6.00298 6.08095C6.0328 6.04874 6.06869 6.02273 6.10859 6.00442L6.10859 6.00443L6.11064 6.00348L7.27731 5.46181L7.69868 5.26617L7.53448 4.83158C7.3841 4.43359 7.2629 4.02519 7.17183 3.60961L7.17183 3.60961L7.17122 3.60688C7.12403 3.39715 7.08467 3.18461 7.05315 2.96924L7.05076 2.9529L7.04729 2.93676C6.98224 2.63352 6.81351 2.36244 6.57015 2.17019L6.2602 2.56253L6.57015 2.17019C6.32842 1.97922 6.02806 1.87789 5.72017 1.8833L3.22508 1.8833L3.22445 1.88331C3.03514 1.88355 2.84805 1.9241 2.67562 2.00226C2.5032 2.08043 2.3494 2.19441 2.22445 2.33664L2.22437 2.33657L2.21769 2.3445C2.09503 2.4901 2.00317 2.65905 1.94765 2.84115C1.89213 3.02325 1.87411 3.21472 1.89468 3.40398L1.89462 3.40399L1.89551 3.41121C2.29446 6.6442 3.75835 9.65239 6.05629 11.9613C8.35423 14.2701 11.3554 15.7483 14.5865 16.1626L14.5901 16.163C14.7813 16.1862 14.9753 16.1691 15.1596 16.1129C15.3438 16.0567 15.5144 15.9627 15.6602 15.8368L15.6602 15.8368L15.6634 15.8339C15.8056 15.709 15.9196 15.5552 15.9978 15.3828C16.076 15.2103 16.1165 15.0233 16.1168 14.8339Z" fill="#CBD4E1" stroke="#2763A5"/>
</svg>
