<svg width="20" height="20" viewBox="0 0 20 20" fill="none" xmlns="http://www.w3.org/2000/svg">
<path d="M9.16667 4.90182V16.0335C9.16667 16.8434 8.51008 17.5 7.70015 17.5C7.08038 17.5 6.52752 17.1104 6.31907 16.5267L4.53039 11.4024M15 10.8333C16.3807 10.8333 17.5 9.71404 17.5 8.33333C17.5 6.95262 16.3807 5.83333 15 5.83333M4.53039 11.4024C3.33691 10.8951 2.5 9.71194 2.5 8.33333C2.5 6.49238 3.99238 5 5.83333 5H7.36007C10.7773 5 13.7141 3.97159 15 2.5L15 14.1667C13.7141 12.6951 10.7773 11.6667 7.36007 11.6667L5.83331 11.6667C5.37098 11.6667 4.93064 11.5725 4.53039 11.4024Z" stroke="#FFC000" stroke-width="2" stroke-linecap="round" stroke-linejoin="round"/>
</svg>
