<svg width="21" height="21" viewBox="0 0 21 21" fill="none" xmlns="http://www.w3.org/2000/svg">
<path d="M1.5 3.74683C1.5 2.50419 2.50736 1.49683 3.75 1.49683H6C7.24264 1.49683 8.25 2.50419 8.25 3.74683V5.99683C8.25 7.23947 7.24264 8.24683 6 8.24683H3.75C2.50736 8.24683 1.5 7.23947 1.5 5.99683V3.74683Z" stroke="white" stroke-width="2" stroke-linecap="round" stroke-linejoin="round"/>
<path d="M12.75 3.74683C12.75 2.50419 13.7574 1.49683 15 1.49683H17.25C18.4926 1.49683 19.5 2.50419 19.5 3.74683V5.99683C19.5 7.23947 18.4926 8.24683 17.25 8.24683H15C13.7574 8.24683 12.75 7.23947 12.75 5.99683V3.74683Z" stroke="white" stroke-width="2" stroke-linecap="round" stroke-linejoin="round"/>
<path d="M1.5 14.9968C1.5 13.7542 2.50736 12.7468 3.75 12.7468H6C7.24264 12.7468 8.25 13.7542 8.25 14.9968V17.2468C8.25 18.4895 7.24264 19.4968 6 19.4968H3.75C2.50736 19.4968 1.5 18.4895 1.5 17.2468V14.9968Z" stroke="white" stroke-width="2" stroke-linecap="round" stroke-linejoin="round"/>
<path d="M12.75 14.9968C12.75 13.7542 13.7574 12.7468 15 12.7468H17.25C18.4926 12.7468 19.5 13.7542 19.5 14.9968V17.2468C19.5 18.4895 18.4926 19.4968 17.25 19.4968H15C13.7574 19.4968 12.75 18.4895 12.75 17.2468V14.9968Z" stroke="white" stroke-width="2" stroke-linecap="round" stroke-linejoin="round"/>
</svg>
