<svg width="22" height="21" viewBox="0 0 22 21" fill="none" xmlns="http://www.w3.org/2000/svg">
<path d="M18.2913 6.33337C17.5549 6.33153 16.8415 6.59051 16.2777 7.0644C15.714 7.5383 15.3362 8.1965 15.2114 8.92233C15.0866 9.64816 15.2228 10.3947 15.5959 11.0297C15.969 11.6647 16.5549 12.1471 17.2497 12.3914V14.1459C17.2497 15.3891 16.7558 16.5814 15.8767 17.4604C14.9977 18.3395 13.8054 18.8334 12.5622 18.8334C11.319 18.8334 10.1267 18.3395 9.24761 17.4604C8.36853 16.5814 7.87467 15.3891 7.87467 14.1459V13.5309C9.32948 13.2841 10.6502 12.5308 11.6033 11.4043C12.5564 10.2778 13.0805 8.85064 13.083 7.37504V1.12504C13.083 0.848773 12.9733 0.583821 12.7779 0.388471C12.5826 0.193121 12.3176 0.083374 12.0413 0.083374H9.95801C9.68174 0.083374 9.41679 0.193121 9.22144 0.388471C9.02609 0.583821 8.91634 0.848773 8.91634 1.12504C8.91634 1.40131 9.02609 1.66626 9.22144 1.86161C9.41679 2.05696 9.68174 2.16671 9.95801 2.16671H10.9997V7.37504C10.9997 8.48011 10.5607 9.53992 9.77929 10.3213C8.99788 11.1027 7.93808 11.5417 6.83301 11.5417C5.72794 11.5417 4.66813 11.1027 3.88673 10.3213C3.10533 9.53992 2.66634 8.48011 2.66634 7.37504V2.16671H3.70801C3.98427 2.16671 4.24923 2.05696 4.44458 1.86161C4.63993 1.66626 4.74967 1.40131 4.74967 1.12504C4.74967 0.848773 4.63993 0.583821 4.44458 0.388471C4.24923 0.193121 3.98427 0.083374 3.70801 0.083374H1.62467C1.34841 0.083374 1.08346 0.193121 0.888105 0.388471C0.692754 0.583821 0.583008 0.848773 0.583008 1.12504V7.37504C0.585514 8.85064 1.10964 10.2778 2.06274 11.4043C3.01584 12.5308 4.33653 13.2841 5.79134 13.5309V14.1459C5.79134 15.9416 6.50469 17.6638 7.77447 18.9336C9.04425 20.2034 10.7664 20.9167 12.5622 20.9167C14.3579 20.9167 16.0801 20.2034 17.3499 18.9336C18.6197 17.6638 19.333 15.9416 19.333 14.1459V12.3914C20.0278 12.1472 20.6137 11.6648 20.9868 11.0298C21.3598 10.3948 21.4961 9.6482 21.3713 8.92237C21.2465 8.19654 20.8687 7.53834 20.3049 7.06444C19.7412 6.59053 19.0278 6.33154 18.2913 6.33337ZM18.2913 10.5C18.0853 10.5 17.8839 10.4389 17.7126 10.3245C17.5413 10.21 17.4078 10.0473 17.329 9.857C17.2501 9.66666 17.2295 9.45722 17.2697 9.25515C17.3099 9.05309 17.4091 8.86748 17.5548 8.7218C17.7004 8.57612 17.8861 8.47692 18.0881 8.43672C18.2902 8.39653 18.4996 8.41716 18.69 8.496C18.8803 8.57484 19.043 8.70835 19.1575 8.87965C19.2719 9.05096 19.333 9.25235 19.333 9.45837C19.3326 9.73453 19.2228 9.99928 19.0275 10.1945C18.8322 10.3898 18.5675 10.4997 18.2913 10.5Z" fill="#00008F"/>
</svg>
