<svg width="21" height="21" viewBox="0 0 21 21" fill="none" xmlns="http://www.w3.org/2000/svg">
<path d="M17.7913 6.33337C17.0549 6.33153 16.3415 6.59051 15.7777 7.0644C15.214 7.5383 14.8362 8.1965 14.7114 8.92233C14.5866 9.64816 14.7228 10.3947 15.0959 11.0297C15.469 11.6647 16.0549 12.1471 16.7497 12.3914V14.1459C16.7497 15.3891 16.2558 16.5814 15.3767 17.4604C14.4977 18.3395 13.3054 18.8334 12.0622 18.8334C10.819 18.8334 9.62669 18.3395 8.74761 17.4604C7.86853 16.5814 7.37467 15.3891 7.37467 14.1459V13.5309C8.82948 13.2841 10.1502 12.5308 11.1033 11.4043C12.0564 10.2778 12.5805 8.85064 12.583 7.37504V1.12504C12.583 0.848773 12.4733 0.583821 12.2779 0.388471C12.0826 0.193121 11.8176 0.083374 11.5413 0.083374H9.45801C9.18174 0.083374 8.91679 0.193121 8.72144 0.388471C8.52609 0.583821 8.41634 0.848773 8.41634 1.12504C8.41634 1.40131 8.52609 1.66626 8.72144 1.86161C8.91679 2.05696 9.18174 2.16671 9.45801 2.16671H10.4997V7.37504C10.4997 8.48011 10.0607 9.53992 9.27929 10.3213C8.49788 11.1027 7.43808 11.5417 6.33301 11.5417C5.22794 11.5417 4.16813 11.1027 3.38673 10.3213C2.60533 9.53992 2.16634 8.48011 2.16634 7.37504V2.16671H3.20801C3.48427 2.16671 3.74923 2.05696 3.94458 1.86161C4.13993 1.66626 4.24967 1.40131 4.24967 1.12504C4.24967 0.848773 4.13993 0.583821 3.94458 0.388471C3.74923 0.193121 3.48427 0.083374 3.20801 0.083374H1.12467C0.848407 0.083374 0.583455 0.193121 0.388105 0.388471C0.192754 0.583821 0.0830078 0.848773 0.0830078 1.12504V7.37504C0.0855136 8.85064 0.609644 10.2778 1.56274 11.4043C2.51584 12.5308 3.83653 13.2841 5.29134 13.5309V14.1459C5.29134 15.9416 6.00469 17.6638 7.27447 18.9336C8.54425 20.2034 10.2664 20.9167 12.0622 20.9167C13.8579 20.9167 15.5801 20.2034 16.8499 18.9336C18.1197 17.6638 18.833 15.9416 18.833 14.1459V12.3914C19.5278 12.1472 20.1137 11.6648 20.4868 11.0298C20.8598 10.3948 20.9961 9.6482 20.8713 8.92237C20.7465 8.19654 20.3687 7.53834 19.8049 7.06444C19.2412 6.59053 18.5278 6.33154 17.7913 6.33337ZM17.7913 10.5C17.5853 10.5 17.3839 10.4389 17.2126 10.3245C17.0413 10.21 16.9078 10.0473 16.829 9.857C16.7501 9.66666 16.7295 9.45722 16.7697 9.25515C16.8099 9.05309 16.9091 8.86748 17.0548 8.7218C17.2004 8.57612 17.3861 8.47692 17.5881 8.43672C17.7902 8.39653 17.9996 8.41716 18.19 8.496C18.3803 8.57484 18.543 8.70835 18.6575 8.87965C18.7719 9.05096 18.833 9.25235 18.833 9.45837C18.8326 9.73453 18.7228 9.99928 18.5275 10.1945C18.3322 10.3898 18.0675 10.4997 17.7913 10.5Z" fill="#64748B"/>
</svg>
