<svg width="18" height="18" viewBox="0 0 18 18" fill="none" xmlns="http://www.w3.org/2000/svg">
<path d="M17.0917 11.9834L13.325 8.22507C13.4038 7.84121 13.4429 7.45026 13.4417 7.0584C13.4414 5.98394 13.1702 4.9269 12.6533 3.98497C12.1363 3.04304 11.3903 2.24663 10.4841 1.66935C9.57788 1.09207 8.54078 0.752554 7.46863 0.682182C6.39648 0.61181 5.32389 0.812855 4.35 1.26673C4.22662 1.3231 4.11885 1.40873 4.03608 1.5162C3.9533 1.62366 3.89801 1.74971 3.875 1.8834C3.85209 2.01539 3.86133 2.15096 3.90195 2.27861C3.94257 2.40627 4.01336 2.52225 4.10834 2.61673L7.73334 6.2334L6.23334 7.7334L2.61667 4.1084C2.52139 4.0149 2.40505 3.94566 2.27743 3.90651C2.14981 3.86735 2.01465 3.85943 1.88334 3.8834C1.75049 3.90556 1.62499 3.95959 1.51759 4.04087C1.41019 4.12214 1.32409 4.22824 1.26667 4.35007C0.811273 5.32715 0.610403 6.40355 0.682745 7.47912C0.755087 8.55469 1.09829 9.59449 1.68043 10.5018C2.26257 11.4091 3.06473 12.1544 4.01229 12.6685C4.95985 13.1825 6.02202 13.4485 7.1 13.4417C7.49186 13.443 7.88281 13.4039 8.26667 13.3251L12.025 17.0917C12.1025 17.1698 12.1946 17.2318 12.2962 17.2741C12.3977 17.3165 12.5067 17.3382 12.6167 17.3382C12.7267 17.3382 12.8356 17.3165 12.9372 17.2741C13.0387 17.2318 13.1309 17.1698 13.2083 17.0917C13.2864 17.0143 13.3484 16.9221 13.3907 16.8205C13.4331 16.719 13.4548 16.6101 13.4548 16.5001C13.4548 16.3901 13.4331 16.2811 13.3907 16.1796C13.3484 16.078 13.2864 15.9859 13.2083 15.9084L9.125 11.8251C9.02296 11.7237 8.89642 11.6505 8.75769 11.6125C8.61897 11.5745 8.47277 11.5731 8.33334 11.6084C7.93098 11.7161 7.51653 11.7722 7.1 11.7751C6.47671 11.7806 5.85849 11.6627 5.28095 11.4282C4.70342 11.1937 4.17798 10.8473 3.73491 10.4089C3.29184 9.97048 2.9399 9.44872 2.69935 8.87369C2.4588 8.29866 2.33441 7.68171 2.33334 7.0584C2.33226 6.77925 2.35456 6.50049 2.4 6.22507L5.66667 9.50007C5.74414 9.57817 5.83631 9.64017 5.93785 9.68248C6.0394 9.72478 6.14833 9.74656 6.25834 9.74656C6.36835 9.74656 6.47727 9.72478 6.57882 9.68248C6.68037 9.64017 6.77253 9.57817 6.85 9.50007L9.5 6.82507C9.6502 6.66968 9.73416 6.46201 9.73416 6.2459C9.73416 6.02978 9.6502 5.82212 9.5 5.66673L6.25834 2.40007C6.53382 2.35508 6.81253 2.33278 7.09167 2.3334C8.34337 2.33561 9.54305 2.83439 10.4274 3.72026C11.3117 4.60613 11.8083 5.80669 11.8083 7.0584C11.8054 7.47492 11.7494 7.88938 11.6417 8.29173C11.6064 8.43117 11.6078 8.57736 11.6458 8.71609C11.6837 8.85482 11.757 8.98136 11.8583 9.0834L15.9417 13.1667C16.0986 13.3237 16.3114 13.4118 16.5333 13.4118C16.7553 13.4118 16.9681 13.3237 17.125 13.1667C17.2819 13.0098 17.3701 12.797 17.3701 12.5751C17.3701 12.3531 17.2819 12.1403 17.125 11.9834H17.0917Z" fill="#A832A2"/>
</svg>
