<svg width="21" height="20" viewBox="0 0 21 20" fill="none" xmlns="http://www.w3.org/2000/svg">
<path d="M13.3333 4.99984V5.49984H13.8333H17.1667C17.2551 5.49984 17.3399 5.53496 17.4024 5.59747C17.4649 5.65998 17.5 5.74477 17.5 5.83317C17.5 5.92158 17.4649 6.00636 17.4024 6.06887L17.7559 6.42243L17.4024 6.06887C17.3399 6.13138 17.2551 6.1665 17.1667 6.1665H16.3333H15.8333V6.6665V15.8332C15.8333 16.3636 15.6226 16.8723 15.2475 17.2474C14.8725 17.6225 14.3638 17.8332 13.8333 17.8332H7.16667C6.63623 17.8332 6.12753 17.6225 5.75245 17.2474C5.37738 16.8723 5.16667 16.3636 5.16667 15.8332V6.6665V6.1665H4.66667H3.83333C3.74493 6.1665 3.66014 6.13138 3.59763 6.06887C3.53512 6.00636 3.5 5.92158 3.5 5.83317C3.5 5.74477 3.53512 5.65998 3.59763 5.59747C3.66014 5.53496 3.74493 5.49984 3.83333 5.49984H7.16667H7.66667V4.99984V4.1665C7.66667 3.63607 7.87738 3.12736 8.25245 2.75229C8.62753 2.37722 9.13623 2.1665 9.66667 2.1665H11.3333C11.8638 2.1665 12.3725 2.37722 12.7475 2.75229L13.0971 2.40271L12.7475 2.75229C13.1226 3.12736 13.3333 3.63607 13.3333 4.1665V4.99984ZM12.1667 5.49984H12.6667V4.99984V4.1665C12.6667 3.81288 12.5262 3.47374 12.2761 3.22369C12.0261 2.97365 11.687 2.83317 11.3333 2.83317H9.66667C9.31304 2.83317 8.97391 2.97365 8.72386 3.22369C8.47381 3.47374 8.33333 3.81288 8.33333 4.1665V4.99984V5.49984H8.83333H12.1667ZM6.33333 6.1665H5.83333V6.6665V15.8332C5.83333 16.1868 5.97381 16.5259 6.22386 16.776C6.47391 17.026 6.81304 17.1665 7.16667 17.1665H13.8333C14.187 17.1665 14.5261 17.026 14.7761 16.776C15.0262 16.5259 15.1667 16.1868 15.1667 15.8332V6.6665V6.1665H14.6667H6.33333ZM9.06904 14.4022C9.00652 14.4647 8.92174 14.4998 8.83333 14.4998C8.74493 14.4998 8.66014 14.4647 8.59763 14.4022C8.53512 14.3397 8.5 14.2549 8.5 14.1665V9.1665C8.5 9.0781 8.53512 8.99331 8.59763 8.9308C8.66014 8.86829 8.74493 8.83317 8.83333 8.83317C8.92174 8.83317 9.00652 8.86829 9.06904 8.9308C9.13155 8.99331 9.16667 9.0781 9.16667 9.1665V14.1665C9.16667 14.2549 9.13155 14.3397 9.06904 14.4022ZM12.4024 14.4022C12.3399 14.4647 12.2551 14.4998 12.1667 14.4998C12.0783 14.4998 11.9935 14.4647 11.931 14.4022C11.8685 14.3397 11.8333 14.2549 11.8333 14.1665V9.1665C11.8333 9.0781 11.8685 8.99331 11.931 8.9308C11.9935 8.86829 12.0783 8.83317 12.1667 8.83317C12.2551 8.83317 12.3399 8.86829 12.4024 8.9308C12.4649 8.99331 12.5 9.0781 12.5 9.1665V14.1665C12.5 14.2549 12.4649 14.3397 12.4024 14.4022Z" fill="#27364B" stroke="#27364B"/>
</svg>
