<svg width="28" height="28" viewBox="0 0 28 28" fill="none" xmlns="http://www.w3.org/2000/svg">
<path d="M8.375 8.375C8.1525 8.375 7.93499 8.44098 7.74998 8.5646C7.56498 8.68821 7.42078 8.86391 7.33564 9.06948C7.25049 9.27505 7.22821 9.50125 7.27162 9.71948C7.31502 9.93771 7.42217 10.1382 7.5795 10.2955C7.73684 10.4528 7.93729 10.56 8.15552 10.6034C8.37375 10.6468 8.59995 10.6245 8.80552 10.5394C9.01109 10.4542 9.18679 10.31 9.3104 10.125C9.43402 9.94001 9.5 9.7225 9.5 9.5C9.5 9.20163 9.38147 8.91548 9.1705 8.7045C8.95952 8.49353 8.67337 8.375 8.375 8.375ZM8.375 12.875C8.1525 12.875 7.93499 12.941 7.74998 13.0646C7.56498 13.1882 7.42078 13.3639 7.33564 13.5695C7.25049 13.775 7.22821 14.0012 7.27162 14.2195C7.31502 14.4377 7.42217 14.6382 7.5795 14.7955C7.73684 14.9528 7.93729 15.06 8.15552 15.1034C8.37375 15.1468 8.59995 15.1245 8.80552 15.0394C9.01109 14.9542 9.18679 14.81 9.3104 14.625C9.43402 14.44 9.5 14.2225 9.5 14C9.5 13.7016 9.38147 13.4155 9.1705 13.2045C8.95952 12.9935 8.67337 12.875 8.375 12.875ZM19.625 12.875H12.875C12.5766 12.875 12.2905 12.9935 12.0795 13.2045C11.8685 13.4155 11.75 13.7016 11.75 14C11.75 14.2984 11.8685 14.5845 12.0795 14.7955C12.2905 15.0065 12.5766 15.125 12.875 15.125H19.625C19.9234 15.125 20.2095 15.0065 20.4205 14.7955C20.6315 14.5845 20.75 14.2984 20.75 14C20.75 13.7016 20.6315 13.4155 20.4205 13.2045C20.2095 12.9935 19.9234 12.875 19.625 12.875ZM19.625 8.375H12.875C12.5766 8.375 12.2905 8.49353 12.0795 8.7045C11.8685 8.91548 11.75 9.20163 11.75 9.5C11.75 9.79837 11.8685 10.0845 12.0795 10.2955C12.2905 10.5065 12.5766 10.625 12.875 10.625H19.625C19.9234 10.625 20.2095 10.5065 20.4205 10.2955C20.6315 10.0845 20.75 9.79837 20.75 9.5C20.75 9.20163 20.6315 8.91548 20.4205 8.7045C20.2095 8.49353 19.9234 8.375 19.625 8.375ZM21.875 2.75H6.125C5.22989 2.75 4.37145 3.10558 3.73851 3.73851C3.10558 4.37145 2.75 5.22989 2.75 6.125V17.375C2.75 18.2701 3.10558 19.1286 3.73851 19.7615C4.37145 20.3944 5.22989 20.75 6.125 20.75H19.1637L23.3263 24.9237C23.4314 25.028 23.556 25.1105 23.6931 25.1665C23.8302 25.2225 23.9769 25.2509 24.125 25.25C24.2726 25.2538 24.419 25.223 24.5525 25.16C24.7579 25.0756 24.9338 24.9323 25.0579 24.7481C25.1821 24.5639 25.2489 24.3471 25.25 24.125V6.125C25.25 5.22989 24.8944 4.37145 24.2615 3.73851C23.6286 3.10558 22.7701 2.75 21.875 2.75ZM23 21.4137L20.4237 18.8263C20.3186 18.722 20.194 18.6395 20.0569 18.5835C19.9198 18.5275 19.7731 18.4991 19.625 18.5H6.125C5.82663 18.5 5.54048 18.3815 5.3295 18.1705C5.11853 17.9595 5 17.6734 5 17.375V6.125C5 5.82663 5.11853 5.54048 5.3295 5.3295C5.54048 5.11853 5.82663 5 6.125 5H21.875C22.1734 5 22.4595 5.11853 22.6705 5.3295C22.8815 5.54048 23 5.82663 23 6.125V21.4137Z" fill="#A832A2"/>
</svg>
