<svg width="24" height="24" viewBox="0 0 24 24" fill="none" xmlns="http://www.w3.org/2000/svg">
<path d="M12 6.16658C11.6906 6.16658 11.3939 6.2895 11.1751 6.50829C10.9563 6.72709 10.8334 7.02383 10.8334 7.33325V11.9999C10.8334 12.3093 10.9563 12.6061 11.1751 12.8249C11.3939 13.0437 11.6906 13.1666 12 13.1666C12.3095 13.1666 12.6062 13.0437 12.825 12.8249C13.0438 12.6061 13.1667 12.3093 13.1667 11.9999V7.33325C13.1667 7.02383 13.0438 6.72709 12.825 6.50829C12.6062 6.2895 12.3095 6.16658 12 6.16658ZM13.0734 16.2233C13.0478 16.1489 13.0125 16.0783 12.9684 16.0133L12.8284 15.8383C12.6643 15.6764 12.456 15.5667 12.2297 15.5231C12.0033 15.4795 11.7692 15.5039 11.5567 15.5933C11.4153 15.6523 11.2851 15.7352 11.1717 15.8383C11.0636 15.9473 10.978 16.0766 10.92 16.2187C10.8619 16.3608 10.8325 16.513 10.8334 16.6666C10.8352 16.819 10.8669 16.9697 10.9267 17.1099C10.9791 17.2547 11.0627 17.3862 11.1716 17.4951C11.2805 17.6039 11.4119 17.6875 11.5567 17.7399C11.6964 17.8016 11.8474 17.8335 12 17.8335C12.1527 17.8335 12.3037 17.8016 12.4434 17.7399C12.5882 17.6875 12.7196 17.6039 12.8285 17.4951C12.9374 17.3862 13.021 17.2547 13.0734 17.1099C13.1332 16.9697 13.1649 16.819 13.1667 16.6666C13.1724 16.5889 13.1724 16.5109 13.1667 16.4333C13.1466 16.3589 13.1151 16.288 13.0734 16.2233ZM12 0.333252C9.6926 0.333252 7.43697 1.01749 5.51839 2.29944C3.59982 3.58139 2.10447 5.40347 1.22145 7.53528C0.338429 9.66708 0.10739 12.0129 0.557551 14.276C1.00771 16.5391 2.11885 18.6179 3.75047 20.2495C5.38208 21.8811 7.46088 22.9923 9.72399 23.4424C11.9871 23.8926 14.3329 23.6615 16.4647 22.7785C18.5965 21.8955 20.4186 20.4001 21.7005 18.4816C22.9825 16.563 23.6667 14.3074 23.6667 11.9999C23.6667 10.4678 23.3649 8.95074 22.7786 7.53528C22.1923 6.11981 21.333 4.83369 20.2496 3.75034C19.1663 2.66699 17.8802 1.80763 16.4647 1.22132C15.0492 0.635019 13.5321 0.333252 12 0.333252ZM12 21.3333C10.1541 21.3333 8.34958 20.7859 6.81472 19.7603C5.27986 18.7347 4.08359 17.2771 3.37717 15.5716C2.67075 13.8662 2.48592 11.9896 2.84605 10.1791C3.20618 8.36859 4.09509 6.70555 5.40038 5.40026C6.70567 4.09497 8.36871 3.20605 10.1792 2.84592C11.9897 2.48579 13.8663 2.67063 15.5718 3.37704C17.2772 4.08346 18.7349 5.27974 19.7604 6.8146C20.786 8.34945 21.3334 10.154 21.3334 11.9999C21.3334 14.4753 20.35 16.8492 18.5997 18.5996C16.8494 20.3499 14.4754 21.3333 12 21.3333Z" fill="#A832A2"/>
</svg>
