<svg width="24" height="24" viewBox="0 0 24 24" fill="none" xmlns="http://www.w3.org/2000/svg">
<mask id="path-1-inside-1_2413_3645" fill="white">
<path d="M17.4984 14.3811C17.2006 14.2323 15.7319 13.5121 15.4582 13.4137C15.1845 13.3141 14.9855 13.2648 14.7866 13.5625C14.5876 13.859 14.0149 14.5299 13.84 14.728C13.6664 14.926 13.4916 14.95 13.1937 14.8012C12.3136 14.4524 11.5012 13.9536 10.793 13.3273C10.1399 12.7263 9.5799 12.0322 9.13143 11.2676C8.9578 10.9699 9.11334 10.8091 9.26286 10.6615C9.3967 10.5282 9.5619 10.3146 9.71021 10.1406C9.83305 9.99031 9.93374 9.82339 10.0092 9.64485C10.049 9.5628 10.0675 9.47217 10.0631 9.38119C10.0586 9.29021 10.0314 9.20178 9.98392 9.12393C9.90916 8.9751 9.3123 7.51198 9.06391 6.91665C8.82154 6.33812 8.57556 6.41614 8.39108 6.40654C8.21744 6.39814 8.01849 6.39574 7.81953 6.39574C7.66819 6.39994 7.51936 6.43527 7.3824 6.49951C7.24544 6.56375 7.12331 6.65551 7.02371 6.76902C6.68612 7.08725 6.41882 7.47199 6.23883 7.89872C6.05884 8.32545 5.97011 8.78482 5.9783 9.24756C6.07512 10.3689 6.49881 11.4377 7.19735 12.3226C8.4778 14.2335 10.2355 15.7801 12.2978 16.8104C12.8541 17.0483 13.4224 17.2574 14.0004 17.437C14.6097 17.6211 15.2539 17.661 15.8814 17.5534C16.2971 17.4696 16.6907 17.3008 17.0375 17.0579C17.3843 16.8149 17.6767 16.503 17.8963 16.1419C18.0922 15.6977 18.1526 15.206 18.0699 14.728C17.9964 14.6031 17.7974 14.5299 17.4984 14.3811ZM20.5032 3.4839C18.4533 1.44388 15.7285 0.214876 12.8361 0.0257091C9.94367 -0.163458 7.08075 0.700099 4.78033 2.45561C2.4799 4.21112 0.898744 6.73894 0.331222 9.56847C-0.236299 12.398 0.248491 15.3364 1.69534 17.8366L0 24L6.33521 22.3472C8.08741 23.2969 10.0507 23.7946 12.0458 23.7947H12.0506C14.4141 23.7935 16.7242 23.0951 18.689 21.7875C20.6538 20.48 22.1853 18.6222 23.0898 16.4486C23.9943 14.2751 24.2314 11.8835 23.771 9.57593C23.3106 7.26837 22.1735 5.14841 20.5032 3.48389V3.4839ZM17.3284 20.2744C15.7466 21.2613 13.9175 21.785 12.0506 21.7855H12.0458C10.2672 21.7854 8.52129 21.3091 6.99116 20.4064L6.62822 20.1927L2.86857 21.1746L3.87178 17.5258L3.63666 17.1513C2.5931 15.4947 2.06646 13.5673 2.12332 11.6129C2.18018 9.65837 2.81799 7.76456 3.95609 6.17089C5.0942 4.57723 6.6815 3.35528 8.51726 2.65958C10.353 1.96387 12.3548 1.82565 14.2695 2.26239C16.1842 2.69913 17.9257 3.69121 19.274 5.11319C20.6223 6.53518 21.5167 8.32319 21.8441 10.2511C22.1715 12.1791 21.9172 14.1604 21.1134 15.9445C20.3097 17.7286 18.9924 19.2354 17.3284 20.2744Z"/>
</mask>
<path d="M15.4582 13.4137L14.7742 15.2931L14.7815 15.2957L15.4582 13.4137ZM14.7866 13.5625L16.4473 14.677L16.4494 14.6739L14.7866 13.5625ZM13.84 14.728L12.3407 13.4043L12.3362 13.4095L13.84 14.728ZM13.1937 14.8012L14.0878 13.0121L14.0107 12.9736L13.9306 12.9419L13.1937 14.8012ZM10.793 13.3273L9.43881 14.799L9.45327 14.8123L9.46799 14.8254L10.793 13.3273ZM9.13143 11.2676L7.40386 12.2753L7.4063 12.2795L9.13143 11.2676ZM9.26286 10.6615L10.6681 12.0846L10.6738 12.0789L9.26286 10.6615ZM9.71021 10.1406L11.2324 11.4378L11.2457 11.4223L11.2586 11.4065L9.71021 10.1406ZM10.0092 9.64485L8.2092 8.77317L8.18701 8.81898L8.16719 8.86586L10.0092 9.64485ZM9.98392 9.12393L8.19672 10.0217L8.23374 10.0953L8.27669 10.1657L9.98392 9.12393ZM9.06391 6.91665L10.9097 6.14653L10.9086 6.14386L9.06391 6.91665ZM8.39108 6.40654L8.49503 4.40923L8.48774 4.40888L8.39108 6.40654ZM7.81953 6.39574V4.39574H7.79178L7.76405 4.39651L7.81953 6.39574ZM7.02371 6.76902L8.39559 8.22434L8.46452 8.15936L8.52701 8.08815L7.02371 6.76902ZM5.9783 9.24756L3.97861 9.28293L3.97982 9.35139L3.98571 9.41961L5.9783 9.24756ZM7.19735 12.3226L8.85882 11.2093L8.81547 11.1446L8.76722 11.0835L7.19735 12.3226ZM12.2978 16.8104L11.404 18.5996L11.457 18.626L11.5114 18.6493L12.2978 16.8104ZM14.0004 17.437L13.4072 19.347L13.4145 19.3492L13.4218 19.3514L14.0004 17.437ZM15.8814 17.5534L16.2194 19.5246L16.2482 19.5197L16.2768 19.5139L15.8814 17.5534ZM17.8963 16.1419L19.6053 17.1808L19.6734 17.0688L19.7263 16.9489L17.8963 16.1419ZM18.0699 14.728L20.0407 14.3874L19.9785 14.0274L19.793 13.7126L18.0699 14.728ZM20.5032 3.4839L19.0924 4.90153L22.5032 8.29588V3.4839H20.5032ZM1.69534 17.8366L3.62371 18.3671L3.8458 17.5597L3.42639 16.8349L1.69534 17.8366ZM0 24L-1.92838 23.4695L-2.84715 26.8097L0.504872 25.9352L0 24ZM6.33521 22.3472L7.28825 20.5889L6.59421 20.2127L5.83034 20.412L6.33521 22.3472ZM12.0458 23.7947L12.0457 25.7947H12.0458V23.7947ZM12.0506 23.7947V25.7947H12.0517L12.0506 23.7947ZM20.5032 3.48389L21.915 2.06725L18.5032 -1.33282V3.48389H20.5032ZM12.0506 21.7855V23.7855H12.0512L12.0506 21.7855ZM12.0458 21.7855L12.0457 23.7855H12.0458V21.7855ZM6.99116 20.4064L8.00736 18.6838L8.00573 18.6828L6.99116 20.4064ZM6.62822 20.1927L7.64279 18.4692L6.92677 18.0477L6.12287 18.2576L6.62822 20.1927ZM2.86857 21.1746L0.940131 20.6443L0.0216096 23.9851L3.37391 23.1097L2.86857 21.1746ZM3.87178 17.5258L5.80022 18.056L6.03351 17.2075L5.56559 16.4623L3.87178 17.5258ZM3.63666 17.1513L5.33046 16.0878L5.32887 16.0853L3.63666 17.1513ZM18.3924 12.592C18.2329 12.5123 17.7821 12.2906 17.3361 12.0761C16.9551 11.8929 16.3959 11.6255 16.1349 11.5316L14.7815 15.2957C14.75 15.2844 14.8071 15.3063 15.0106 15.4005C15.1785 15.4782 15.3869 15.5772 15.6024 15.6809C16.0336 15.8883 16.466 16.101 16.6044 16.1701L18.3924 12.592ZM16.1422 11.5343C16.0638 11.5057 15.5133 11.2781 14.867 11.3521C14.0013 11.4511 13.4388 11.9798 13.1238 12.4511L16.4494 14.6739C16.4035 14.7424 16.2906 14.8932 16.0851 15.0373C15.8603 15.1949 15.5952 15.2948 15.3217 15.3261C15.0733 15.3546 14.8872 15.3183 14.814 15.3013C14.7475 15.2859 14.7141 15.2712 14.7742 15.2931L16.1422 11.5343ZM13.1259 12.448C13.1263 12.4474 13.1237 12.4513 13.1172 12.4603C13.1109 12.4691 13.1024 12.4809 13.0913 12.4958C13.0688 12.5261 13.0401 12.5636 13.0052 12.608C12.9353 12.6973 12.8514 12.8007 12.7633 12.9073C12.5856 13.122 12.4126 13.3229 12.3407 13.4043L15.3394 16.0516C15.4969 15.8732 16.1616 15.1027 16.4473 14.677L13.1259 12.448ZM12.3362 13.4095C12.4447 13.2857 12.7737 12.9742 13.3283 12.9085C13.5701 12.8799 13.7665 12.9108 13.8911 12.9426C14.0093 12.9729 14.0798 13.0082 14.0878 13.0121L12.2997 16.5902C12.5803 16.7304 13.1223 16.9608 13.7986 16.8808C14.5585 16.7908 15.0617 16.3683 15.3439 16.0465L12.3362 13.4095ZM13.9306 12.9419C13.2656 12.6783 12.6523 12.3017 12.118 11.8292L9.46799 14.8254C10.3501 15.6055 11.3615 16.2264 12.4569 16.6605L13.9306 12.9419ZM12.1472 11.8555C11.6396 11.3884 11.2047 10.8492 10.8566 10.2557L7.4063 12.2795C7.9551 13.2151 8.64012 14.0642 9.43881 14.799L12.1472 11.8555ZM10.859 10.2599C10.9193 10.3633 11.0085 10.5531 11.0419 10.8169C11.0772 11.0961 11.0387 11.3697 10.9491 11.6092C10.8666 11.8298 10.7582 11.9748 10.7071 12.0377C10.6618 12.0935 10.6251 12.127 10.6681 12.0846L7.85765 9.23831C7.83538 9.2603 7.41793 9.63242 7.2028 10.2074C6.91599 10.9739 7.07784 11.7164 7.40386 12.2753L10.859 10.2599ZM10.6738 12.0789C10.8825 11.8712 11.1944 11.4824 11.2324 11.4378L8.18797 8.84334C8.13994 8.8997 8.09331 8.95601 8.05385 9.00384C8.01117 9.05557 7.97889 9.0949 7.94509 9.13545C7.87109 9.22418 7.84749 9.2484 7.8519 9.24401L10.6738 12.0789ZM11.2586 11.4065C11.5019 11.1089 11.7015 10.778 11.8513 10.4238L8.16719 8.86586C8.16597 8.86874 8.16422 8.87173 8.16183 8.87465L11.2586 11.4065ZM11.8093 10.5165C11.9948 10.1335 12.0814 9.70974 12.0607 9.28409L8.06541 9.4783C8.05356 9.23459 8.10316 8.99215 8.2092 8.77317L11.8093 10.5165ZM12.0607 9.28409C12.04 8.85843 11.9127 8.44524 11.6911 8.08212L8.27669 10.1657C8.15012 9.95832 8.07726 9.722 8.06541 9.4783L12.0607 9.28409ZM11.7711 8.22622C11.7911 8.26592 11.7731 8.22903 11.6874 8.02511C11.6194 7.86352 11.532 7.65268 11.4374 7.42385C11.2512 6.97325 11.0355 6.44795 10.9097 6.14653L7.21813 7.68677C7.34075 7.98068 7.54765 8.48461 7.74065 8.95161C7.83569 9.18158 7.92697 9.40163 7.99976 9.57484C8.05477 9.70572 8.1394 9.90754 8.19672 10.0217L11.7711 8.22622ZM10.9086 6.14386C10.6984 5.64218 10.3126 4.99377 9.55692 4.63839C9.19428 4.46785 8.86615 4.42455 8.65628 4.41233C8.56121 4.40679 8.47923 4.40742 8.45622 4.4075C8.41249 4.40765 8.45068 4.40693 8.49503 4.40924L8.28712 8.40384C8.3776 8.40854 8.46383 8.4075 8.4698 8.40748C8.4965 8.40738 8.46591 8.40802 8.42363 8.40555C8.31934 8.39948 8.10244 8.37463 7.85466 8.2581C7.32868 8.01075 7.18705 7.61259 7.21924 7.68944L10.9086 6.14386ZM8.48774 4.40888C8.26588 4.39814 8.02921 4.39574 7.81953 4.39574V8.39574C8.00777 8.39574 8.16901 8.39813 8.29441 8.4042L8.48774 4.40888ZM7.76405 4.39651C7.33818 4.40833 6.91909 4.50774 6.53308 4.6888L8.23171 8.31022C8.11962 8.3628 7.9982 8.39155 7.87502 8.39497L7.76405 4.39651ZM6.53308 4.6888C6.14704 4.86988 5.80215 5.12883 5.52042 5.44989L8.52701 8.08815C8.44448 8.18219 8.34383 8.25763 8.23171 8.31022L6.53308 4.6888ZM5.65184 5.3137C5.11219 5.8224 4.68433 6.43796 4.39604 7.12145L8.08161 8.67598C8.1533 8.50602 8.26005 8.35211 8.39559 8.22434L5.65184 5.3137ZM4.39604 7.12145C4.10774 7.80498 3.96549 8.54113 3.97861 9.28293L7.97798 9.21219C7.97473 9.0285 8.00994 8.84592 8.08161 8.67598L4.39604 7.12145ZM3.98571 9.41961C4.11621 10.931 4.68725 12.3706 5.62747 13.5618L8.76722 11.0835C8.31038 10.5047 8.03402 9.80676 7.97088 9.07551L3.98571 9.41961ZM5.53587 13.436C7.00976 15.6355 9.03224 17.4146 11.404 18.5996L13.1917 15.0213C11.4387 14.1455 9.94584 12.8315 8.85882 11.2093L5.53587 13.436ZM11.5114 18.6493C12.1309 18.9142 12.7636 19.1471 13.4072 19.347L14.5936 15.527C14.0812 15.3678 13.5774 15.1824 13.0842 14.9715L11.5114 18.6493ZM13.4218 19.3514C14.3282 19.6254 15.2861 19.6846 16.2194 19.5246L15.5435 15.5821C15.2216 15.6373 14.8913 15.6168 14.579 15.5225L13.4218 19.3514ZM16.2768 19.5139C16.9623 19.3757 17.6121 19.0973 18.1851 18.6959L15.89 15.4198C15.7693 15.5044 15.6318 15.5635 15.4861 15.5929L16.2768 19.5139ZM18.1851 18.6959C18.758 18.2946 19.2418 17.7788 19.6053 17.1808L16.1873 15.103C16.1117 15.2273 16.0107 15.3353 15.89 15.4198L18.1851 18.6959ZM19.7263 16.9489C20.0809 16.1446 20.1905 15.2537 20.0407 14.3874L16.0992 15.0686C16.1147 15.1583 16.1034 15.2508 16.0663 15.3349L19.7263 16.9489ZM19.793 13.7126C19.4601 13.1476 18.9618 12.8815 18.8261 12.8076C18.7283 12.7542 18.6314 12.7075 18.5703 12.6781C18.4967 12.6427 18.4483 12.6198 18.3895 12.5906L16.6072 16.1716C16.698 16.2168 16.7866 16.2588 16.8368 16.2829C16.8994 16.313 16.9129 16.3203 16.9113 16.3195C16.9076 16.3175 16.8904 16.308 16.8647 16.2917C16.8391 16.2755 16.7977 16.2478 16.7477 16.2081C16.6492 16.1298 16.4867 15.9807 16.3468 15.7433L19.793 13.7126ZM21.914 2.06628C19.5204 -0.31577 16.3404 -1.74938 12.9666 -1.97003L12.7056 2.02145C15.1166 2.17913 17.3862 3.20352 19.0924 4.90153L21.914 2.06628ZM12.9666 -1.97003C9.59282 -2.19068 6.25235 -1.18356 3.56701 0.865679L5.99364 4.04554C7.90915 2.58376 10.2945 1.86376 12.7056 2.02145L12.9666 -1.97003ZM3.56701 0.865679C0.881444 2.9151 -0.966352 5.86775 -1.62972 9.17517L2.29217 9.96178C2.76384 7.61014 4.07836 5.50713 5.99364 4.04554L3.56701 0.865679ZM-1.62972 9.17517C-2.29312 12.4827 -1.72622 15.9171 -0.0357116 18.8384L3.42639 16.8349C2.2232 14.7557 1.82052 12.3133 2.29217 9.96178L-1.62972 9.17517ZM-0.23304 17.3062L-1.92838 23.4695L1.92838 24.5304L3.62371 18.3671L-0.23304 17.3062ZM0.504872 25.9352L6.84008 24.2824L5.83034 20.412L-0.504872 22.0648L0.504872 25.9352ZM5.38217 24.1055C7.42727 25.214 9.71813 25.7946 12.0457 25.7947L12.046 21.7947C10.3833 21.7946 8.74755 21.3799 7.28825 20.5889L5.38217 24.1055ZM12.0458 25.7947H12.0506V21.7947H12.0458V25.7947ZM12.0517 25.7947C14.8085 25.7933 17.5037 24.9787 19.797 23.4526L17.581 20.1225C15.9446 21.2115 14.0197 21.7937 12.0496 21.7947L12.0517 25.7947ZM19.797 23.4526C22.0904 21.9264 23.8793 19.7569 24.9363 17.2171L21.2433 15.6802C20.4912 17.4874 19.2173 19.0336 17.581 20.1225L19.797 23.4526ZM24.9363 17.2171C25.9933 14.6771 26.2705 11.8818 25.7323 9.18463L21.8097 9.96724C22.1923 11.8852 21.9954 13.8731 21.2433 15.6802L24.9363 17.2171ZM25.7323 9.18463C25.1942 6.4875 23.8653 4.0109 21.915 2.06725L19.0914 4.90053C20.4816 6.28591 21.427 8.04924 21.8097 9.96724L25.7323 9.18463ZM18.5032 3.48389V3.4839H22.5032V3.48389H18.5032ZM16.2697 18.5776C15.0057 19.3662 13.5434 19.7851 12.0501 19.7855L12.0512 23.7855C14.2917 23.7849 16.4874 23.1565 18.3871 21.9712L16.2697 18.5776ZM12.0506 19.7855H12.0458V23.7855H12.0506V19.7855ZM12.0459 19.7855C10.6242 19.7854 9.22927 19.4046 8.00736 18.6838L5.97496 22.129C7.8133 23.2135 9.9101 23.7854 12.0457 23.7855L12.0459 19.7855ZM8.00573 18.6828L7.64279 18.4692L5.61364 21.9163L5.97658 22.1299L8.00573 18.6828ZM6.12287 18.2576L2.36322 19.2395L3.37391 23.1097L7.13356 22.1278L6.12287 18.2576ZM4.79701 21.7048L5.80022 18.056L1.94335 16.9956L0.940131 20.6443L4.79701 21.7048ZM5.56559 16.4623L5.33046 16.0878L1.94285 18.2148L2.17798 18.5893L5.56559 16.4623ZM5.32887 16.0853C4.49666 14.7642 4.07717 13.2281 4.12247 11.671L0.124162 11.5547C0.0557404 13.9066 0.689543 16.2253 1.94444 18.2173L5.32887 16.0853ZM4.12247 11.671C4.16777 10.114 4.67587 8.60439 5.58367 7.33322L2.32852 5.00857C0.960103 6.92473 0.192583 9.20279 0.124162 11.5547L4.12247 11.671ZM5.58367 7.33322C6.49155 6.06194 7.75875 5.08584 9.22602 4.52978L7.8085 0.789374C5.60424 1.62473 3.69686 3.09252 2.32852 5.00857L5.58367 7.33322ZM9.22602 4.52978C10.6934 3.97369 12.2939 3.86312 13.8247 4.2123L14.7143 0.312471C12.4158 -0.211819 10.0127 -0.0459515 7.8085 0.789374L9.22602 4.52978ZM13.8247 4.2123C15.3555 4.56148 16.7466 5.35437 17.8227 6.48929L20.7253 3.7371C19.1049 2.02805 17.0128 0.836774 14.7143 0.312471L13.8247 4.2123ZM17.8227 6.48929C18.8987 7.6241 19.6114 9.0499 19.8723 10.586L23.8158 9.91629C23.4219 7.59648 22.3459 5.44626 20.7253 3.7371L17.8227 6.48929ZM19.8723 10.586C20.1332 12.1221 19.9307 13.7008 19.29 15.123L22.9369 16.766C23.9038 14.62 24.2098 12.2361 23.8158 9.91629L19.8723 10.586ZM19.29 15.123C18.6492 16.5453 17.5984 17.748 16.2692 18.5779L18.3876 21.9709C20.3865 20.7229 21.9701 18.912 22.9369 16.766L19.29 15.123Z" fill="#F56C6C" mask="url(#path-1-inside-1_2413_3645)"/>
</svg>
