<svg width="31" height="30" viewBox="0 0 31 30" fill="none" xmlns="http://www.w3.org/2000/svg">
<rect x="0.5" width="30" height="30" rx="3" fill="#FFF2C7"/>
<path d="M13.7072 15.9596C13.3167 15.569 12.6835 15.569 12.293 15.9596C11.9025 16.3501 11.9025 16.9832 12.293 17.3738L13.7072 15.9596ZM14.6667 18.3333L13.9596 19.0404C14.3502 19.431 14.9833 19.431 15.3739 19.0404L14.6667 18.3333ZM18.7072 15.7071C19.0977 15.3166 19.0977 14.6834 18.7072 14.2929C18.3167 13.9024 17.6835 13.9024 17.293 14.2929L18.7072 15.7071ZM20.3334 10.8333V20.8333H22.3334V10.8333H20.3334ZM19.6667 21.5H11.3334V23.5H19.6667V21.5ZM10.6667 20.8333V10.8333H8.66675V20.8333H10.6667ZM11.3334 10.1667H13.0001V8.16667H11.3334V10.1667ZM18.0001 10.1667H19.6667V8.16667H18.0001V10.1667ZM11.3334 21.5C10.9652 21.5 10.6667 21.2015 10.6667 20.8333H8.66675C8.66675 22.3061 9.86066 23.5 11.3334 23.5V21.5ZM20.3334 20.8333C20.3334 21.2015 20.0349 21.5 19.6667 21.5V23.5C21.1395 23.5 22.3334 22.3061 22.3334 20.8333H20.3334ZM22.3334 10.8333C22.3334 9.36057 21.1395 8.16667 19.6667 8.16667V10.1667C20.0349 10.1667 20.3334 10.4651 20.3334 10.8333H22.3334ZM10.6667 10.8333C10.6667 10.4651 10.9652 10.1667 11.3334 10.1667V8.16667C9.86066 8.16667 8.66675 9.36057 8.66675 10.8333H10.6667ZM12.293 17.3738L13.9596 19.0404L15.3739 17.6262L13.7072 15.9596L12.293 17.3738ZM15.3739 19.0404L18.7072 15.7071L17.293 14.2929L13.9596 17.6262L15.3739 19.0404ZM14.6667 8.5H16.3334V6.5H14.6667V8.5ZM16.3334 9.83333H14.6667V11.8333H16.3334V9.83333ZM14.6667 9.83333C14.2986 9.83333 14.0001 9.53486 14.0001 9.16667H12.0001C12.0001 10.6394 13.194 11.8333 14.6667 11.8333V9.83333ZM17.0001 9.16667C17.0001 9.53486 16.7016 9.83333 16.3334 9.83333V11.8333C17.8062 11.8333 19.0001 10.6394 19.0001 9.16667H17.0001ZM16.3334 8.5C16.7016 8.5 17.0001 8.79848 17.0001 9.16667H19.0001C19.0001 7.69391 17.8062 6.5 16.3334 6.5V8.5ZM14.6667 6.5C13.194 6.5 12.0001 7.69391 12.0001 9.16667H14.0001C14.0001 8.79848 14.2986 8.5 14.6667 8.5V6.5Z" fill="#FFC000"/>
</svg>
