<svg width="31" height="30" viewBox="0 0 31 30" fill="none" xmlns="http://www.w3.org/2000/svg">
<rect x="0.5" width="30" height="30" rx="3" fill="#FFF2C7"/>
<path d="M14.6667 9.90182V21.0335C14.6667 21.8434 14.0101 22.5 13.2001 22.5C12.5804 22.5 12.0275 22.1104 11.8191 21.5267L10.0304 16.4024M20.5 15.8333C21.8807 15.8333 23 14.714 23 13.3333C23 11.9526 21.8807 10.8333 20.5 10.8333M10.0304 16.4024C8.83691 15.8951 8 14.7119 8 13.3333C8 11.4924 9.49238 10 11.3333 10H12.8601C16.2773 10 19.2141 8.97159 20.5 7.5L20.5 19.1667C19.2141 17.6951 16.2773 16.6667 12.8601 16.6667L11.3333 16.6667C10.871 16.6667 10.4306 16.5725 10.0304 16.4024Z" stroke="#FFC000" stroke-width="2" stroke-linecap="round" stroke-linejoin="round"/>
</svg>
