<svg width="31" height="30" viewBox="0 0 31 30" fill="none" xmlns="http://www.w3.org/2000/svg">
<rect x="0.5" width="30" height="30" rx="3" fill="#FFF2C7"/>
<path d="M21.3333 22.5V9.16667C21.3333 8.24619 20.5871 7.5 19.6667 7.5H11.3333C10.4129 7.5 9.66667 8.24619 9.66667 9.16667V22.5M21.3333 22.5L23 22.5M21.3333 22.5H17.1667M9.66667 22.5L8 22.5M9.66667 22.5H13.8333M13 10.8333H13.8333M13 14.1666H13.8333M17.1667 10.8333H18M17.1667 14.1666H18M13.8333 22.5V18.3333C13.8333 17.8731 14.2064 17.5 14.6667 17.5H16.3333C16.7936 17.5 17.1667 17.8731 17.1667 18.3333V22.5M13.8333 22.5H17.1667" stroke="#FFC000" stroke-width="2" stroke-linecap="round" stroke-linejoin="round"/>
</svg>
